M48
;DRILL file {Pcbnew (2011-nov-30)-testing} date Wed 20 Feb 2013 12:41:10 PM PST
;FORMAT={2:4/ absolute / inch / suppress trailing zeros}
FMAT,2
INCH,LZ
T1C0.032
T2C0.040
T3C0.043
T4C0.045
T5C0.050
T6C0.070
T7C0.102
T8C0.107
T9C0.118
T10C0.120
T11C0.150
%
G90
G05
M72
T1
X036Y-0348
X037Y-0348
X040551Y-046035
X040551Y-047035
X04325Y-0557
X04525Y-0557
X04565Y-05345
X0462Y-0479
X0462Y-0489
X0462Y-0499
X0462Y-0509
X0492Y-0479
X0492Y-0489
X0492Y-0499
X0492Y-0509
X04965Y-05345
X05105Y-04735
X05105Y-05235
X05345Y-04815
X05345Y-04915
T2
X040472Y-042807
X040472Y-043807
X04378Y-036402
X04378Y-038402
X043858Y-041913
X043858Y-043913
X0496Y-0451
X0506Y-0451
X0516Y-0451
T3
X047596Y-06157
X04858Y-06157
X049564Y-06157
T4
X036713Y-052362
X041713Y-052362
T5
X037567Y-033228
X0441Y-0464
X0441Y-0534
X051567Y-033228
T6
X035079Y-056771
X035079Y-060709
X036984Y-044508
X036984Y-046378
X036984Y-048248
X041299Y-056771
X041299Y-060709
T7
X037138Y-0378
T8
X046808Y-058814
X050352Y-058814
T9
X0395Y-0378
T10
X035Y-0325
X035Y-06395
X054Y-0325
X054Y-06395
T11
X0506Y-037848
T0
M30
