<?xml version="1.0" standalone="no"?>
 <!DOCTYPE svg PUBLIC "-//W3C//DTD SVG 1.1//EN" 
 "http://www.w3.org/Graphics/SVG/1.1/DTD/svg11.dtd"> 
<svg xmlns="http://www.w3.org/2000/svg" version="1.1" 
    width="29.7002cm" height="21.0007cm" viewBox="0 0 116930 82680 ">
<title>SVG Picture created as hv_switching_psu.svg date 2013/05/24 18:35:50 </title>
  <desc>Picture generated by Eeschema-SVG </desc>
<g style="fill:#000000; fill-opacity:1;stroke:#000000; stroke-opacity:1;
stroke-linecap:round; stroke-linejoin:round; "
 transform="translate(0 0) scale(1 1)">
</g>
<g style="fill:#A00000; fill-opacity:0.0; 
stroke:#A00000; stroke-width:100; stroke-opacity:1; 
stroke-linecap:round; stroke-linejoin:round;">
<path d="M4000 4000
L112930 4000
L112930 78680
L4000 78680
L4000 4000
" />
<path d="M4700 4700
L112230 4700
L112230 77980
L4700 77980
L4700 4700
" />
<path d="M25780 4000
L25780 4700
" />
<path d="M15030 4550
L14750 4550
" />
<path d="M14890 4550
L14890 4050
L14840 4120
L14790 4170
L14750 4200
" />
<path d="M25780 78680
L25780 77980
" />
<path d="M15030 78530
L14750 78530
" />
<path d="M14890 78530
L14890 78030
L14840 78100
L14790 78150
L14750 78180
" />
<path d="M47560 4000
L47560 4700
" />
<path d="M36530 4100
L36550 4080
L36600 4050
L36720 4050
L36760 4080
L36790 4100
L36810 4150
L36810 4200
L36790 4270
L36500 4550
L36810 4550
" />
<path d="M47560 78680
L47560 77980
" />
<path d="M36530 78080
L36550 78060
L36600 78030
L36720 78030
L36760 78060
L36790 78080
L36810 78130
L36810 78180
L36790 78250
L36500 78530
L36810 78530
" />
<path d="M69340 4000
L69340 4700
" />
<path d="M58280 4050
L58590 4050
L58420 4240
L58500 4240
L58540 4270
L58570 4290
L58590 4340
L58590 4460
L58570 4500
L58540 4530
L58500 4550
L58350 4550
L58310 4530
L58280 4500
" />
<path d="M69340 78680
L69340 77980
" />
<path d="M58280 78030
L58590 78030
L58420 78220
L58500 78220
L58540 78250
L58570 78270
L58590 78320
L58590 78440
L58570 78480
L58540 78510
L58500 78530
L58350 78530
L58310 78510
L58280 78480
" />
<path d="M91120 4000
L91120 4700
" />
<path d="M80320 4220
L80320 4550
" />
<path d="M80200 4030
L80090 4390
L80390 4390
" />
<path d="M91120 78680
L91120 77980
" />
<path d="M80320 78200
L80320 78530
" />
<path d="M80200 78010
L80090 78370
L80390 78370
" />
<path d="M102130 4050
L101890 4050
L101870 4290
L101890 4270
L101940 4240
L102060 4240
L102100 4270
L102130 4290
L102150 4340
L102150 4460
L102130 4500
L102100 4530
L102060 4550
L101940 4550
L101890 4530
L101870 4500
" />
<path d="M102130 78030
L101890 78030
L101870 78270
L101890 78250
L101940 78220
L102060 78220
L102100 78250
L102130 78270
L102150 78320
L102150 78440
L102130 78480
L102100 78510
L102060 78530
L101940 78530
L101890 78510
L101870 78480
" />
<path d="M4000 28890
L4700 28890
" />
<path d="M4240 16510
L4470 16510
" />
<path d="M4190 16650
L4350 16150
L4520 16650
" />
<path d="M112930 28890
L112230 28890
" />
<path d="M112470 16510
L112700 16510
" />
<path d="M112420 16650
L112580 16150
L112750 16650
" />
<path d="M4000 53780
L4700 53780
" />
<path d="M4390 41280
L4460 41300
L4480 41330
L4500 41380
L4500 41450
L4480 41490
L4460 41520
L4410 41540
L4220 41540
L4220 41040
L4390 41040
L4430 41070
L4460 41090
L4480 41140
L4480 41190
L4460 41230
L4430 41260
L4390 41280
L4220 41280
" />
<path d="M112930 53780
L112230 53780
" />
<path d="M112620 41280
L112690 41300
L112710 41330
L112730 41380
L112730 41450
L112710 41490
L112690 41520
L112640 41540
L112450 41540
L112450 41040
L112620 41040
L112660 41070
L112690 41090
L112710 41140
L112710 41190
L112690 41230
L112660 41260
L112620 41280
L112450 41280
" />
<path d="M4500 66380
L4480 66410
L4410 66430
L4360 66430
L4290 66410
L4240 66360
L4220 66310
L4200 66220
L4200 66150
L4220 66050
L4240 66000
L4290 65960
L4360 65930
L4410 65930
L4480 65960
L4500 65980
" />
<path d="M112730 66380
L112710 66410
L112640 66430
L112590 66430
L112520 66410
L112470 66360
L112450 66310
L112430 66220
L112430 66150
L112450 66050
L112470 66000
L112520 65960
L112590 65930
L112640 65930
L112710 65960
L112730 65980
" />
<path d="M79380 76420
L79450 75820
L79600 75820
L79680 75850
L79730 75910
L79750 75970
L79770 76080
L79760 76170
L79720 76280
L79680 76340
L79610 76390
L79530 76420
L79380 76420
" />
<path d="M80240 76420
L80280 76110
L80250 76050
L80200 76020
L80090 76020
L80020 76050
" />
<path d="M80240 76390
L80180 76420
L80040 76420
L79980 76390
L79960 76340
L79970 76280
L80000 76220
L80070 76190
L80210 76190
L80270 76170
" />
<path d="M80490 76020
L80720 76020
" />
<path d="M80590 75820
L80530 76340
L80550 76390
L80610 76420
L80670 76420
" />
<path d="M81090 76390
L81030 76420
L80920 76420
L80860 76390
L80840 76340
L80870 76110
L80900 76050
L80970 76020
L81080 76020
L81130 76050
L81160 76110
L81150 76170
L80850 76220
" />
<path d="M81370 76370
L81400 76390
L81370 76420
L81340 76390
L81370 76370
L81370 76420
" />
<path d="M81410 76050
L81440 76080
L81410 76110
L81380 76080
L81410 76050
L81410 76110
" />
<path d="M82160 75880
L82190 75850
L82250 75820
L82390 75820
L82450 75850
L82480 75880
L82500 75940
L82490 75990
L82450 76080
L82070 76420
L82440 76420
" />
<path d="M83050 75820
L82760 75820
L82700 76110
L82730 76080
L82790 76050
L82930 76050
L82990 76080
L83020 76110
L83040 76170
L83020 76310
L82980 76370
L82950 76390
L82890 76420
L82750 76420
L82690 76390
L82660 76370
" />
<path d="M83720 76420
L83770 76020
" />
<path d="M83760 76080
L83790 76050
L83860 76020
L83940 76020
L83990 76050
L84020 76110
L83980 76420
" />
<path d="M84020 76110
L84050 76050
L84120 76020
L84200 76020
L84250 76050
L84280 76110
L84240 76420
" />
<path d="M84780 76420
L84820 76110
L84790 76050
L84740 76020
L84630 76020
L84560 76050
" />
<path d="M84780 76390
L84720 76420
L84580 76420
L84520 76390
L84500 76340
L84510 76280
L84540 76220
L84610 76190
L84750 76190
L84810 76170
" />
<path d="M85060 76020
L85150 76420
" />
<path d="M85340 76020
L85150 76420
L85070 76570
L85040 76590
L84980 76620
" />
<path d="M86020 75880
L86050 75850
L86110 75820
L86250 75820
L86310 75850
L86340 75880
L86360 75940
L86350 75990
L86310 76080
L85930 76420
L86300 76420
" />
<path d="M86740 75820
L86790 75820
L86850 75850
L86880 75880
L86900 75940
L86910 76050
L86900 76190
L86850 76310
L86810 76370
L86780 76390
L86720 76420
L86670 76420
L86610 76390
L86580 76370
L86560 76310
L86550 76190
L86560 76050
L86610 75940
L86650 75880
L86680 75850
L86740 75820
" />
<path d="M87440 76420
L87090 76420
" />
<path d="M87270 76420
L87340 75820
L87270 75910
L87200 75970
L87140 75990
" />
<path d="M87710 75820
L88080 75820
L87850 76050
L87930 76050
L87990 76080
L88020 76110
L88040 76170
L88020 76310
L87980 76370
L87950 76390
L87890 76420
L87720 76420
L87660 76390
L87640 76370
" />
<path d="M70970 77620
L70970 77020
" />
<path d="M71320 77620
L71060 77280
" />
<path d="M71320 77020
L70970 77370
" />
<path d="M71570 77620
L71570 77220
" />
<path d="M71570 77020
L71540 77050
L71570 77080
L71600 77050
L71570 77020
L71570 77080
" />
<path d="M72210 77570
L72180 77590
L72090 77620
L72030 77620
L71950 77590
L71890 77540
L71860 77480
L71830 77370
L71830 77280
L71860 77170
L71890 77110
L71950 77050
L72030 77020
L72090 77020
L72180 77050
L72210 77080
" />
<path d="M72720 77620
L72720 77310
L72690 77250
L72630 77220
L72520 77220
L72460 77250
" />
<path d="M72720 77590
L72660 77620
L72520 77620
L72460 77590
L72430 77540
L72430 77480
L72460 77420
L72520 77390
L72660 77390
L72720 77370
" />
<path d="M73260 77620
L73260 77020
" />
<path d="M73260 77590
L73200 77620
L73090 77620
L73030 77590
L73000 77570
L72970 77510
L72970 77340
L73000 77280
L73030 77250
L73090 77220
L73200 77220
L73260 77250
" />
<path d="M74000 77310
L74200 77310
" />
<path d="M74290 77620
L74000 77620
L74000 77020
L74290 77020
" />
<path d="M74540 77570
L74570 77590
L74540 77620
L74510 77590
L74540 77570
L74540 77620
" />
<path d="M74830 77620
L74830 77020
L74980 77020
L75060 77050
L75120 77110
L75150 77170
L75180 77280
L75180 77370
L75150 77480
L75120 77540
L75060 77590
L74980 77620
L74830 77620
" />
<path d="M75430 77570
L75460 77590
L75430 77620
L75400 77590
L75430 77570
L75430 77620
" />
<path d="M75690 77450
L75980 77450
" />
<path d="M75640 77620
L75840 77020
L76040 77620
" />
<path d="M76230 77570
L76260 77590
L76230 77620
L76200 77590
L76230 77570
L76230 77620
" />
<path d="M104530 76420
L104360 76140
" />
<path d="M104180 76420
L104250 75820
L104480 75820
L104540 75850
L104570 75880
L104590 75940
L104580 76020
L104540 76080
L104510 76110
L104440 76140
L104210 76140
" />
<path d="M105010 76390
L104950 76420
L104840 76420
L104780 76390
L104760 76340
L104790 76110
L104820 76050
L104890 76020
L105000 76020
L105050 76050
L105080 76110
L105070 76170
L104770 76220
" />
<path d="M105290 76020
L105380 76420
L105570 76020
" />
<path d="M105750 76370
L105780 76390
L105750 76420
L105720 76390
L105750 76370
L105750 76420
" />
<path d="M105790 76050
L105820 76080
L105790 76110
L105760 76080
L105790 76050
L105790 76110
" />
<path d="M70940 76390
L71030 76420
L71170 76420
L71230 76390
L71260 76370
L71290 76310
L71290 76250
L71260 76190
L71230 76170
L71170 76140
L71060 76110
L71000 76080
L70970 76050
L70940 75990
L70940 75940
L70970 75880
L71000 75850
L71060 75820
L71200 75820
L71290 75850
" />
<path d="M71540 76420
L71540 76020
" />
<path d="M71540 75820
L71510 75850
L71540 75880
L71570 75850
L71540 75820
L71540 75880
" />
<path d="M71780 76020
L72090 76020
L71780 76420
L72090 76420
" />
<path d="M72550 76390
L72490 76420
L72380 76420
L72320 76390
L72290 76340
L72290 76110
L72320 76050
L72380 76020
L72490 76020
L72550 76050
L72580 76110
L72580 76170
L72290 76220
" />
<path d="M72830 76370
L72860 76390
L72830 76420
L72800 76390
L72830 76370
L72830 76420
" />
<path d="M72830 76050
L72860 76080
L72830 76110
L72800 76080
L72830 76050
L72830 76110
" />
<path d="M73550 76250
L73840 76250
" />
<path d="M73500 76420
L73700 75820
L73900 76420
" />
<path d="M74350 76020
L74350 76420
" />
<path d="M74210 75790
L74060 76220
L74440 76220
" />
<path d="M104170 77620
L104170 77020
" />
<path d="M104720 77620
L104720 77020
" />
<path d="M104720 77590
L104660 77620
L104550 77620
L104490 77590
L104460 77570
L104430 77510
L104430 77340
L104460 77280
L104490 77250
L104550 77220
L104660 77220
L104720 77250
" />
<path d="M105000 77570
L105030 77590
L105000 77620
L104970 77590
L105000 77570
L105000 77620
" />
<path d="M105000 77250
L105030 77280
L105000 77310
L104970 77280
L105000 77250
L105000 77310
" />
<path d="M106070 77620
L105720 77620
" />
<path d="M105900 77620
L105900 77020
L105840 77110
L105780 77170
L105720 77190
" />
<path d="M106750 76990
L106240 77770
" />
<path d="M107270 77620
L106920 77620
" />
<path d="M107100 77620
L107100 77020
L107040 77110
L106980 77170
L106920 77190
" />
<path d="M70970 74620
L71310 74620
" />
<path d="M71070 75220
L71140 74620
" />
<path d="M71440 75220
L71490 74820
" />
<path d="M71510 74620
L71480 74650
L71510 74680
L71540 74650
L71510 74620
L71510 74680
" />
<path d="M71700 74820
L71930 74820
" />
<path d="M71800 74620
L71740 75140
L71760 75190
L71820 75220
L71880 75220
" />
<path d="M72160 75220
L72100 75190
L72080 75140
L72140 74620
" />
<path d="M72610 75190
L72550 75220
L72440 75220
L72380 75190
L72360 75140
L72390 74910
L72420 74850
L72490 74820
L72600 74820
L72650 74850
L72680 74910
L72670 74970
L72370 75020
" />
<path d="M72890 75170
L72920 75190
L72890 75220
L72860 75190
L72890 75170
L72890 75220
" />
<path d="M72930 74850
L72960 74880
L72930 74910
L72900 74880
L72930 74850
L72930 74910
" />
<path d="M71170 72510
L70970 72510
" />
<path d="M70970 72820
L70970 72220
L71260 72220
" />
<path d="M71480 72820
L71480 72420
" />
<path d="M71480 72220
L71450 72250
L71480 72280
L71510 72250
L71480 72220
L71480 72280
" />
<path d="M71860 72820
L71800 72790
L71770 72740
L71770 72220
" />
<path d="M72310 72790
L72250 72820
L72140 72820
L72080 72790
L72050 72740
L72050 72510
L72080 72450
L72140 72420
L72250 72420
L72310 72450
L72340 72510
L72340 72570
L72050 72620
" />
<path d="M72590 72770
L72620 72790
L72590 72820
L72560 72790
L72590 72770
L72590 72820
" />
<path d="M72590 72450
L72620 72480
L72590 72510
L72560 72480
L72590 72450
L72590 72510
" />
<path d="M73340 72820
L73340 72220
" />
<path d="M73600 72820
L73600 72510
L73570 72450
L73510 72420
L73430 72420
L73370 72450
L73340 72480
" />
<path d="M73830 72420
L73970 72820
L74110 72420
" />
<path d="M74200 72880
L74660 72880
" />
<path d="M74770 72790
L74830 72820
L74950 72820
L75000 72790
L75030 72740
L75030 72710
L75000 72650
L74950 72620
L74860 72620
L74800 72590
L74770 72540
L74770 72510
L74800 72450
L74860 72420
L74950 72420
L75000 72450
" />
<path d="M75240 72420
L75350 72820
L75460 72540
L75580 72820
L75690 72420
" />
<path d="M75920 72820
L75920 72420
" />
<path d="M75920 72220
L75890 72250
L75920 72280
L75950 72250
L75920 72220
L75920 72280
" />
<path d="M76130 72420
L76360 72420
" />
<path d="M76210 72220
L76210 72740
L76240 72790
L76300 72820
L76360 72820
" />
<path d="M76810 72790
L76750 72820
L76640 72820
L76580 72790
L76550 72770
L76520 72710
L76520 72540
L76550 72480
L76580 72450
L76640 72420
L76750 72420
L76810 72450
" />
<path d="M77060 72820
L77060 72220
" />
<path d="M77320 72820
L77320 72510
L77290 72450
L77230 72420
L77150 72420
L77090 72450
L77060 72480
" />
<path d="M77600 72820
L77600 72420
" />
<path d="M77600 72220
L77570 72250
L77600 72280
L77630 72250
L77600 72220
L77600 72280
" />
<path d="M77890 72420
L77890 72820
" />
<path d="M77890 72480
L77920 72450
L77980 72420
L78060 72420
L78120 72450
L78150 72510
L78150 72820
" />
<path d="M78690 72420
L78690 72910
L78660 72970
L78630 72990
L78580 73020
L78490 73020
L78430 72990
" />
<path d="M78690 72790
L78630 72820
L78520 72820
L78460 72790
L78430 72770
L78400 72710
L78400 72540
L78430 72480
L78460 72450
L78520 72420
L78630 72420
L78690 72450
" />
<path d="M78830 72880
L79290 72880
" />
<path d="M79430 72420
L79430 73020
" />
<path d="M79430 72450
L79490 72420
L79600 72420
L79660 72450
L79690 72480
L79720 72540
L79720 72710
L79690 72770
L79660 72790
L79600 72820
L79490 72820
L79430 72790
" />
<path d="M79940 72790
L80000 72820
L80120 72820
L80170 72790
L80200 72740
L80200 72710
L80170 72650
L80120 72620
L80030 72620
L79970 72590
L79940 72540
L79940 72510
L79970 72450
L80030 72420
L80120 72420
L80170 72450
" />
<path d="M80720 72420
L80720 72820
" />
<path d="M80460 72420
L80460 72740
L80490 72790
L80550 72820
L80630 72820
L80690 72790
L80720 72770
" />
<path d="M81000 72770
L81030 72790
L81000 72820
L80970 72790
L81000 72770
L81000 72820
" />
<path d="M81260 72790
L81320 72820
L81440 72820
L81490 72790
L81520 72740
L81520 72710
L81490 72650
L81440 72620
L81350 72620
L81290 72590
L81260 72540
L81260 72510
L81290 72450
L81350 72420
L81440 72420
L81490 72450
" />
<path d="M82040 72790
L81980 72820
L81870 72820
L81810 72790
L81780 72770
L81750 72710
L81750 72540
L81780 72480
L81810 72450
L81870 72420
L81980 72420
L82040 72450
" />
<path d="M82290 72820
L82290 72220
" />
<path d="M82550 72820
L82550 72510
L82520 72450
L82460 72420
L82380 72420
L82320 72450
L82290 72480
" />
<path d="M70940 73990
L71030 74020
L71170 74020
L71230 73990
L71260 73970
L71290 73910
L71290 73850
L71260 73790
L71230 73770
L71170 73740
L71060 73710
L71000 73680
L70970 73650
L70940 73590
L70940 73540
L70970 73480
L71000 73450
L71060 73420
L71200 73420
L71290 73450
" />
<path d="M71540 74020
L71540 73420
" />
<path d="M71800 74020
L71800 73710
L71770 73650
L71710 73620
L71630 73620
L71570 73650
L71540 73680
" />
<path d="M72310 73990
L72250 74020
L72140 74020
L72080 73990
L72050 73940
L72050 73710
L72080 73650
L72140 73620
L72250 73620
L72310 73650
L72340 73710
L72340 73770
L72050 73820
" />
<path d="M72820 73990
L72760 74020
L72650 74020
L72590 73990
L72560 73940
L72560 73710
L72590 73650
L72650 73620
L72760 73620
L72820 73650
L72850 73710
L72850 73770
L72560 73820
" />
<path d="M73020 73620
L73250 73620
" />
<path d="M73100 73420
L73100 73940
L73130 73990
L73190 74020
L73250 74020
" />
<path d="M73440 73970
L73470 73990
L73440 74020
L73410 73990
L73440 73970
L73440 74020
" />
<path d="M73440 73650
L73470 73680
L73440 73710
L73410 73680
L73440 73650
L73440 73710
" />
<path d="M74620 73390
L74110 74170
" />
<path d="M70230 71980
L70230 77980
" />
<path d="M70230 71980
L112230 71980
" />
<path d="M70230 71980
L112230 71980
" />
<path d="M70230 74380
L112230 74380
" />
<path d="M103430 75580
L103430 77980
" />
<path d="M70230 76780
L112230 76780
" />
<path d="M70230 75580
L112230 75580
" />
<path d="M76830 75580
L76830 76780
" />
</g>
<g style="fill:#A00000; fill-opacity:0.0; 
stroke:#A00000; stroke-width:60; stroke-opacity:1; 
stroke-linecap:round; stroke-linejoin:round;">
</g>
<g style="fill:#00A000; fill-opacity:0.0; 
stroke:#00A000; stroke-width:60; stroke-opacity:1; 
stroke-linecap:round; stroke-linejoin:round;">
<path d="M22500 28000
L43500 28000
" />
</g>
<g style="fill:#00A000; fill-opacity:0.0; 
stroke:#00A000; stroke-width:0; stroke-opacity:1; 
stroke-linecap:round; stroke-linejoin:round;">
</g>
<g style="fill:#00A000; fill-opacity:1.0; 
stroke:#00A000; stroke-width:100; stroke-opacity:1; 
stroke-linecap:round; stroke-linejoin:round;">
<circle cx="68500" cy="16000" r="160" /> 
</g>
<g style="fill:#00A000; fill-opacity:1.0; 
stroke:#00A000; stroke-width:60; stroke-opacity:1; 
stroke-linecap:round; stroke-linejoin:round;">
<path d="M68500 16000
L68000 16000
" />
<path d="M68000 16000
L68000 20500
" />
</g>
<g style="fill:#00A000; fill-opacity:1.0; 
stroke:#00A000; stroke-width:0; stroke-opacity:1; 
stroke-linecap:round; stroke-linejoin:round;">
</g>
<g style="fill:#00A000; fill-opacity:1.0; 
stroke:#00A000; stroke-width:100; stroke-opacity:1; 
stroke-linecap:round; stroke-linejoin:round;">
<circle cx="43500" cy="16000" r="160" /> 
</g>
<g style="fill:#00A000; fill-opacity:1.0; 
stroke:#00A000; stroke-width:60; stroke-opacity:1; 
stroke-linecap:round; stroke-linejoin:round;">
<path d="M43500 18000
L43500 16000
" />
</g>
<g style="fill:#00A000; fill-opacity:1.0; 
stroke:#00A000; stroke-width:0; stroke-opacity:1; 
stroke-linecap:round; stroke-linejoin:round;">
</g>
<g style="fill:#00A000; fill-opacity:1.0; 
stroke:#00A000; stroke-width:100; stroke-opacity:1; 
stroke-linecap:round; stroke-linejoin:round;">
<circle cx="54500" cy="16000" r="160" /> 
</g>
<g style="fill:#00A000; fill-opacity:1.0; 
stroke:#00A000; stroke-width:60; stroke-opacity:1; 
stroke-linecap:round; stroke-linejoin:round;">
<path d="M58000 16000
L35500 16000
" />
</g>
<g style="fill:#00A000; fill-opacity:1.0; 
stroke:#00A000; stroke-width:0; stroke-opacity:1; 
stroke-linecap:round; stroke-linejoin:round;">
</g>
<g style="fill:#00A000; fill-opacity:1.0; 
stroke:#00A000; stroke-width:100; stroke-opacity:1; 
stroke-linecap:round; stroke-linejoin:round;">
<circle cx="39500" cy="16000" r="160" /> 
</g>
<g style="fill:#00A000; fill-opacity:1.0; 
stroke:#00A000; stroke-width:60; stroke-opacity:1; 
stroke-linecap:round; stroke-linejoin:round;">
<path d="M10500 11000
L10500 13500
" />
<path d="M22500 17000
L25500 17000
" />
<path d="M98000 24000
L98000 26000
" />
</g>
<g style="fill:#00A000; fill-opacity:1.0; 
stroke:#00A000; stroke-width:0; stroke-opacity:1; 
stroke-linecap:round; stroke-linejoin:round;">
</g>
<g style="fill:#00A000; fill-opacity:1.0; 
stroke:#00A000; stroke-width:100; stroke-opacity:1; 
stroke-linecap:round; stroke-linejoin:round;">
<circle cx="98000" cy="16000" r="160" /> 
</g>
<g style="fill:#00A000; fill-opacity:1.0; 
stroke:#00A000; stroke-width:60; stroke-opacity:1; 
stroke-linecap:round; stroke-linejoin:round;">
<path d="M98000 16000
L98000 20000
" />
<path d="M102500 20000
L102500 18000
" />
<path d="M102500 18000
L104000 18000
" />
<path d="M89000 39000
L89000 41500
" />
</g>
<g style="fill:#00A000; fill-opacity:1.0; 
stroke:#00A000; stroke-width:0; stroke-opacity:1; 
stroke-linecap:round; stroke-linejoin:round;">
</g>
<g style="fill:#00A000; fill-opacity:1.0; 
stroke:#00A000; stroke-width:100; stroke-opacity:1; 
stroke-linecap:round; stroke-linejoin:round;">
<circle cx="89000" cy="33000" r="160" /> 
</g>
<g style="fill:#00A000; fill-opacity:1.0; 
stroke:#00A000; stroke-width:60; stroke-opacity:1; 
stroke-linecap:round; stroke-linejoin:round;">
<path d="M89000 33000
L92000 33000
" />
<path d="M92000 33000
L92000 29500
" />
<path d="M92000 29500
L90500 29500
" />
</g>
<g style="fill:#00A000; fill-opacity:1.0; 
stroke:#00A000; stroke-width:0; stroke-opacity:1; 
stroke-linecap:round; stroke-linejoin:round;">
</g>
<g style="fill:#00A000; fill-opacity:1.0; 
stroke:#00A000; stroke-width:100; stroke-opacity:1; 
stroke-linecap:round; stroke-linejoin:round;">
<circle cx="89000" cy="25500" r="160" /> 
</g>
<g style="fill:#00A000; fill-opacity:1.0; 
stroke:#00A000; stroke-width:60; stroke-opacity:1; 
stroke-linecap:round; stroke-linejoin:round;">
<path d="M89000 27000
L89000 22500
" />
<path d="M89000 16000
L89000 17500
" />
<path d="M58500 32000
L58500 35500
" />
<path d="M79000 16000
L79000 17500
" />
<path d="M58500 28000
L62500 28000
" />
<path d="M37000 33000
L37000 30000
" />
<path d="M37000 37000
L37000 38500
" />
<path d="M25500 32000
L25500 30000
" />
<path d="M25500 30000
L22500 30000
" />
<path d="M43500 22000
L43500 24000
" />
<path d="M54500 22000
L54500 24000
" />
<path d="M36500 24000
L36500 18000
" />
<path d="M36500 18000
L35500 18000
" />
<path d="M22500 19000
L25500 19000
" />
<path d="M54500 16000
L54500 18000
" />
<path d="M47500 22000
L47500 24000
" />
<path d="M25500 19000
L25500 21000
" />
<path d="M37000 30000
L43500 30000
" />
<path d="M43500 32000
L41000 32000
" />
<path d="M41000 32000
L41000 38500
" />
<path d="M51000 36500
L51000 38500
" />
<path d="M58500 30000
L65000 30000
" />
<path d="M65000 30000
L65000 33000
" />
<path d="M65000 33000
L68000 33000
" />
<path d="M68000 44500
L68000 46000
" />
<path d="M79000 21500
L79000 22500
" />
<path d="M68000 39500
L68000 31500
" />
</g>
<g style="fill:#00A000; fill-opacity:1.0; 
stroke:#00A000; stroke-width:0; stroke-opacity:1; 
stroke-linecap:round; stroke-linejoin:round;">
</g>
<g style="fill:#00A000; fill-opacity:1.0; 
stroke:#00A000; stroke-width:100; stroke-opacity:1; 
stroke-linecap:round; stroke-linejoin:round;">
<circle cx="68000" cy="33000" r="160" /> 
</g>
<g style="fill:#00A000; fill-opacity:1.0; 
stroke:#00A000; stroke-width:0; stroke-opacity:1; 
stroke-linecap:round; stroke-linejoin:round;">
</g>
<g style="fill:#00A000; fill-opacity:1.0; 
stroke:#00A000; stroke-width:100; stroke-opacity:1; 
stroke-linecap:round; stroke-linejoin:round;">
<circle cx="79000" cy="16000" r="160" /> 
</g>
<g style="fill:#00A000; fill-opacity:1.0; 
stroke:#00A000; stroke-width:60; stroke-opacity:1; 
stroke-linecap:round; stroke-linejoin:round;">
<path d="M89000 32000
L89000 34000
" />
<path d="M89000 25500
L79000 25500
" />
<path d="M58500 35500
L79000 35500
" />
</g>
<g style="fill:#00A000; fill-opacity:1.0; 
stroke:#00A000; stroke-width:0; stroke-opacity:1; 
stroke-linecap:round; stroke-linejoin:round;">
</g>
<g style="fill:#00A000; fill-opacity:1.0; 
stroke:#00A000; stroke-width:100; stroke-opacity:1; 
stroke-linecap:round; stroke-linejoin:round;">
<circle cx="89000" cy="16000" r="160" /> 
</g>
<g style="fill:#00A000; fill-opacity:1.0; 
stroke:#00A000; stroke-width:60; stroke-opacity:1; 
stroke-linecap:round; stroke-linejoin:round;">
<path d="M75500 16000
L104000 16000
" />
<path d="M64000 16000
L71500 16000
" />
</g>
<g style="fill:#00A000; fill-opacity:1.0; 
stroke:#00A000; stroke-width:0; stroke-opacity:1; 
stroke-linecap:round; stroke-linejoin:round;">
</g>
<g style="fill:#00A000; fill-opacity:1.0; 
stroke:#00A000; stroke-width:100; stroke-opacity:1; 
stroke-linecap:round; stroke-linejoin:round;">
<circle cx="68000" cy="16000" r="160" /> 
</g>
<g style="fill:#00A000; fill-opacity:1.0; 
stroke:#00A000; stroke-width:60; stroke-opacity:1; 
stroke-linecap:round; stroke-linejoin:round;">
<path d="M39500 16000
L39500 14000
" />
</g>
<g style="fill:#00A000; fill-opacity:1.0; 
stroke:#00A000; stroke-width:0; stroke-opacity:1; 
stroke-linecap:round; stroke-linejoin:round;">
</g>
<g style="fill:#00A000; fill-opacity:1.0; 
stroke:#00A000; stroke-width:100; stroke-opacity:1; 
stroke-linecap:round; stroke-linejoin:round;">
<circle cx="51000" cy="16000" r="160" /> 
</g>
<g style="fill:#00A000; fill-opacity:1.0; 
stroke:#00A000; stroke-width:60; stroke-opacity:1; 
stroke-linecap:round; stroke-linejoin:round;">
<path d="M47500 18000
L47500 16000
" />
</g>
<g style="fill:#00A000; fill-opacity:1.0; 
stroke:#00A000; stroke-width:0; stroke-opacity:1; 
stroke-linecap:round; stroke-linejoin:round;">
</g>
<g style="fill:#00A000; fill-opacity:1.0; 
stroke:#00A000; stroke-width:100; stroke-opacity:1; 
stroke-linecap:round; stroke-linejoin:round;">
<circle cx="47500" cy="16000" r="160" /> 
</g>
<g style="fill:#00A000; fill-opacity:1.0; 
stroke:#00A000; stroke-width:60; stroke-opacity:1; 
stroke-linecap:round; stroke-linejoin:round;">
<path d="M51000 23500
L51000 16000
" />
<path d="M79000 35500
L79000 25500
" />
</g>
<g style="fill:#00A000; fill-opacity:1.0; 
stroke:#00A000; stroke-width:0; stroke-opacity:1; 
stroke-linecap:round; stroke-linejoin:round;">
</g>
<g style="fill:#A00000; fill-opacity:0.0; 
stroke:#A00000; stroke-width:60; stroke-opacity:1; 
stroke-linecap:round; stroke-linejoin:round;">
<polyline fill="none;"
points="10000,13500
10500,14000
11000,13500
10000,13500
" /> 
</g>
<g style="fill:#A00000; fill-opacity:0.0; 
stroke:#A00000; stroke-width:0; stroke-opacity:1; 
stroke-linecap:round; stroke-linejoin:round;">
</g>
<g style="fill:#A00000; fill-opacity:0.0; 
stroke:#A00000; stroke-width:60; stroke-opacity:1; 
stroke-linecap:round; stroke-linejoin:round;">
<path d="M10500 11000
L10500 11000
" />
<polyline fill="none;"
points="10500,11000
10500,10500
9750,10000
10500,9500
11250,10000
10500,10500
" /> 
</g>
<g style="fill:#00A0A0; fill-opacity:0.0; 
stroke:#00A0A0; stroke-width:50; stroke-opacity:1; 
stroke-linecap:round; stroke-linejoin:round;">
<path d="M9460 8800
L9460 8500
L9580 8500
L9600 8520
L9620 8530
L9630 8560
L9630 8600
L9620 8630
L9600 8640
L9580 8660
L9460 8660
" />
<path d="M9730 8500
L9800 8800
L9860 8590
L9920 8800
L9990 8500
" />
<path d="M10270 8800
L10170 8660
" />
<path d="M10100 8800
L10100 8500
L10220 8500
L10240 8520
L10260 8530
L10270 8560
L10270 8600
L10260 8630
L10240 8640
L10220 8660
L10100 8660
" />
<path d="M10330 8830
L10560 8830
" />
<path d="M10730 8640
L10630 8640
" />
<path d="M10630 8800
L10630 8500
L10770 8500
" />
<path d="M11030 8800
L10890 8800
L10890 8500
" />
<path d="M11120 8720
L11260 8720
" />
<path d="M11090 8800
L11190 8500
L11290 8800
" />
<path d="M11550 8520
L11520 8500
L11480 8500
L11430 8520
L11410 8540
L11390 8570
L11380 8630
L11380 8670
L11390 8730
L11410 8760
L11430 8790
L11480 8800
L11510 8800
L11550 8790
L11560 8770
L11560 8670
L11510 8670
" />
</g>
<g style="fill:#00A0A0; fill-opacity:0.0; 
stroke:#00A0A0; stroke-width:0; stroke-opacity:1; 
stroke-linecap:round; stroke-linejoin:round;">
</g>
<g style="fill:#A00000; fill-opacity:0.0; 
stroke:#A00000; stroke-width:60; stroke-opacity:1; 
stroke-linecap:round; stroke-linejoin:round;">
<path d="M39500 14000
L39500 14000
" />
<polyline fill="none;"
points="39500,14000
39500,13500
38750,13000
39500,12500
40250,13000
39500,13500
" /> 
</g>
<g style="fill:#00A0A0; fill-opacity:0.0; 
stroke:#00A0A0; stroke-width:50; stroke-opacity:1; 
stroke-linecap:round; stroke-linejoin:round;">
<path d="M38460 11800
L38460 11500
L38580 11500
L38600 11520
L38620 11530
L38630 11560
L38630 11600
L38620 11630
L38600 11640
L38580 11660
L38460 11660
" />
<path d="M38730 11500
L38800 11800
L38860 11590
L38920 11800
L38990 11500
" />
<path d="M39270 11800
L39170 11660
" />
<path d="M39100 11800
L39100 11500
L39220 11500
L39240 11520
L39260 11530
L39270 11560
L39270 11600
L39260 11630
L39240 11640
L39220 11660
L39100 11660
" />
<path d="M39330 11830
L39560 11830
" />
<path d="M39730 11640
L39630 11640
" />
<path d="M39630 11800
L39630 11500
L39770 11500
" />
<path d="M40030 11800
L39890 11800
L39890 11500
" />
<path d="M40120 11720
L40260 11720
" />
<path d="M40090 11800
L40190 11500
L40290 11800
" />
<path d="M40550 11520
L40520 11500
L40480 11500
L40430 11520
L40410 11540
L40390 11570
L40380 11630
L40380 11670
L40390 11730
L40410 11760
L40430 11790
L40480 11800
L40510 11800
L40550 11790
L40560 11770
L40560 11670
L40510 11670
" />
</g>
<g style="fill:#00A0A0; fill-opacity:0.0; 
stroke:#00A0A0; stroke-width:60; stroke-opacity:1; 
stroke-linecap:round; stroke-linejoin:round;">
</g>
<g style="fill:#0000FF; fill-opacity:0.0; 
stroke:#0000FF; stroke-width:60; stroke-opacity:1; 
stroke-linecap:round; stroke-linejoin:round;">
<path d="M104490 13740
L104860 13740
L104660 13970
L104740 13970
L104800 14000
L104830 14030
L104860 14090
L104860 14230
L104830 14290
L104800 14310
L104740 14340
L104570 14340
L104510 14310
L104490 14290
" />
<path d="M105400 13740
L105110 13740
L105080 14030
L105110 14000
L105170 13970
L105310 13970
L105370 14000
L105400 14030
L105430 14090
L105430 14230
L105400 14290
L105370 14310
L105310 14340
L105170 14340
L105110 14310
L105080 14290
" />
<path d="M105680 14110
L106140 14110
" />
<path d="M106740 14340
L106390 14340
" />
<path d="M106570 14340
L106570 13740
L106510 13830
L106450 13890
L106390 13910
" />
<path d="M107280 13740
L106990 13740
L106960 14030
L106990 14000
L107050 13970
L107190 13970
L107250 14000
L107280 14030
L107310 14090
L107310 14230
L107280 14290
L107250 14310
L107190 14340
L107050 14340
L106990 14310
L106960 14290
" />
<path d="M107680 13740
L107730 13740
L107790 13770
L107820 13800
L107850 13860
L107880 13970
L107880 14110
L107850 14230
L107820 14290
L107790 14310
L107730 14340
L107680 14340
L107620 14310
L107590 14290
L107560 14230
L107530 14110
L107530 13970
L107560 13860
L107590 13800
L107620 13770
L107680 13740
" />
<path d="M108050 13740
L108250 14340
L108450 13740
" />
</g>
<g style="fill:#000000; fill-opacity:0.0; 
stroke:#000000; stroke-width:60; stroke-opacity:1; 
stroke-linecap:round; stroke-linejoin:round;">
<path d="M103000 15840
L103000 15240
" />
<path d="M103000 15530
L103350 15530
" />
<path d="M103350 15840
L103350 15240
" />
<path d="M103550 15240
L103750 15840
L103950 15240
" />
</g>
<g style="fill:#000000; fill-opacity:0.0; 
stroke:#000000; stroke-width:0; stroke-opacity:1; 
stroke-linecap:round; stroke-linejoin:round;">
</g>
<g style="fill:#A00000; fill-opacity:0.0; 
stroke:#A00000; stroke-width:60; stroke-opacity:1; 
stroke-linecap:round; stroke-linejoin:round;">
<polyline fill="none;"
points="102000,20000
102500,20500
103000,20000
102000,20000
" /> 
</g>
<g style="fill:#A00000; fill-opacity:0.0; 
stroke:#A00000; stroke-width:0; stroke-opacity:1; 
stroke-linecap:round; stroke-linejoin:round;">
</g>
<g style="fill:#A00000; fill-opacity:0.0; 
stroke:#A00000; stroke-width:60; stroke-opacity:1; 
stroke-linecap:round; stroke-linejoin:round;">
<polyline fill="none;"
points="97500,26000
98000,26500
98500,26000
97500,26000
" /> 
</g>
<g style="fill:#A00000; fill-opacity:0.0; 
stroke:#A00000; stroke-width:0; stroke-opacity:1; 
stroke-linecap:round; stroke-linejoin:round;">
</g>
<g style="fill:#A00000; fill-opacity:0.0; 
stroke:#A00000; stroke-width:60; stroke-opacity:1; 
stroke-linecap:round; stroke-linejoin:round;">
<polyline fill="none;"
points="88500,41500
89000,42000
89500,41500
88500,41500
" /> 
</g>
<g style="fill:#A00000; fill-opacity:0.0; 
stroke:#A00000; stroke-width:0; stroke-opacity:1; 
stroke-linecap:round; stroke-linejoin:round;">
</g>
<g style="fill:#A00000; fill-opacity:0.0; 
stroke:#A00000; stroke-width:60; stroke-opacity:1; 
stroke-linecap:round; stroke-linejoin:round;">
<rect x="88500" y="28000" width="1000" height="3000" rx="0" />
</g>
<g style="fill:#A00000; fill-opacity:1.0; 
stroke:#A00000; stroke-width:60; stroke-opacity:1; 
stroke-linecap:round; stroke-linejoin:round;">
<polyline style="fill-rule:evenodd;"
points="89500,29500
89700,29300
89700,29700
" /> 
<path d="M89000 28000
L89000 27000
" />
</g>
<g style="fill:#A00000; fill-opacity:0.0; 
stroke:#A00000; stroke-width:60; stroke-opacity:1; 
stroke-linecap:round; stroke-linejoin:round;">
<path d="M88860 27390
L88860 27610
" />
<path d="M88860 27500
L88460 27500
L88520 27540
L88560 27580
L88580 27610
" />
<path d="M89700 29500
L90500 29500
" />
<path d="M89990 29000
L90010 28980
L90040 28960
L90140 28960
L90180 28980
L90200 29000
L90210 29040
L90210 29080
L90200 29130
L89970 29360
L90210 29360
" />
<path d="M89000 31000
L89000 32000
" />
<path d="M88460 31630
L88460 31390
L88610 31520
L88610 31460
L88630 31420
L88650 31400
L88690 31390
L88790 31390
L88820 31400
L88840 31420
L88860 31460
L88860 31580
L88840 31610
L88820 31630
" />
</g>
<g style="fill:#00A0A0; fill-opacity:0.0; 
stroke:#00A0A0; stroke-width:60; stroke-opacity:1; 
stroke-linecap:round; stroke-linejoin:round;">
<path d="M88230 29800
L87990 29960
" />
<path d="M88230 30080
L87730 30080
L87730 29890
L87760 29840
L87780 29820
L87830 29800
L87900 29800
L87950 29820
L87970 29840
L87990 29890
L87990 30080
" />
<path d="M87730 29650
L88230 29490
L87730 29320
" />
<path d="M88230 28890
L88230 29170
" />
<path d="M88230 29030
L87730 29030
L87800 29080
L87850 29130
L87880 29170
" />
<path d="M88730 29870
L88730 30110
L88970 30130
L88950 30110
L88920 30060
L88920 29940
L88950 29900
L88970 29870
L89020 29850
L89140 29850
L89180 29870
L89210 29900
L89230 29940
L89230 30060
L89210 30110
L89180 30130
" />
<path d="M88730 29540
L88730 29490
L88760 29440
L88780 29420
L88830 29390
L88920 29370
L89040 29370
L89140 29390
L89180 29420
L89210 29440
L89230 29490
L89230 29540
L89210 29580
L89180 29610
L89140 29630
L89040 29650
L88920 29650
L88830 29630
L88780 29610
L88760 29580
L88730 29540
" />
<path d="M89230 29150
L88730 29150
" />
<path d="M89230 28870
L88950 29080
" />
<path d="M88730 28870
L89020 29150
" />
</g>
<g style="fill:#00A0A0; fill-opacity:0.0; 
stroke:#00A0A0; stroke-width:0; stroke-opacity:1; 
stroke-linecap:round; stroke-linejoin:round;">
</g>
<g style="fill:#A00000; fill-opacity:0.0; 
stroke:#A00000; stroke-width:120; stroke-opacity:1; 
stroke-linecap:round; stroke-linejoin:round;">
<rect x="88600" y="35000" width="800" height="3000" rx="0" />
</g>
<g style="fill:#A00000; fill-opacity:0.0; 
stroke:#A00000; stroke-width:60; stroke-opacity:1; 
stroke-linecap:round; stroke-linejoin:round;">
<path d="M89000 35000
L89000 34000
" />
</g>
<g style="fill:#00A0A0; fill-opacity:0.0; 
stroke:#00A0A0; stroke-width:60; stroke-opacity:1; 
stroke-linecap:round; stroke-linejoin:round;">
</g>
<g style="fill:#A00000; fill-opacity:0.0; 
stroke:#A00000; stroke-width:60; stroke-opacity:1; 
stroke-linecap:round; stroke-linejoin:round;">
<path d="M89000 38000
L89000 39000
" />
</g>
<g style="fill:#00A0A0; fill-opacity:0.0; 
stroke:#00A0A0; stroke-width:60; stroke-opacity:1; 
stroke-linecap:round; stroke-linejoin:round;">
<path d="M89970 36590
L89730 36750
" />
<path d="M89970 36870
L89470 36870
L89470 36680
L89500 36630
L89520 36610
L89570 36590
L89640 36590
L89690 36610
L89710 36630
L89730 36680
L89730 36870
" />
<path d="M89470 36420
L89470 36110
L89660 36280
L89660 36200
L89690 36160
L89710 36130
L89760 36110
L89880 36110
L89920 36130
L89950 36160
L89970 36200
L89970 36350
L89950 36390
L89920 36420
" />
<path d="M89170 36850
L89170 37130
" />
<path d="M89170 36990
L88670 36990
L88740 37040
L88790 37090
L88820 37130
" />
<path d="M88670 36390
L88670 36630
L88910 36650
L88890 36630
L88860 36580
L88860 36460
L88890 36420
L88910 36390
L88960 36370
L89080 36370
L89120 36390
L89150 36420
L89170 36460
L89170 36580
L89150 36630
L89120 36650
" />
<path d="M89170 36150
L88670 36150
" />
<path d="M89170 35870
L88890 36080
" />
<path d="M88670 35870
L88960 36150
" />
</g>
<g style="fill:#00A0A0; fill-opacity:0.0; 
stroke:#00A0A0; stroke-width:0; stroke-opacity:1; 
stroke-linecap:round; stroke-linejoin:round;">
</g>
<g style="fill:#A00000; fill-opacity:0.0; 
stroke:#A00000; stroke-width:120; stroke-opacity:1; 
stroke-linecap:round; stroke-linejoin:round;">
<rect x="88600" y="18500" width="800" height="3000" rx="0" />
</g>
<g style="fill:#A00000; fill-opacity:0.0; 
stroke:#A00000; stroke-width:60; stroke-opacity:1; 
stroke-linecap:round; stroke-linejoin:round;">
<path d="M89000 18500
L89000 17500
" />
</g>
<g style="fill:#00A0A0; fill-opacity:0.0; 
stroke:#00A0A0; stroke-width:60; stroke-opacity:1; 
stroke-linecap:round; stroke-linejoin:round;">
</g>
<g style="fill:#A00000; fill-opacity:0.0; 
stroke:#A00000; stroke-width:60; stroke-opacity:1; 
stroke-linecap:round; stroke-linejoin:round;">
<path d="M89000 21500
L89000 22500
" />
</g>
<g style="fill:#00A0A0; fill-opacity:0.0; 
stroke:#00A0A0; stroke-width:60; stroke-opacity:1; 
stroke-linecap:round; stroke-linejoin:round;">
<path d="M89970 20090
L89730 20250
" />
<path d="M89970 20370
L89470 20370
L89470 20180
L89500 20130
L89520 20110
L89570 20090
L89640 20090
L89690 20110
L89710 20130
L89730 20180
L89730 20370
" />
<path d="M89520 19890
L89500 19870
L89470 19820
L89470 19700
L89500 19660
L89520 19630
L89570 19610
L89620 19610
L89690 19630
L89970 19920
L89970 19610
" />
<path d="M89170 20130
L89170 20410
" />
<path d="M89170 20270
L88670 20270
L88740 20320
L88790 20370
L88820 20410
" />
<path d="M89170 19910
L88670 19910
L89030 19740
L88670 19580
L89170 19580
" />
</g>
<g style="fill:#00A0A0; fill-opacity:0.0; 
stroke:#00A0A0; stroke-width:0; stroke-opacity:1; 
stroke-linecap:round; stroke-linejoin:round;">
</g>
<g style="fill:#A00000; fill-opacity:0.0; 
stroke:#A00000; stroke-width:60; stroke-opacity:1; 
stroke-linecap:round; stroke-linejoin:round;">
<polyline fill="none;"
points="78500,22500
79000,23000
79500,22500
78500,22500
" /> 
</g>
<g style="fill:#0000FF; fill-opacity:0.0; 
stroke:#0000FF; stroke-width:60; stroke-opacity:1; 
stroke-linecap:round; stroke-linejoin:round;">
<path d="M67340 43010
L67060 43210
" />
<path d="M67340 43360
L66740 43360
L66740 43130
L66770 43070
L66800 43040
L66860 43010
L66940 43010
L67000 43040
L67030 43070
L67060 43130
L67060 43360
" />
<path d="M67310 42790
L67340 42700
L67340 42560
L67310 42500
L67290 42470
L67230 42440
L67170 42440
L67110 42470
L67090 42500
L67060 42560
L67030 42670
L67000 42730
L66970 42760
L66910 42790
L66860 42790
L66800 42760
L66770 42730
L66740 42670
L66740 42530
L66770 42440
" />
<path d="M67030 42190
L67030 41990
" />
<path d="M67340 41900
L67340 42190
L66740 42190
L66740 41900
" />
<path d="M67340 41650
L66740 41650
L67340 41300
L66740 41300
" />
<path d="M67310 41050
L67340 40960
L67340 40820
L67310 40760
L67290 40730
L67230 40700
L67170 40700
L67110 40730
L67090 40760
L67060 40820
L67030 40930
L67000 40990
L66970 41020
L66910 41050
L66860 41050
L66800 41020
L66770 40990
L66740 40930
L66740 40790
L66770 40700
" />
<path d="M67030 40450
L67030 40250
" />
<path d="M67340 40160
L67340 40450
L66740 40450
L66740 40160
" />
</g>
<g style="fill:#0000FF; fill-opacity:0.0; 
stroke:#0000FF; stroke-width:0; stroke-opacity:1; 
stroke-linecap:round; stroke-linejoin:round;">
</g>
<g style="fill:#A00000; fill-opacity:0.0; 
stroke:#A00000; stroke-width:60; stroke-opacity:1; 
stroke-linecap:round; stroke-linejoin:round;">
<polyline fill="none;"
points="67500,46000
68000,46500
68500,46000
67500,46000
" /> 
</g>
<g style="fill:#A00000; fill-opacity:0.0; 
stroke:#A00000; stroke-width:0; stroke-opacity:1; 
stroke-linecap:round; stroke-linejoin:round;">
</g>
<g style="fill:#A00000; fill-opacity:0.0; 
stroke:#A00000; stroke-width:120; stroke-opacity:1; 
stroke-linecap:round; stroke-linejoin:round;">
<rect x="67600" y="40500" width="800" height="3000" rx="0" />
</g>
<g style="fill:#A00000; fill-opacity:0.0; 
stroke:#A00000; stroke-width:60; stroke-opacity:1; 
stroke-linecap:round; stroke-linejoin:round;">
<path d="M68000 40500
L68000 39500
" />
</g>
<g style="fill:#00A0A0; fill-opacity:0.0; 
stroke:#00A0A0; stroke-width:60; stroke-opacity:1; 
stroke-linecap:round; stroke-linejoin:round;">
</g>
<g style="fill:#A00000; fill-opacity:0.0; 
stroke:#A00000; stroke-width:60; stroke-opacity:1; 
stroke-linecap:round; stroke-linejoin:round;">
<path d="M68000 43500
L68000 44500
" />
</g>
<g style="fill:#00A0A0; fill-opacity:0.0; 
stroke:#00A0A0; stroke-width:60; stroke-opacity:1; 
stroke-linecap:round; stroke-linejoin:round;">
<path d="M68970 42090
L68730 42250
" />
<path d="M68970 42370
L68470 42370
L68470 42180
L68500 42130
L68520 42110
L68570 42090
L68640 42090
L68690 42110
L68710 42130
L68730 42180
L68730 42370
" />
<path d="M68970 41610
L68970 41890
" />
<path d="M68970 41750
L68470 41750
L68540 41800
L68590 41850
L68620 41890
" />
<path d="M67670 42630
L67670 42580
L67700 42530
L67720 42510
L67770 42480
L67860 42460
L67980 42460
L68080 42480
L68120 42510
L68150 42530
L68170 42580
L68170 42630
L68150 42670
L68120 42700
L68080 42720
L67980 42740
L67860 42740
L67770 42720
L67720 42700
L67700 42670
L67670 42630
" />
<path d="M68120 42240
L68150 42220
L68170 42240
L68150 42260
L68120 42240
L68170 42240
" />
<path d="M67670 41910
L67670 41860
L67700 41810
L67720 41790
L67770 41760
L67860 41740
L67980 41740
L68080 41760
L68120 41790
L68150 41810
L68170 41860
L68170 41910
L68150 41950
L68120 41980
L68080 42000
L67980 42020
L67860 42020
L67770 42000
L67720 41980
L67700 41950
L67670 41910
" />
<path d="M68170 41260
L68170 41540
" />
<path d="M68170 41400
L67670 41400
L67740 41450
L67790 41500
L67820 41540
" />
</g>
<g style="fill:#00A0A0; fill-opacity:0.0; 
stroke:#00A0A0; stroke-width:0; stroke-opacity:1; 
stroke-linecap:round; stroke-linejoin:round;">
</g>
<g style="fill:#A00000; fill-opacity:0.0; 
stroke:#A00000; stroke-width:60; stroke-opacity:1; 
stroke-linecap:round; stroke-linejoin:round;">
<circle cx="75000" cy="21000" r="0" /> 
<polyline fill="none;"
points="65500,28000
65500,24500
" /> 
<polyline fill="none;"
points="65500,24000
65500,24500
" /> 
</g>
<g style="fill:#A00000; fill-opacity:0.0; 
stroke:#A00000; stroke-width:150; stroke-opacity:1; 
stroke-linecap:round; stroke-linejoin:round;">
<polyline fill="none;"
points="66000,27000
66000,28000
" /> 
<polyline fill="none;"
points="66000,25500
66000,26500
" /> 
<polyline fill="none;"
points="66000,24000
66000,25000
" /> 
</g>
<g style="fill:#A00000; fill-opacity:0.0; 
stroke:#A00000; stroke-width:60; stroke-opacity:1; 
stroke-linecap:round; stroke-linejoin:round;">
<polyline fill="none;"
points="69000,25500
70000,25500
" /> 
<polyline fill="none;"
points="69500,25500
69500,23500
68500,23500
" /> 
</g>
<g style="fill:#A00000; fill-opacity:1.0; 
stroke:#A00000; stroke-width:60; stroke-opacity:1; 
stroke-linecap:round; stroke-linejoin:round;">
<polyline style="fill-rule:evenodd;"
points="66000,26000
66500,25500
66500,26500
66000,26000
" /> 
</g>
<g style="fill:#A00000; fill-opacity:0.0; 
stroke:#A00000; stroke-width:60; stroke-opacity:1; 
stroke-linecap:round; stroke-linejoin:round;">
<polyline fill="none;"
points="66000,24500
68000,24500
68000,23500
68500,23500
" /> 
<polyline fill="none;"
points="66500,26000
68000,26000
68000,27500
66000,27500
" /> 
<polyline fill="none;"
points="68000,27500
68000,28500
69500,28500
69500,26000
" /> 
</g>
<g style="fill:#A00000; fill-opacity:1.0; 
stroke:#A00000; stroke-width:60; stroke-opacity:1; 
stroke-linecap:round; stroke-linejoin:round;">
<polyline style="fill-rule:evenodd;"
points="69000,26000
69500,25500
70000,26000
69000,26000
" /> 
<path d="M65500 28000
L62500 28000
" />
</g>
<g style="fill:#00A0A0; fill-opacity:0.0; 
stroke:#00A0A0; stroke-width:60; stroke-opacity:1; 
stroke-linecap:round; stroke-linejoin:round;">
</g>
<g style="fill:#A00000; fill-opacity:0.0; 
stroke:#A00000; stroke-width:60; stroke-opacity:1; 
stroke-linecap:round; stroke-linejoin:round;">
<path d="M64140 27850
L63860 27850
" />
<path d="M64000 27850
L64000 27350
L63950 27420
L63900 27470
L63860 27500
" />
<path d="M68000 23500
L68000 20500
" />
</g>
<g style="fill:#00A0A0; fill-opacity:0.0; 
stroke:#00A0A0; stroke-width:60; stroke-opacity:1; 
stroke-linecap:round; stroke-linejoin:round;">
</g>
<g style="fill:#A00000; fill-opacity:0.0; 
stroke:#A00000; stroke-width:60; stroke-opacity:1; 
stroke-linecap:round; stroke-linejoin:round;">
<path d="M67400 22140
L67380 22120
L67350 22070
L67350 21950
L67380 21910
L67400 21880
L67450 21860
L67500 21860
L67570 21880
L67850 22170
L67850 21860
" />
<path d="M68000 28500
L68000 31500
" />
</g>
<g style="fill:#00A0A0; fill-opacity:0.0; 
stroke:#00A0A0; stroke-width:60; stroke-opacity:1; 
stroke-linecap:round; stroke-linejoin:round;">
</g>
<g style="fill:#A00000; fill-opacity:0.0; 
stroke:#A00000; stroke-width:60; stroke-opacity:1; 
stroke-linecap:round; stroke-linejoin:round;">
<path d="M67350 30170
L67350 29860
L67540 30030
L67540 29950
L67570 29910
L67590 29880
L67640 29860
L67760 29860
L67800 29880
L67830 29910
L67850 29950
L67850 30100
L67830 30140
L67800 30170
" />
</g>
<g style="fill:#00A0A0; fill-opacity:0.0; 
stroke:#00A0A0; stroke-width:60; stroke-opacity:1; 
stroke-linecap:round; stroke-linejoin:round;">
<path d="M64550 22110
L64890 22110
" />
<path d="M64720 22710
L64720 22110
" />
<path d="M65410 22710
L65060 22710
" />
<path d="M65240 22710
L65240 22110
L65180 22200
L65120 22260
L65060 22280
" />
<path d="M71210 28270
L70610 28270
" />
<path d="M71210 27630
L70930 27830
" />
<path d="M71210 27980
L70610 27980
L70610 27750
L70640 27690
L70670 27660
L70730 27630
L70810 27630
L70870 27660
L70900 27690
L70930 27750
L70930 27980
" />
<path d="M70900 27180
L70900 27380
" />
<path d="M71210 27380
L70610 27380
L70610 27090
" />
<path d="M70610 26610
L70610 26720
L70640 26780
L70670 26810
L70760 26870
L70870 26900
L71100 26900
L71160 26870
L71180 26840
L71210 26780
L71210 26670
L71180 26610
L71160 26580
L71100 26550
L70960 26550
L70900 26580
L70870 26610
L70840 26670
L70840 26780
L70870 26840
L70900 26870
L70960 26900
" />
<path d="M70810 26040
L71210 26040
" />
<path d="M70580 26180
L71010 26330
L71010 25950
" />
<path d="M70810 25470
L71210 25470
" />
<path d="M70580 25610
L71010 25760
L71010 25380
" />
<path d="M71210 25160
L70610 25160
L70610 24930
L70640 24870
L70670 24840
L70730 24810
L70810 24810
L70870 24840
L70900 24870
L70930 24930
L70930 25160
" />
<path d="M70900 24360
L70930 24270
L70960 24240
L71010 24210
L71100 24210
L71160 24240
L71180 24270
L71210 24330
L71210 24560
L70610 24560
L70610 24360
L70640 24300
L70670 24270
L70730 24240
L70780 24240
L70840 24270
L70870 24300
L70900 24360
L70900 24560
" />
<path d="M70900 23760
L70900 23960
" />
<path d="M71210 23960
L70610 23960
L70610 23670
" />
</g>
<g style="fill:#00A0A0; fill-opacity:0.0; 
stroke:#00A0A0; stroke-width:0; stroke-opacity:1; 
stroke-linecap:round; stroke-linejoin:round;">
</g>
<g style="fill:#A00000; fill-opacity:0.0; 
stroke:#A00000; stroke-width:60; stroke-opacity:1; 
stroke-linecap:round; stroke-linejoin:round;">
<polyline fill="none;"
points="74000,15500
74000,16500
" /> 
</g>
<g style="fill:#A00000; fill-opacity:1.0; 
stroke:#A00000; stroke-width:60; stroke-opacity:1; 
stroke-linecap:round; stroke-linejoin:round;">
<polyline style="fill-rule:evenodd;"
points="73000,15500
74000,16000
73000,16500
" /> 
<path d="M73000 16000
L71500 16000
" />
<path d="M74000 16000
L75500 16000
" />
</g>
<g style="fill:#00A0A0; fill-opacity:0.0; 
stroke:#00A0A0; stroke-width:60; stroke-opacity:1; 
stroke-linecap:round; stroke-linejoin:round;">
<path d="M73210 15130
L73210 14730
L73300 14730
L73360 14750
L73400 14790
L73410 14830
L73430 14900
L73430 14960
L73410 15040
L73400 15070
L73360 15110
L73300 15130
L73210 15130
" />
<path d="M73810 15130
L73590 15130
" />
<path d="M73700 15130
L73700 14730
L73660 14790
L73620 14830
L73590 14850
" />
<path d="M72870 16920
L73000 16920
" />
<path d="M73060 17130
L72870 17130
L72870 16730
L73060 16730
" />
<path d="M73210 17110
L73260 17130
L73360 17130
L73400 17110
L73420 17090
L73430 17060
L73430 17020
L73420 16980
L73400 16960
L73360 16940
L73280 16920
L73240 16900
L73230 16880
L73210 16850
L73210 16810
L73230 16770
L73240 16750
L73280 16730
L73380 16730
L73430 16750
" />
<path d="M73590 16770
L73610 16750
L73640 16730
L73740 16730
L73780 16750
L73800 16770
L73810 16810
L73810 16850
L73800 16900
L73570 17130
L73810 17130
" />
<path d="M74120 16920
L73990 16920
" />
<path d="M73990 17130
L73990 16730
L74180 16730
" />
</g>
<g style="fill:#00A0A0; fill-opacity:0.0; 
stroke:#00A0A0; stroke-width:0; stroke-opacity:1; 
stroke-linecap:round; stroke-linejoin:round;">
</g>
<g style="fill:#A00000; fill-opacity:0.0; 
stroke:#A00000; stroke-width:60; stroke-opacity:1; 
stroke-linecap:round; stroke-linejoin:round;">
<polyline fill="none;"
points="50500,38500
51000,39000
51500,38500
50500,38500
" /> 
</g>
<g style="fill:#A00000; fill-opacity:0.0; 
stroke:#A00000; stroke-width:0; stroke-opacity:1; 
stroke-linecap:round; stroke-linejoin:round;">
</g>
<g style="fill:#A00000; fill-opacity:0.0; 
stroke:#A00000; stroke-width:60; stroke-opacity:1; 
stroke-linecap:round; stroke-linejoin:round;">
<polyline fill="none;"
points="40500,38500
41000,39000
41500,38500
40500,38500
" /> 
</g>
<g style="fill:#A00000; fill-opacity:0.0; 
stroke:#A00000; stroke-width:0; stroke-opacity:1; 
stroke-linecap:round; stroke-linejoin:round;">
</g>
<g style="fill:#A00000; fill-opacity:0.0; 
stroke:#A00000; stroke-width:60; stroke-opacity:1; 
stroke-linecap:round; stroke-linejoin:round;">
<polyline fill="none;"
points="36500,38500
37000,39000
37500,38500
36500,38500
" /> 
</g>
<g style="fill:#000000; fill-opacity:0.0; 
stroke:#000000; stroke-width:60; stroke-opacity:1; 
stroke-linecap:round; stroke-linejoin:round;">
<path d="M22960 29270
L22900 29240
L22810 29240
L22730 29270
L22670 29330
L22640 29390
L22610 29500
L22610 29590
L22640 29700
L22670 29760
L22730 29810
L22810 29840
L22870 29840
L22960 29810
L22990 29790
L22990 29590
L22870 29590
" />
<path d="M23240 29840
L23240 29240
L23590 29840
L23590 29240
" />
<path d="M23870 29840
L23870 29240
L24020 29240
L24100 29270
L24160 29330
L24190 29390
L24220 29500
L24220 29590
L24190 29700
L24160 29760
L24100 29810
L24020 29840
L23870 29840
" />
<path d="M22960 18270
L22900 18240
L22810 18240
L22730 18270
L22670 18330
L22640 18390
L22610 18500
L22610 18590
L22640 18700
L22670 18760
L22730 18810
L22810 18840
L22870 18840
L22960 18810
L22990 18790
L22990 18590
L22870 18590
" />
<path d="M23240 18840
L23240 18240
L23590 18840
L23590 18240
" />
<path d="M23870 18840
L23870 18240
L24020 18240
L24100 18270
L24160 18330
L24190 18390
L24220 18500
L24220 18590
L24190 18700
L24160 18760
L24100 18810
L24020 18840
L23870 18840
" />
<path d="M22610 27810
L22700 27840
L22840 27840
L22900 27810
L22930 27790
L22960 27730
L22960 27670
L22930 27610
L22900 27590
L22840 27560
L22730 27530
L22670 27500
L22640 27470
L22610 27410
L22610 27360
L22640 27300
L22670 27270
L22730 27240
L22870 27240
L22960 27270
" />
<path d="M23210 27840
L23210 27240
" />
<path d="M23210 27530
L23560 27530
" />
<path d="M23560 27840
L23560 27240
" />
<path d="M23840 27840
L23840 27240
L23990 27240
L24070 27270
L24130 27330
L24160 27390
L24190 27500
L24190 27590
L24160 27700
L24130 27760
L24070 27810
L23990 27840
L23840 27840
" />
<path d="M24440 27840
L24440 27240
L24790 27840
L24790 27240
" />
</g>
<g style="fill:#000000; fill-opacity:0.0; 
stroke:#000000; stroke-width:0; stroke-opacity:1; 
stroke-linecap:round; stroke-linejoin:round;">
</g>
<g style="fill:#A00000; fill-opacity:0.0; 
stroke:#A00000; stroke-width:60; stroke-opacity:1; 
stroke-linecap:round; stroke-linejoin:round;">
<polyline fill="none;"
points="25000,32000
25500,32500
26000,32000
25000,32000
" /> 
</g>
<g style="fill:#A00000; fill-opacity:0.0; 
stroke:#A00000; stroke-width:0; stroke-opacity:1; 
stroke-linecap:round; stroke-linejoin:round;">
</g>
<g style="fill:#A00000; fill-opacity:0.0; 
stroke:#A00000; stroke-width:60; stroke-opacity:1; 
stroke-linecap:round; stroke-linejoin:round;">
<rect x="18000" y="27500" width="2000" height="3000" rx="0" />
<circle cx="20350" cy="30000" r="350" /> 
<path d="M20700 30000
L22500 30000
" />
<path d="M21430 29840
L21080 29840
" />
<path d="M21260 29840
L21260 29240
L21200 29330
L21140 29390
L21080 29410
" />
<circle cx="20350" cy="28000" r="350" /> 
<path d="M20700 28000
L22500 28000
" />
<path d="M21080 27300
L21110 27270
L21170 27240
L21310 27240
L21370 27270
L21400 27300
L21430 27360
L21430 27410
L21400 27500
L21060 27840
L21430 27840
" />
</g>
<g style="fill:#00A0A0; fill-opacity:0.0; 
stroke:#00A0A0; stroke-width:60; stroke-opacity:1; 
stroke-linecap:round; stroke-linejoin:round;">
<path d="M19690 29290
L19290 29290
L19290 29140
L19310 29100
L19330 29090
L19370 29070
L19430 29070
L19460 29090
L19480 29100
L19500 29140
L19500 29290
" />
<path d="M19330 28910
L19310 28890
L19290 28860
L19290 28760
L19310 28720
L19330 28700
L19370 28690
L19410 28690
L19460 28700
L19690 28930
L19690 28690
" />
<path d="M18650 29850
L18670 29870
L18690 29920
L18690 29960
L18670 30020
L18630 30060
L18600 30070
L18520 30090
L18460 30090
L18390 30070
L18350 30060
L18310 30020
L18290 29960
L18290 29920
L18310 29870
L18330 29850
" />
<path d="M18290 29600
L18290 29520
L18310 29480
L18350 29450
L18430 29430
L18560 29430
L18630 29450
L18670 29480
L18690 29520
L18690 29600
L18670 29640
L18630 29670
L18560 29690
L18430 29690
L18350 29670
L18310 29640
L18290 29600
" />
<path d="M18690 29250
L18290 29250
L18690 29030
L18290 29030
" />
<path d="M18690 28830
L18290 28830
L18690 28610
L18290 28610
" />
<path d="M18730 28510
L18730 28210
" />
<path d="M18330 28130
L18310 28110
L18290 28080
L18290 27980
L18310 27940
L18330 27920
L18370 27910
L18410 27910
L18460 27920
L18690 28150
L18690 27910
" />
</g>
<g style="fill:#00A0A0; fill-opacity:0.0; 
stroke:#00A0A0; stroke-width:0; stroke-opacity:1; 
stroke-linecap:round; stroke-linejoin:round;">
</g>
<g style="fill:#A00000; fill-opacity:0.0; 
stroke:#A00000; stroke-width:60; stroke-opacity:1; 
stroke-linecap:round; stroke-linejoin:round;">
<polyline fill="none;"
points="47000,24000
47500,24500
48000,24000
47000,24000
" /> 
</g>
<g style="fill:#A00000; fill-opacity:0.0; 
stroke:#A00000; stroke-width:0; stroke-opacity:1; 
stroke-linecap:round; stroke-linejoin:round;">
</g>
<g style="fill:#A00000; fill-opacity:0.0; 
stroke:#A00000; stroke-width:60; stroke-opacity:1; 
stroke-linecap:round; stroke-linejoin:round;">
<polyline fill="none;"
points="43000,24000
43500,24500
44000,24000
43000,24000
" /> 
</g>
<g style="fill:#A00000; fill-opacity:0.0; 
stroke:#A00000; stroke-width:0; stroke-opacity:1; 
stroke-linecap:round; stroke-linejoin:round;">
</g>
<g style="fill:#A00000; fill-opacity:0.0; 
stroke:#A00000; stroke-width:60; stroke-opacity:1; 
stroke-linecap:round; stroke-linejoin:round;">
<polyline fill="none;"
points="36000,24000
36500,24500
37000,24000
36000,24000
" /> 
</g>
<g style="fill:#A00000; fill-opacity:0.0; 
stroke:#A00000; stroke-width:0; stroke-opacity:1; 
stroke-linecap:round; stroke-linejoin:round;">
</g>
<g style="fill:#A00000; fill-opacity:0.0; 
stroke:#A00000; stroke-width:60; stroke-opacity:1; 
stroke-linecap:round; stroke-linejoin:round;">
<circle cx="29000" cy="17000" r="500" /> 
<circle cx="32000" cy="18000" r="500" /> 
<circle cx="32000" cy="16000" r="500" /> 
<polyline fill="none;"
points="29500,17000
32000,16500
" /> 
<path d="M32500 16000
L35500 16000
" />
</g>
<g style="fill:#00A0A0; fill-opacity:0.0; 
stroke:#00A0A0; stroke-width:60; stroke-opacity:1; 
stroke-linecap:round; stroke-linejoin:round;">
<path d="M34180 15840
L33830 15840
" />
<path d="M34010 15840
L34010 15240
L33950 15330
L33890 15390
L33830 15410
" />
</g>
<g style="fill:#A00000; fill-opacity:0.0; 
stroke:#A00000; stroke-width:60; stroke-opacity:1; 
stroke-linecap:round; stroke-linejoin:round;">
<path d="M28500 17000
L25500 17000
" />
</g>
<g style="fill:#00A0A0; fill-opacity:0.0; 
stroke:#00A0A0; stroke-width:60; stroke-opacity:1; 
stroke-linecap:round; stroke-linejoin:round;">
<path d="M26830 16300
L26860 16270
L26920 16240
L27060 16240
L27120 16270
L27150 16300
L27180 16360
L27180 16410
L27150 16500
L26810 16840
L27180 16840
" />
</g>
<g style="fill:#A00000; fill-opacity:0.0; 
stroke:#A00000; stroke-width:60; stroke-opacity:1; 
stroke-linecap:round; stroke-linejoin:round;">
<path d="M32500 18000
L35500 18000
" />
</g>
<g style="fill:#00A0A0; fill-opacity:0.0; 
stroke:#00A0A0; stroke-width:60; stroke-opacity:1; 
stroke-linecap:round; stroke-linejoin:round;">
<path d="M33810 17240
L34180 17240
L33980 17470
L34060 17470
L34120 17500
L34150 17530
L34180 17590
L34180 17730
L34150 17790
L34120 17810
L34060 17840
L33890 17840
L33830 17810
L33810 17790
" />
<path d="M27840 15650
L27910 15670
L28030 15670
L28070 15650
L28100 15620
L28120 15580
L28120 15530
L28100 15480
L28070 15460
L28030 15430
L27930 15410
L27880 15390
L27860 15360
L27840 15320
L27840 15270
L27860 15220
L27880 15200
L27930 15170
L28050 15170
L28120 15200
" />
<path d="M28290 15170
L28410 15670
L28510 15320
L28600 15670
L28720 15170
" />
<path d="M29170 15670
L28890 15670
" />
<path d="M29030 15670
L29030 15170
L28980 15240
L28930 15290
L28890 15320
" />
<path d="M26970 18650
L27040 18670
L27160 18670
L27200 18650
L27230 18620
L27250 18580
L27250 18530
L27230 18480
L27200 18460
L27160 18430
L27060 18410
L27010 18390
L26990 18360
L26970 18320
L26970 18270
L26990 18220
L27010 18200
L27060 18170
L27180 18170
L27250 18200
" />
<path d="M27420 18170
L27540 18670
L27640 18320
L27730 18670
L27850 18170
" />
<path d="M28040 18670
L28040 18170
" />
<path d="M28210 18170
L28490 18170
" />
<path d="M28350 18670
L28350 18170
" />
<path d="M28940 18620
L28920 18650
L28850 18670
L28800 18670
L28730 18650
L28680 18600
L28660 18550
L28640 18460
L28640 18390
L28660 18290
L28680 18240
L28730 18200
L28800 18170
L28850 18170
L28920 18200
L28940 18220
" />
<path d="M29160 18670
L29160 18170
" />
<path d="M29160 18410
L29440 18410
" />
<path d="M29440 18670
L29440 18170
" />
<path d="M29560 18720
L29940 18720
" />
<path d="M30060 18670
L30060 18170
" />
<path d="M30300 18670
L30300 18170
L30580 18670
L30580 18170
" />
<path d="M30750 18170
L30910 18670
L31080 18170
" />
</g>
<g style="fill:#00A0A0; fill-opacity:0.0; 
stroke:#00A0A0; stroke-width:0; stroke-opacity:1; 
stroke-linecap:round; stroke-linejoin:round;">
</g>
<g style="fill:#A00000; fill-opacity:0.0; 
stroke:#A00000; stroke-width:60; stroke-opacity:1; 
stroke-linecap:round; stroke-linejoin:round;">
<path d="M59000.1 16009.6 A500 500 0.0 0 0 59999.9 16009.6 " />
<path d="M60000.1 16009.8 A510 510 0.0 0 0 61019.9 16009.8 " />
<path d="M61000.1 16009.8 A510 510 0.0 0 0 62019.9 16009.8 " />
<path d="M62000.1 16009.2 A480 480 0.0 0 0 62959.9 16009.2 " />
<path d="M63000 16000
L64000 16000
" />
<path d="M59000 16000
L58000 16000
" />
</g>
<g style="fill:#00A0A0; fill-opacity:0.0; 
stroke:#00A0A0; stroke-width:60; stroke-opacity:1; 
stroke-linecap:round; stroke-linejoin:round;">
<path d="M60940 15630
L60750 15630
L60750 15230
" />
<path d="M61270 15630
L61050 15630
" />
<path d="M61160 15630
L61160 15230
L61120 15290
L61080 15330
L61050 15350
" />
<path d="M60340 17130
L60120 17130
" />
<path d="M60230 17130
L60230 16730
L60190 16790
L60150 16830
L60120 16850
" />
<path d="M60590 16730
L60630 16730
L60670 16750
L60690 16770
L60710 16810
L60720 16880
L60720 16980
L60710 17060
L60690 17090
L60670 17110
L60630 17130
L60590 17130
L60550 17110
L60530 17090
L60520 17060
L60500 16980
L60500 16880
L60520 16810
L60530 16770
L60550 16750
L60590 16730
" />
<path d="M60970 16730
L61010 16730
L61050 16750
L61070 16770
L61090 16810
L61100 16880
L61100 16980
L61090 17060
L61070 17090
L61050 17110
L61010 17130
L60970 17130
L60930 17110
L60910 17090
L60900 17060
L60880 16980
L60880 16880
L60900 16810
L60910 16770
L60930 16750
L60970 16730
" />
<path d="M61450 16870
L61450 17130
" />
<path d="M61280 16870
L61280 17070
L61290 17110
L61330 17130
L61390 17130
L61430 17110
L61450 17090
" />
<path d="M61640 17130
L61640 16730
" />
<path d="M61640 16920
L61860 16920
" />
<path d="M61860 17130
L61860 16730
" />
</g>
<g style="fill:#00A0A0; fill-opacity:0.0; 
stroke:#00A0A0; stroke-width:0; stroke-opacity:1; 
stroke-linecap:round; stroke-linejoin:round;">
</g>
<g style="fill:#A00000; fill-opacity:0.0; 
stroke:#A00000; stroke-width:60; stroke-opacity:1; 
stroke-linecap:round; stroke-linejoin:round;">
<polyline fill="none;"
points="54000,24000
54500,24500
55000,24000
54000,24000
" /> 
</g>
<g style="fill:#0000FF; fill-opacity:0.0; 
stroke:#0000FF; stroke-width:60; stroke-opacity:1; 
stroke-linecap:round; stroke-linejoin:round;">
<path d="M14170 17840
L14290 17840
L14340 17810
L14370 17790
L14430 17700
L14460 17590
L14460 17360
L14430 17300
L14400 17270
L14340 17240
L14230 17240
L14170 17270
L14140 17300
L14110 17360
L14110 17500
L14140 17560
L14170 17590
L14230 17610
L14340 17610
L14400 17590
L14430 17560
L14460 17500
" />
<path d="M14710 17610
L15170 17610
" />
<path d="M15770 17840
L15420 17840
" />
<path d="M15600 17840
L15600 17240
L15540 17330
L15480 17390
L15420 17410
" />
<path d="M16280 17240
L16170 17240
L16110 17270
L16080 17300
L16020 17390
L15990 17500
L15990 17730
L16020 17790
L16050 17810
L16110 17840
L16220 17840
L16280 17810
L16310 17790
L16340 17730
L16340 17590
L16310 17530
L16280 17500
L16220 17470
L16110 17470
L16050 17500
L16020 17530
L15990 17590
" />
<path d="M16510 17240
L16710 17840
L16910 17240
" />
</g>
<g style="fill:#000000; fill-opacity:0.0; 
stroke:#000000; stroke-width:60; stroke-opacity:1; 
stroke-linecap:round; stroke-linejoin:round;">
<path d="M22640 16840
L22640 16240
L22870 16240
L22930 16270
L22960 16300
L22990 16360
L22990 16440
L22960 16500
L22930 16530
L22870 16560
L22640 16560
" />
<path d="M23190 16240
L23330 16840
L23440 16410
L23560 16840
L23700 16240
" />
<path d="M24280 16840
L24080 16560
" />
<path d="M23930 16840
L23930 16240
L24160 16240
L24220 16270
L24250 16300
L24280 16360
L24280 16440
L24250 16500
L24220 16530
L24160 16560
L23930 16560
" />
</g>
<g style="fill:#000000; fill-opacity:0.0; 
stroke:#000000; stroke-width:0; stroke-opacity:1; 
stroke-linecap:round; stroke-linejoin:round;">
</g>
<g style="fill:#A00000; fill-opacity:0.0; 
stroke:#A00000; stroke-width:60; stroke-opacity:1; 
stroke-linecap:round; stroke-linejoin:round;">
<polyline fill="none;"
points="25000,21000
25500,21500
26000,21000
25000,21000
" /> 
</g>
<g style="fill:#A00000; fill-opacity:0.0; 
stroke:#A00000; stroke-width:0; stroke-opacity:1; 
stroke-linecap:round; stroke-linejoin:round;">
</g>
<g style="fill:#A00000; fill-opacity:0.0; 
stroke:#A00000; stroke-width:60; stroke-opacity:1; 
stroke-linecap:round; stroke-linejoin:round;">
<rect x="106500" y="15500" width="2000" height="3000" rx="0" />
<circle cx="106150" cy="16000" r="350" /> 
<path d="M105800 16000
L104000 16000
" />
<path d="M105430 15840
L105080 15840
" />
<path d="M105260 15840
L105260 15240
L105200 15330
L105140 15390
L105080 15410
" />
<circle cx="106150" cy="18000" r="350" /> 
<path d="M105800 18000
L104000 18000
" />
<path d="M105080 17300
L105110 17270
L105170 17240
L105310 17240
L105370 17270
L105400 17300
L105430 17360
L105430 17410
L105400 17500
L105060 17840
L105430 17840
" />
</g>
<g style="fill:#00A0A0; fill-opacity:0.0; 
stroke:#00A0A0; stroke-width:60; stroke-opacity:1; 
stroke-linecap:round; stroke-linejoin:round;">
<path d="M107130 17290
L106730 17290
L106730 17140
L106750 17100
L106770 17090
L106810 17070
L106870 17070
L106900 17090
L106920 17100
L106940 17140
L106940 17290
" />
<path d="M106730 16930
L106730 16690
L106880 16820
L106880 16760
L106900 16720
L106920 16700
L106960 16690
L107060 16690
L107090 16700
L107110 16720
L107130 16760
L107130 16880
L107110 16910
L107090 16930
" />
<path d="M108090 17850
L108110 17870
L108130 17920
L108130 17960
L108110 18020
L108070 18060
L108040 18070
L107960 18090
L107900 18090
L107830 18070
L107790 18060
L107750 18020
L107730 17960
L107730 17920
L107750 17870
L107770 17850
" />
<path d="M107730 17600
L107730 17520
L107750 17480
L107790 17450
L107870 17430
L108000 17430
L108070 17450
L108110 17480
L108130 17520
L108130 17600
L108110 17640
L108070 17670
L108000 17690
L107870 17690
L107790 17670
L107750 17640
L107730 17600
" />
<path d="M108130 17250
L107730 17250
L108130 17030
L107730 17030
" />
<path d="M108130 16830
L107730 16830
L108130 16610
L107730 16610
" />
<path d="M108170 16510
L108170 16210
" />
<path d="M107770 16130
L107750 16110
L107730 16080
L107730 15980
L107750 15940
L107770 15920
L107810 15910
L107850 15910
L107900 15920
L108130 16150
L108130 15910
" />
</g>
<g style="fill:#00A0A0; fill-opacity:0.0; 
stroke:#00A0A0; stroke-width:0; stroke-opacity:1; 
stroke-linecap:round; stroke-linejoin:round;">
</g>
<g style="fill:#A00000; fill-opacity:0.0; 
stroke:#A00000; stroke-width:60; stroke-opacity:1; 
stroke-linecap:round; stroke-linejoin:round;">
<rect x="18000" y="16500" width="2000" height="3000" rx="0" />
<circle cx="20350" cy="17000" r="350" /> 
<path d="M20700 17000
L22500 17000
" />
<path d="M21430 16840
L21080 16840
" />
<path d="M21260 16840
L21260 16240
L21200 16330
L21140 16390
L21080 16410
" />
<circle cx="20350" cy="19000" r="350" /> 
<path d="M20700 19000
L22500 19000
" />
<path d="M21080 18300
L21110 18270
L21170 18240
L21310 18240
L21370 18270
L21400 18300
L21430 18360
L21430 18410
L21400 18500
L21060 18840
L21430 18840
" />
</g>
<g style="fill:#00A0A0; fill-opacity:0.0; 
stroke:#00A0A0; stroke-width:60; stroke-opacity:1; 
stroke-linecap:round; stroke-linejoin:round;">
<path d="M19690 18290
L19290 18290
L19290 18140
L19310 18100
L19330 18090
L19370 18070
L19430 18070
L19460 18090
L19480 18100
L19500 18140
L19500 18290
" />
<path d="M19690 17690
L19690 17910
" />
<path d="M19690 17800
L19290 17800
L19350 17840
L19390 17880
L19410 17910
" />
<path d="M18650 18850
L18670 18870
L18690 18920
L18690 18960
L18670 19020
L18630 19060
L18600 19070
L18520 19090
L18460 19090
L18390 19070
L18350 19060
L18310 19020
L18290 18960
L18290 18920
L18310 18870
L18330 18850
" />
<path d="M18290 18600
L18290 18520
L18310 18480
L18350 18450
L18430 18430
L18560 18430
L18630 18450
L18670 18480
L18690 18520
L18690 18600
L18670 18640
L18630 18670
L18560 18690
L18430 18690
L18350 18670
L18310 18640
L18290 18600
" />
<path d="M18690 18250
L18290 18250
L18690 18030
L18290 18030
" />
<path d="M18690 17830
L18290 17830
L18690 17610
L18290 17610
" />
<path d="M18730 17510
L18730 17210
" />
<path d="M18330 17130
L18310 17110
L18290 17080
L18290 16980
L18310 16940
L18330 16920
L18370 16910
L18410 16910
L18460 16920
L18690 17150
L18690 16910
" />
</g>
<g style="fill:#00A0A0; fill-opacity:0.0; 
stroke:#00A0A0; stroke-width:0; stroke-opacity:1; 
stroke-linecap:round; stroke-linejoin:round;">
</g>
<g style="fill:#A00000; fill-opacity:0.0; 
stroke:#A00000; stroke-width:200; stroke-opacity:1; 
stroke-linecap:round; stroke-linejoin:round;">
<polyline fill="none;"
points="46700,20300
48300,20300
" /> 
<polyline fill="none;"
points="46700,19700
48300,19700
" /> 
</g>
<g style="fill:#A00000; fill-opacity:0.0; 
stroke:#A00000; stroke-width:60; stroke-opacity:1; 
stroke-linecap:round; stroke-linejoin:round;">
<path d="M47500 19700
L47500 18000
" />
</g>
<g style="fill:#00A0A0; fill-opacity:0.0; 
stroke:#00A0A0; stroke-width:60; stroke-opacity:1; 
stroke-linecap:round; stroke-linejoin:round;">
</g>
<g style="fill:#A00000; fill-opacity:0.0; 
stroke:#A00000; stroke-width:60; stroke-opacity:1; 
stroke-linecap:round; stroke-linejoin:round;">
<path d="M47500 20300
L47500 22000
" />
</g>
<g style="fill:#00A0A0; fill-opacity:0.0; 
stroke:#00A0A0; stroke-width:60; stroke-opacity:1; 
stroke-linecap:round; stroke-linejoin:round;">
<path d="M48400 19120
L48380 19150
L48310 19170
L48260 19170
L48190 19150
L48140 19100
L48120 19050
L48100 18960
L48100 18890
L48120 18790
L48140 18740
L48190 18700
L48260 18670
L48310 18670
L48380 18700
L48400 18720
" />
<path d="M48570 18670
L48880 18670
L48710 18860
L48790 18860
L48830 18890
L48860 18910
L48880 18960
L48880 19080
L48860 19120
L48830 19150
L48790 19170
L48640 19170
L48600 19150
L48570 19120
" />
<path d="M48380 21170
L48100 21170
" />
<path d="M48240 21170
L48240 20670
L48190 20740
L48140 20790
L48100 20820
" />
<path d="M48690 20670
L48740 20670
L48790 20700
L48810 20720
L48840 20770
L48860 20860
L48860 20980
L48840 21080
L48810 21120
L48790 21150
L48740 21170
L48690 21170
L48650 21150
L48620 21120
L48600 21080
L48580 20980
L48580 20860
L48600 20770
L48620 20720
L48650 20700
L48690 20670
" />
<path d="M49170 20670
L49220 20670
L49270 20700
L49290 20720
L49320 20770
L49340 20860
L49340 20980
L49320 21080
L49290 21120
L49270 21150
L49220 21170
L49170 21170
L49130 21150
L49100 21120
L49080 21080
L49060 20980
L49060 20860
L49080 20770
L49100 20720
L49130 20700
L49170 20670
" />
<path d="M49560 20840
L49560 21170
" />
<path d="M49560 20890
L49580 20860
L49630 20840
L49700 20840
L49750 20860
L49770 20910
L49770 21170
" />
<path d="M50180 20910
L50010 20910
" />
<path d="M50010 21170
L50010 20670
L50250 20670
" />
</g>
<g style="fill:#00A0A0; fill-opacity:0.0; 
stroke:#00A0A0; stroke-width:0; stroke-opacity:1; 
stroke-linecap:round; stroke-linejoin:round;">
</g>
<g style="fill:#A00000; fill-opacity:0.0; 
stroke:#A00000; stroke-width:200; stroke-opacity:1; 
stroke-linecap:round; stroke-linejoin:round;">
<polyline fill="none;"
points="36200,35300
37800,35300
" /> 
<polyline fill="none;"
points="36200,34700
37800,34700
" /> 
</g>
<g style="fill:#A00000; fill-opacity:0.0; 
stroke:#A00000; stroke-width:60; stroke-opacity:1; 
stroke-linecap:round; stroke-linejoin:round;">
<path d="M37000 34700
L37000 33000
" />
</g>
<g style="fill:#00A0A0; fill-opacity:0.0; 
stroke:#00A0A0; stroke-width:60; stroke-opacity:1; 
stroke-linecap:round; stroke-linejoin:round;">
</g>
<g style="fill:#A00000; fill-opacity:0.0; 
stroke:#A00000; stroke-width:60; stroke-opacity:1; 
stroke-linecap:round; stroke-linejoin:round;">
<path d="M37000 35300
L37000 37000
" />
</g>
<g style="fill:#00A0A0; fill-opacity:0.0; 
stroke:#00A0A0; stroke-width:60; stroke-opacity:1; 
stroke-linecap:round; stroke-linejoin:round;">
<path d="M37900 34120
L37880 34150
L37810 34170
L37760 34170
L37690 34150
L37640 34100
L37620 34050
L37600 33960
L37600 33890
L37620 33790
L37640 33740
L37690 33700
L37760 33670
L37810 33670
L37880 33700
L37900 33720
" />
<path d="M38380 34170
L38100 34170
" />
<path d="M38240 34170
L38240 33670
L38190 33740
L38140 33790
L38100 33820
" />
<path d="M37880 36170
L37600 36170
" />
<path d="M37740 36170
L37740 35670
L37690 35740
L37640 35790
L37600 35820
" />
<path d="M38190 35670
L38240 35670
L38290 35700
L38310 35720
L38340 35770
L38360 35860
L38360 35980
L38340 36080
L38310 36120
L38290 36150
L38240 36170
L38190 36170
L38150 36150
L38120 36120
L38100 36080
L38080 35980
L38080 35860
L38100 35770
L38120 35720
L38150 35700
L38190 35670
" />
<path d="M38670 35670
L38720 35670
L38770 35700
L38790 35720
L38820 35770
L38840 35860
L38840 35980
L38820 36080
L38790 36120
L38770 36150
L38720 36170
L38670 36170
L38630 36150
L38600 36120
L38580 36080
L38560 35980
L38560 35860
L38580 35770
L38600 35720
L38630 35700
L38670 35670
" />
<path d="M39060 35840
L39060 36170
" />
<path d="M39060 35890
L39080 35860
L39130 35840
L39200 35840
L39250 35860
L39270 35910
L39270 36170
" />
<path d="M39680 35910
L39510 35910
" />
<path d="M39510 36170
L39510 35670
L39750 35670
" />
</g>
<g style="fill:#00A0A0; fill-opacity:0.0; 
stroke:#00A0A0; stroke-width:0; stroke-opacity:1; 
stroke-linecap:round; stroke-linejoin:round;">
</g>
<g style="fill:#A00000; fill-opacity:0.0; 
stroke:#A00000; stroke-width:200; stroke-opacity:1; 
stroke-linecap:round; stroke-linejoin:round;">
<polyline fill="none;"
points="97200,22300
98800,22300
" /> 
<polyline fill="none;"
points="97200,21700
98800,21700
" /> 
</g>
<g style="fill:#A00000; fill-opacity:0.0; 
stroke:#A00000; stroke-width:60; stroke-opacity:1; 
stroke-linecap:round; stroke-linejoin:round;">
<path d="M98000 21700
L98000 20000
" />
</g>
<g style="fill:#00A0A0; fill-opacity:0.0; 
stroke:#00A0A0; stroke-width:60; stroke-opacity:1; 
stroke-linecap:round; stroke-linejoin:round;">
</g>
<g style="fill:#A00000; fill-opacity:0.0; 
stroke:#A00000; stroke-width:60; stroke-opacity:1; 
stroke-linecap:round; stroke-linejoin:round;">
<path d="M98000 22300
L98000 24000
" />
</g>
<g style="fill:#00A0A0; fill-opacity:0.0; 
stroke:#00A0A0; stroke-width:60; stroke-opacity:1; 
stroke-linecap:round; stroke-linejoin:round;">
<path d="M98900 21120
L98880 21150
L98810 21170
L98760 21170
L98690 21150
L98640 21100
L98620 21050
L98600 20960
L98600 20890
L98620 20790
L98640 20740
L98690 20700
L98760 20670
L98810 20670
L98880 20700
L98900 20720
" />
<path d="M99330 20670
L99240 20670
L99190 20700
L99170 20720
L99120 20790
L99100 20890
L99100 21080
L99120 21120
L99140 21150
L99190 21170
L99290 21170
L99330 21150
L99360 21120
L99380 21080
L99380 20960
L99360 20910
L99330 20890
L99290 20860
L99190 20860
L99140 20890
L99120 20910
L99100 20960
" />
<path d="M98880 23170
L98600 23170
" />
<path d="M98740 23170
L98740 22670
L98690 22740
L98640 22790
L98600 22820
" />
<path d="M99190 22670
L99240 22670
L99290 22700
L99310 22720
L99340 22770
L99360 22860
L99360 22980
L99340 23080
L99310 23120
L99290 23150
L99240 23170
L99190 23170
L99150 23150
L99120 23120
L99100 23080
L99080 22980
L99080 22860
L99100 22770
L99120 22720
L99150 22700
L99190 22670
" />
<path d="M99670 22670
L99720 22670
L99770 22700
L99790 22720
L99820 22770
L99840 22860
L99840 22980
L99820 23080
L99790 23120
L99770 23150
L99720 23170
L99670 23170
L99630 23150
L99600 23120
L99580 23080
L99560 22980
L99560 22860
L99580 22770
L99600 22720
L99630 22700
L99670 22670
" />
<path d="M100060 22840
L100060 23170
" />
<path d="M100060 22890
L100080 22860
L100130 22840
L100200 22840
L100250 22860
L100270 22910
L100270 23170
" />
<path d="M100680 22910
L100510 22910
" />
<path d="M100510 23170
L100510 22670
L100750 22670
" />
<path d="M100960 23150
L100960 23170
L100940 23220
L100920 23240
" />
<path d="M101540 22720
L101560 22700
L101610 22670
L101730 22670
L101770 22700
L101800 22720
L101820 22770
L101820 22820
L101800 22890
L101510 23170
L101820 23170
" />
<path d="M102280 22670
L102040 22670
L102020 22910
L102040 22890
L102090 22860
L102210 22860
L102250 22890
L102280 22910
L102300 22960
L102300 23080
L102280 23120
L102250 23150
L102210 23170
L102090 23170
L102040 23150
L102020 23120
" />
<path d="M102610 22670
L102660 22670
L102710 22700
L102730 22720
L102760 22770
L102780 22860
L102780 22980
L102760 23080
L102730 23120
L102710 23150
L102660 23170
L102610 23170
L102570 23150
L102540 23120
L102520 23080
L102500 22980
L102500 22860
L102520 22770
L102540 22720
L102570 22700
L102610 22670
" />
<path d="M102930 22670
L103090 23170
L103260 22670
" />
</g>
<g style="fill:#00A0A0; fill-opacity:0.0; 
stroke:#00A0A0; stroke-width:0; stroke-opacity:1; 
stroke-linecap:round; stroke-linejoin:round;">
</g>
<g style="fill:#A00000; fill-opacity:0.0; 
stroke:#A00000; stroke-width:60; stroke-opacity:1; 
stroke-linecap:round; stroke-linejoin:round;">
<path d="M42700 19020
L43310 19020
" />
<path d="M43010 19320
L43010 18710
" />
</g>
<g style="fill:#A00000; fill-opacity:0.0; 
stroke:#A00000; stroke-width:150; stroke-opacity:1; 
stroke-linecap:round; stroke-linejoin:round;">
<path d="M44501.3 20504.2 A1800 1800 0.0 0 0 42506.5 20499 " />
<polyline fill="none;"
points="42500,19500
44500,19500
44000,19500
44000,19500
" /> 
</g>
<g style="fill:#A00000; fill-opacity:0.0; 
stroke:#A00000; stroke-width:60; stroke-opacity:1; 
stroke-linecap:round; stroke-linejoin:round;">
<path d="M43500 19500
L43500 18000
" />
<path d="M43500 20200
L43500 22000
" />
</g>
<g style="fill:#00A0A0; fill-opacity:0.0; 
stroke:#00A0A0; stroke-width:60; stroke-opacity:1; 
stroke-linecap:round; stroke-linejoin:round;">
<path d="M44400 19120
L44380 19150
L44310 19170
L44260 19170
L44190 19150
L44140 19100
L44120 19050
L44100 18960
L44100 18890
L44120 18790
L44140 18740
L44190 18700
L44260 18670
L44310 18670
L44380 18700
L44400 18720
" />
<path d="M44600 18720
L44620 18700
L44670 18670
L44790 18670
L44830 18700
L44860 18720
L44880 18770
L44880 18820
L44860 18890
L44570 19170
L44880 19170
" />
<path d="M44380 21170
L44100 21170
" />
<path d="M44240 21170
L44240 20670
L44190 20740
L44140 20790
L44100 20820
" />
<path d="M44690 20670
L44740 20670
L44790 20700
L44810 20720
L44840 20770
L44860 20860
L44860 20980
L44840 21080
L44810 21120
L44790 21150
L44740 21170
L44690 21170
L44650 21150
L44620 21120
L44600 21080
L44580 20980
L44580 20860
L44600 20770
L44620 20720
L44650 20700
L44690 20670
" />
<path d="M45290 20840
L45290 21170
" />
<path d="M45080 20840
L45080 21100
L45100 21150
L45150 21170
L45220 21170
L45270 21150
L45290 21120
" />
<path d="M45700 20910
L45530 20910
" />
<path d="M45530 21170
L45530 20670
L45770 20670
" />
</g>
<g style="fill:#00A0A0; fill-opacity:0.0; 
stroke:#00A0A0; stroke-width:0; stroke-opacity:1; 
stroke-linecap:round; stroke-linejoin:round;">
</g>
<g style="fill:#A00000; fill-opacity:0.0; 
stroke:#A00000; stroke-width:60; stroke-opacity:1; 
stroke-linecap:round; stroke-linejoin:round;">
<path d="M78200 18520
L78810 18520
" />
<path d="M78510 18820
L78510 18210
" />
</g>
<g style="fill:#A00000; fill-opacity:0.0; 
stroke:#A00000; stroke-width:150; stroke-opacity:1; 
stroke-linecap:round; stroke-linejoin:round;">
<path d="M80001.3 20004.2 A1800 1800 0.0 0 0 78006.5 19999 " />
<polyline fill="none;"
points="78000,19000
80000,19000
79500,19000
79500,19000
" /> 
</g>
<g style="fill:#A00000; fill-opacity:0.0; 
stroke:#A00000; stroke-width:60; stroke-opacity:1; 
stroke-linecap:round; stroke-linejoin:round;">
<path d="M79000 19000
L79000 17500
" />
<path d="M79000 19700
L79000 21500
" />
</g>
<g style="fill:#00A0A0; fill-opacity:0.0; 
stroke:#00A0A0; stroke-width:60; stroke-opacity:1; 
stroke-linecap:round; stroke-linejoin:round;">
<path d="M79900 18620
L79880 18650
L79810 18670
L79760 18670
L79690 18650
L79640 18600
L79620 18550
L79600 18460
L79600 18390
L79620 18290
L79640 18240
L79690 18200
L79760 18170
L79810 18170
L79880 18200
L79900 18220
" />
<path d="M80360 18170
L80120 18170
L80100 18410
L80120 18390
L80170 18360
L80290 18360
L80330 18390
L80360 18410
L80380 18460
L80380 18580
L80360 18620
L80330 18650
L80290 18670
L80170 18670
L80120 18650
L80100 18620
" />
<path d="M79830 20340
L79830 20670
" />
<path d="M79710 20150
L79600 20510
L79900 20510
" />
<path d="M80100 20620
L80120 20650
L80100 20670
L80080 20650
L80100 20620
L80100 20670
" />
<path d="M80290 20170
L80620 20170
L80410 20670
" />
<path d="M81030 20340
L81030 20670
" />
<path d="M80820 20340
L80820 20600
L80840 20650
L80890 20670
L80960 20670
L81010 20650
L81030 20620
" />
<path d="M81440 20410
L81270 20410
" />
<path d="M81270 20670
L81270 20170
L81510 20170
" />
<path d="M81720 20650
L81720 20670
L81700 20720
L81680 20740
" />
<path d="M82300 20220
L82320 20200
L82370 20170
L82490 20170
L82530 20200
L82560 20220
L82580 20270
L82580 20320
L82560 20390
L82270 20670
L82580 20670
" />
<path d="M83040 20170
L82800 20170
L82780 20410
L82800 20390
L82850 20360
L82970 20360
L83010 20390
L83040 20410
L83060 20460
L83060 20580
L83040 20620
L83010 20650
L82970 20670
L82850 20670
L82800 20650
L82780 20620
" />
<path d="M83370 20170
L83420 20170
L83470 20200
L83490 20220
L83520 20270
L83540 20360
L83540 20480
L83520 20580
L83490 20620
L83470 20650
L83420 20670
L83370 20670
L83330 20650
L83300 20620
L83280 20580
L83260 20480
L83260 20360
L83280 20270
L83300 20220
L83330 20200
L83370 20170
" />
<path d="M83690 20170
L83850 20670
L84020 20170
" />
</g>
<g style="fill:#00A0A0; fill-opacity:0.0; 
stroke:#00A0A0; stroke-width:0; stroke-opacity:1; 
stroke-linecap:round; stroke-linejoin:round;">
</g>
<g style="fill:#A00000; fill-opacity:0.0; 
stroke:#A00000; stroke-width:60; stroke-opacity:1; 
stroke-linecap:round; stroke-linejoin:round;">
<path d="M53700 19020
L54310 19020
" />
<path d="M54010 19320
L54010 18710
" />
</g>
<g style="fill:#A00000; fill-opacity:0.0; 
stroke:#A00000; stroke-width:150; stroke-opacity:1; 
stroke-linecap:round; stroke-linejoin:round;">
<path d="M55501.3 20504.2 A1800 1800 0.0 0 0 53506.5 20499 " />
<polyline fill="none;"
points="53500,19500
55500,19500
55000,19500
55000,19500
" /> 
</g>
<g style="fill:#A00000; fill-opacity:0.0; 
stroke:#A00000; stroke-width:60; stroke-opacity:1; 
stroke-linecap:round; stroke-linejoin:round;">
<path d="M54500 19500
L54500 18000
" />
<path d="M54500 20200
L54500 22000
" />
</g>
<g style="fill:#00A0A0; fill-opacity:0.0; 
stroke:#00A0A0; stroke-width:60; stroke-opacity:1; 
stroke-linecap:round; stroke-linejoin:round;">
<path d="M55400 19120
L55380 19150
L55310 19170
L55260 19170
L55190 19150
L55140 19100
L55120 19050
L55100 18960
L55100 18890
L55120 18790
L55140 18740
L55190 18700
L55260 18670
L55310 18670
L55380 18700
L55400 18720
" />
<path d="M55830 18840
L55830 19170
" />
<path d="M55710 18650
L55600 19010
L55900 19010
" />
<path d="M55380 21170
L55100 21170
" />
<path d="M55240 21170
L55240 20670
L55190 20740
L55140 20790
L55100 20820
" />
<path d="M55690 20670
L55740 20670
L55790 20700
L55810 20720
L55840 20770
L55860 20860
L55860 20980
L55840 21080
L55810 21120
L55790 21150
L55740 21170
L55690 21170
L55650 21150
L55620 21120
L55600 21080
L55580 20980
L55580 20860
L55600 20770
L55620 20720
L55650 20700
L55690 20670
" />
<path d="M56170 20670
L56220 20670
L56270 20700
L56290 20720
L56320 20770
L56340 20860
L56340 20980
L56320 21080
L56290 21120
L56270 21150
L56220 21170
L56170 21170
L56130 21150
L56100 21120
L56080 21080
L56060 20980
L56060 20860
L56080 20770
L56100 20720
L56130 20700
L56170 20670
" />
<path d="M56770 20840
L56770 21170
" />
<path d="M56560 20840
L56560 21100
L56580 21150
L56630 21170
L56700 21170
L56750 21150
L56770 21120
" />
<path d="M57180 20910
L57010 20910
" />
<path d="M57010 21170
L57010 20670
L57250 20670
" />
<path d="M57460 21150
L57460 21170
L57440 21220
L57420 21240
" />
<path d="M58040 20720
L58060 20700
L58110 20670
L58230 20670
L58270 20700
L58300 20720
L58320 20770
L58320 20820
L58300 20890
L58010 21170
L58320 21170
" />
<path d="M58630 20670
L58680 20670
L58730 20700
L58750 20720
L58780 20770
L58800 20860
L58800 20980
L58780 21080
L58750 21120
L58730 21150
L58680 21170
L58630 21170
L58590 21150
L58560 21120
L58540 21080
L58520 20980
L58520 20860
L58540 20770
L58560 20720
L58590 20700
L58630 20670
" />
<path d="M58950 20670
L59110 21170
L59280 20670
" />
</g>
<g style="fill:#00A0A0; fill-opacity:0.0; 
stroke:#00A0A0; stroke-width:0; stroke-opacity:1; 
stroke-linecap:round; stroke-linejoin:round;">
</g>
<g style="fill:#A00000; fill-opacity:0.0; 
stroke:#A00000; stroke-width:60; stroke-opacity:1; 
stroke-linecap:round; stroke-linejoin:round;">
<rect x="46500" y="26500" width="9000" height="7000" rx="0" />
<path d="M55500 28000
L58500 28000
" />
</g>
<g style="fill:#00A0A0; fill-opacity:0.0; 
stroke:#00A0A0; stroke-width:60; stroke-opacity:1; 
stroke-linecap:round; stroke-linejoin:round;">
<path d="M53910 27940
L54080 27940
" />
<path d="M54150 28200
L53910 28200
L53910 27700
L54150 27700
" />
<path d="M54310 27700
L54640 28200
" />
<path d="M54640 27700
L54310 28200
" />
<path d="M54770 27700
L55050 27700
" />
<path d="M54910 28200
L54910 27700
" />
</g>
<g style="fill:#A00000; fill-opacity:0.0; 
stroke:#A00000; stroke-width:60; stroke-opacity:1; 
stroke-linecap:round; stroke-linejoin:round;">
<path d="M57140 27850
L56860 27850
" />
<path d="M57000 27850
L57000 27350
L56950 27420
L56900 27470
L56860 27500
" />
<path d="M51000 26500
L51000 23500
" />
</g>
<g style="fill:#00A0A0; fill-opacity:0.0; 
stroke:#00A0A0; stroke-width:60; stroke-opacity:1; 
stroke-linecap:round; stroke-linejoin:round;">
<path d="M50700 28280
L51200 28120
L50700 27950
" />
<path d="M51150 27500
L51180 27520
L51200 27590
L51200 27640
L51180 27710
L51130 27760
L51080 27780
L50990 27800
L50920 27800
L50820 27780
L50770 27760
L50730 27710
L50700 27640
L50700 27590
L50730 27520
L50750 27500
" />
<path d="M51150 27000
L51180 27020
L51200 27090
L51200 27140
L51180 27210
L51130 27260
L51080 27280
L50990 27300
L50920 27300
L50820 27280
L50770 27260
L50730 27210
L50700 27140
L50700 27090
L50730 27020
L50750 27000
" />
</g>
<g style="fill:#A00000; fill-opacity:0.0; 
stroke:#A00000; stroke-width:60; stroke-opacity:1; 
stroke-linecap:round; stroke-linejoin:round;">
<path d="M50400 25140
L50380 25120
L50350 25070
L50350 24950
L50380 24910
L50400 24880
L50450 24860
L50500 24860
L50570 24880
L50850 25170
L50850 24860
" />
<path d="M55500 32000
L58500 32000
" />
</g>
<g style="fill:#00A0A0; fill-opacity:0.0; 
stroke:#00A0A0; stroke-width:60; stroke-opacity:1; 
stroke-linecap:round; stroke-linejoin:round;">
<path d="M54460 31940
L54290 31940
" />
<path d="M54290 32200
L54290 31700
L54530 31700
" />
<path d="M54890 31940
L54960 31960
L54980 31990
L55000 32040
L55000 32110
L54980 32150
L54960 32180
L54910 32200
L54720 32200
L54720 31700
L54890 31700
L54930 31730
L54960 31750
L54980 31800
L54980 31850
L54960 31890
L54930 31920
L54890 31940
L54720 31940
" />
</g>
<g style="fill:#A00000; fill-opacity:0.0; 
stroke:#A00000; stroke-width:60; stroke-opacity:1; 
stroke-linecap:round; stroke-linejoin:round;">
<path d="M56830 31350
L57140 31350
L56970 31540
L57050 31540
L57090 31570
L57120 31590
L57140 31640
L57140 31760
L57120 31800
L57090 31830
L57050 31850
L56900 31850
L56860 31830
L56830 31800
" />
<path d="M46500 28000
L43500 28000
" />
</g>
<g style="fill:#00A0A0; fill-opacity:0.0; 
stroke:#00A0A0; stroke-width:60; stroke-opacity:1; 
stroke-linecap:round; stroke-linejoin:round;">
<path d="M47000 28180
L47070 28200
L47190 28200
L47230 28180
L47260 28150
L47280 28110
L47280 28060
L47260 28010
L47230 27990
L47190 27960
L47090 27940
L47040 27920
L47020 27890
L47000 27850
L47000 27800
L47020 27750
L47040 27730
L47090 27700
L47210 27700
L47280 27730
" />
<path d="M47500 28200
L47500 27700
" />
<path d="M47500 27940
L47780 27940
" />
<path d="M47780 28200
L47780 27700
" />
<path d="M48020 28200
L48020 27700
L48140 27700
L48210 27730
L48260 27770
L48280 27820
L48300 27920
L48300 27990
L48280 28080
L48260 28130
L48210 28180
L48140 28200
L48020 28200
" />
<path d="M48520 28200
L48520 27700
L48800 28200
L48800 27700
" />
</g>
<g style="fill:#A00000; fill-opacity:0.0; 
stroke:#A00000; stroke-width:60; stroke-opacity:1; 
stroke-linecap:round; stroke-linejoin:round;">
<path d="M45090 27520
L45090 27850
" />
<path d="M44970 27330
L44860 27690
L45160 27690
" />
<path d="M46500 30000
L43500 30000
" />
</g>
<g style="fill:#00A0A0; fill-opacity:0.0; 
stroke:#00A0A0; stroke-width:60; stroke-opacity:1; 
stroke-linecap:round; stroke-linejoin:round;">
<path d="M47300 30200
L47140 29960
" />
<path d="M47020 30200
L47020 29700
L47210 29700
L47260 29730
L47280 29750
L47300 29800
L47300 29870
L47280 29920
L47260 29940
L47210 29960
L47020 29960
" />
<path d="M47520 29940
L47690 29940
" />
<path d="M47760 30200
L47520 30200
L47520 29700
L47760 29700
" />
<path d="M48140 29940
L47970 29940
" />
<path d="M47970 30200
L47970 29700
L48210 29700
" />
</g>
<g style="fill:#A00000; fill-opacity:0.0; 
stroke:#A00000; stroke-width:60; stroke-opacity:1; 
stroke-linecap:round; stroke-linejoin:round;">
<path d="M45120 29350
L44880 29350
L44860 29590
L44880 29570
L44930 29540
L45050 29540
L45090 29570
L45120 29590
L45140 29640
L45140 29760
L45120 29800
L45090 29830
L45050 29850
L44930 29850
L44880 29830
L44860 29800
" />
<path d="M46500 32000
L43500 32000
" />
</g>
<g style="fill:#00A0A0; fill-opacity:0.0; 
stroke:#00A0A0; stroke-width:60; stroke-opacity:1; 
stroke-linecap:round; stroke-linejoin:round;">
<path d="M47000 32060
L47230 32060
" />
<path d="M46950 32200
L47110 31700
L47280 32200
" />
<path d="M47710 31730
L47660 31700
L47590 31700
L47520 31730
L47470 31770
L47450 31820
L47430 31920
L47430 31990
L47450 32080
L47470 32130
L47520 32180
L47590 32200
L47640 32200
L47710 32180
L47730 32150
L47730 31990
L47640 31990
" />
<path d="M47950 32200
L47950 31700
L48230 32200
L48230 31700
" />
<path d="M48470 32200
L48470 31700
L48590 31700
L48660 31730
L48710 31770
L48730 31820
L48750 31920
L48750 31990
L48730 32080
L48710 32130
L48660 32180
L48590 32200
L48470 32200
" />
</g>
<g style="fill:#A00000; fill-opacity:0.0; 
stroke:#A00000; stroke-width:60; stroke-opacity:1; 
stroke-linecap:round; stroke-linejoin:round;">
<path d="M45090 31350
L45000 31350
L44950 31380
L44930 31400
L44880 31470
L44860 31570
L44860 31760
L44880 31800
L44900 31830
L44950 31850
L45050 31850
L45090 31830
L45120 31800
L45140 31760
L45140 31640
L45120 31590
L45090 31570
L45050 31540
L44950 31540
L44900 31570
L44880 31590
L44860 31640
" />
<path d="M51000 33500
L51000 36500
" />
</g>
<g style="fill:#00A0A0; fill-opacity:0.0; 
stroke:#00A0A0; stroke-width:60; stroke-opacity:1; 
stroke-linecap:round; stroke-linejoin:round;">
<path d="M50730 32720
L50700 32770
L50700 32840
L50730 32910
L50770 32960
L50820 32980
L50920 33000
L50990 33000
L51080 32980
L51130 32960
L51180 32910
L51200 32840
L51200 32790
L51180 32720
L51150 32700
L50990 32700
L50990 32790
" />
<path d="M51200 32480
L50700 32480
L51200 32200
L50700 32200
" />
<path d="M51200 31960
L50700 31960
L50700 31840
L50730 31770
L50770 31720
L50820 31700
L50920 31680
L50990 31680
L51080 31700
L51130 31720
L51180 31770
L51200 31840
L51200 31960
" />
</g>
<g style="fill:#A00000; fill-opacity:0.0; 
stroke:#A00000; stroke-width:60; stroke-opacity:1; 
stroke-linecap:round; stroke-linejoin:round;">
<path d="M50350 35170
L50350 34840
L50850 35050
" />
<path d="M55500 30000
L58500 30000
" />
</g>
<g style="fill:#00A0A0; fill-opacity:0.0; 
stroke:#00A0A0; stroke-width:60; stroke-opacity:1; 
stroke-linecap:round; stroke-linejoin:round;">
<path d="M54520 30150
L54500 30180
L54430 30200
L54380 30200
L54310 30180
L54260 30130
L54240 30080
L54220 29990
L54220 29920
L54240 29820
L54260 29770
L54310 29730
L54380 29700
L54430 29700
L54500 29730
L54520 29750
" />
<path d="M54720 30180
L54790 30200
L54910 30200
L54950 30180
L54980 30150
L55000 30110
L55000 30060
L54980 30010
L54950 29990
L54910 29960
L54810 29940
L54760 29920
L54740 29890
L54720 29850
L54720 29800
L54740 29750
L54760 29730
L54810 29700
L54930 29700
L55000 29730
" />
</g>
<g style="fill:#A00000; fill-opacity:0.0; 
stroke:#A00000; stroke-width:60; stroke-opacity:1; 
stroke-linecap:round; stroke-linejoin:round;">
<path d="M56950 29570
L56900 29540
L56880 29520
L56860 29470
L56860 29450
L56880 29400
L56900 29380
L56950 29350
L57050 29350
L57090 29380
L57120 29400
L57140 29450
L57140 29470
L57120 29520
L57090 29540
L57050 29570
L56950 29570
L56900 29590
L56880 29610
L56860 29660
L56860 29760
L56880 29800
L56900 29830
L56950 29850
L57050 29850
L57090 29830
L57120 29800
L57140 29760
L57140 29660
L57120 29610
L57090 29590
L57050 29570
" />
</g>
<g style="fill:#00A0A0; fill-opacity:0.0; 
stroke:#00A0A0; stroke-width:60; stroke-opacity:1; 
stroke-linecap:round; stroke-linejoin:round;">
<path d="M46540 25110
L46540 25600
L46570 25660
L46600 25680
L46660 25710
L46770 25710
L46830 25680
L46860 25660
L46890 25600
L46890 25110
" />
<path d="M47490 25710
L47140 25710
" />
<path d="M47320 25710
L47320 25110
L47260 25200
L47200 25260
L47140 25280
" />
<path d="M52620 25710
L52620 25110
L52820 25540
L53020 25110
L53020 25710
" />
<path d="M53280 25540
L53570 25540
" />
<path d="M53230 25710
L53430 25110
L53630 25710
" />
<path d="M53770 25110
L54170 25710
" />
<path d="M54170 25110
L53770 25710
" />
<path d="M54710 25710
L54360 25710
" />
<path d="M54540 25710
L54540 25110
L54480 25200
L54420 25260
L54360 25280
" />
<path d="M54910 25110
L55310 25110
L55050 25710
" />
<path d="M55480 25110
L55880 25110
L55620 25710
" />
<path d="M56420 25710
L56070 25710
" />
<path d="M56250 25710
L56250 25110
L56190 25200
L56130 25260
L56070 25280
" />
</g>
<g style="fill:#00A0A0; fill-opacity:0.0; 
stroke:#00A0A0; stroke-width:0; stroke-opacity:1; 
stroke-linecap:round; stroke-linejoin:round;">
</g>
<g style="fill:#A00000; fill-opacity:0.0; 
stroke:#A00000; stroke-width:60; stroke-opacity:1; 
stroke-linecap:round; stroke-linejoin:round;">
<circle cx="20000" cy="36000" r="310" /> 
<polyline fill="none;"
points="20000,36300
20000,36500
" /> 
<path d="M20000 36500
L20000 37500
" />
</g>
<g style="fill:#00A0A0; fill-opacity:0.0; 
stroke:#00A0A0; stroke-width:60; stroke-opacity:1; 
stroke-linecap:round; stroke-linejoin:round;">
<path d="M20130 35100
L19730 35100
L19730 34950
L19750 34910
L19770 34900
L19810 34880
L19870 34880
L19900 34900
L19920 34910
L19940 34950
L19940 35100
" />
<path d="M19870 34530
L20130 34530
" />
<path d="M19710 34630
L20000 34720
L20000 34480
" />
</g>
<g style="fill:#00A000; fill-opacity:0.0; 
stroke:#00A000; stroke-width:60; stroke-opacity:1; 
stroke-linecap:round; stroke-linejoin:round;">
<path d="M20000 37500
L20000 39000
" />
</g>
<g style="fill:#00A000; fill-opacity:0.0; 
stroke:#00A000; stroke-width:0; stroke-opacity:1; 
stroke-linecap:round; stroke-linejoin:round;">
</g>
<g style="fill:#A00000; fill-opacity:0.0; 
stroke:#A00000; stroke-width:60; stroke-opacity:1; 
stroke-linecap:round; stroke-linejoin:round;">
<polyline fill="none;"
points="19500,39000
20000,39500
20500,39000
19500,39000
" /> 
</g> 
</svg>
