M48
;DRILL file {Pcbnew (2013-feb-26)-testing} date Mon 27 May 2013 10:39:37 AM PDT
;FORMAT={2:4/ absolute / inch / suppress trailing zeros}
FMAT,2
INCH,LZ
T1C0.032
T2C0.040
T3C0.043
T4C0.045
T5C0.050
T6C0.070
T7C0.102
T8C0.107
T9C0.118
T10C0.120
T11C0.150
%
G90
G05
M72
T1
X0365Y-0515
X0375Y-0515
X0453Y-0614
X0453Y-0634
X0463Y-0495
X0463Y-0505
X0478Y-0552
X0485Y-0499
X0485Y-0509
X0485Y-0519
X0485Y-0529
X0515Y-0499
X0515Y-0509
X0515Y-0519
X0515Y-0529
X0518Y-0552
X0533Y-0473
X0533Y-0523
X0535Y-0558
X0535Y-0568
T2
X041Y-0425
X041Y-0505
X0429Y-0375
X043Y-0425
X043Y-0505
X0439Y-0375
X0489Y-0471
X0499Y-0471
X0509Y-0471
T3
X049316Y-0623
X0503Y-0623
X051284Y-0623
T4
X0407Y-0464
X0457Y-0464
T5
X038Y-0335
X0453Y-0527
X0453Y-0597
X052Y-0335
T6
X03499Y-056131
X03499Y-060069
X037Y-04338
X037Y-04525
X037Y-04712
X04121Y-056131
X04121Y-060069
T7
X037138Y-0375
T8
X048528Y-059544
X052072Y-059544
T9
X0395Y-0375
T10
X035Y-0325
X035Y-064
X054Y-0325
X054Y-064
T11
X0499Y-039848
T0
M30
