G04 (created by PCBNEW (2013-feb-26)-testing) date Fri 24 May 2013 08:37:37 PM PDT*
%MOIN*%
G04 Gerber Fmt 3.4, Leading zero omitted, Abs format*
%FSLAX34Y34*%
G01*
G70*
G90*
G04 APERTURE LIST*
%ADD10C,2.3622e-06*%
%ADD11C,0.01*%
G04 APERTURE END LIST*
G54D10*
G54D11*
X47071Y-33042D02*
X47071Y-32442D01*
X46804Y-32442D02*
X46728Y-32442D01*
X46690Y-32471D01*
X46652Y-32528D01*
X46633Y-32642D01*
X46633Y-32842D01*
X46652Y-32957D01*
X46690Y-33014D01*
X46728Y-33042D01*
X46804Y-33042D01*
X46842Y-33014D01*
X46880Y-32957D01*
X46899Y-32842D01*
X46899Y-32642D01*
X46880Y-32528D01*
X46842Y-32471D01*
X46804Y-32442D01*
X45928Y-33042D02*
X46061Y-32757D01*
X46157Y-33042D02*
X46157Y-32442D01*
X46004Y-32442D01*
X45966Y-32471D01*
X45947Y-32500D01*
X45928Y-32557D01*
X45928Y-32642D01*
X45947Y-32700D01*
X45966Y-32728D01*
X46004Y-32757D01*
X46157Y-32757D01*
X45699Y-33042D02*
X45738Y-33014D01*
X45757Y-32985D01*
X45776Y-32928D01*
X45776Y-32757D01*
X45757Y-32700D01*
X45738Y-32671D01*
X45699Y-32642D01*
X45642Y-32642D01*
X45604Y-32671D01*
X45585Y-32700D01*
X45566Y-32757D01*
X45566Y-32928D01*
X45585Y-32985D01*
X45604Y-33014D01*
X45642Y-33042D01*
X45699Y-33042D01*
X45223Y-33042D02*
X45223Y-32442D01*
X45223Y-33014D02*
X45261Y-33042D01*
X45338Y-33042D01*
X45376Y-33014D01*
X45395Y-32985D01*
X45414Y-32928D01*
X45414Y-32757D01*
X45395Y-32700D01*
X45376Y-32671D01*
X45338Y-32642D01*
X45261Y-32642D01*
X45223Y-32671D01*
X44880Y-33014D02*
X44919Y-33042D01*
X44995Y-33042D01*
X45033Y-33014D01*
X45052Y-32957D01*
X45052Y-32728D01*
X45033Y-32671D01*
X44995Y-32642D01*
X44919Y-32642D01*
X44880Y-32671D01*
X44861Y-32728D01*
X44861Y-32785D01*
X45052Y-32842D01*
X44633Y-33042D02*
X44671Y-33014D01*
X44690Y-32985D01*
X44709Y-32928D01*
X44709Y-32757D01*
X44690Y-32700D01*
X44671Y-32671D01*
X44633Y-32642D01*
X44576Y-32642D01*
X44538Y-32671D01*
X44519Y-32700D01*
X44500Y-32757D01*
X44500Y-32928D01*
X44519Y-32985D01*
X44538Y-33014D01*
X44576Y-33042D01*
X44633Y-33042D01*
X44023Y-33042D02*
X44023Y-32442D01*
X43833Y-32642D02*
X43833Y-33042D01*
X43833Y-32700D02*
X43814Y-32671D01*
X43776Y-32642D01*
X43719Y-32642D01*
X43680Y-32671D01*
X43661Y-32728D01*
X43661Y-33042D01*
X43300Y-33014D02*
X43338Y-33042D01*
X43414Y-33042D01*
X43452Y-33014D01*
X43471Y-32985D01*
X43490Y-32928D01*
X43490Y-32757D01*
X43471Y-32700D01*
X43452Y-32671D01*
X43414Y-32642D01*
X43338Y-32642D01*
X43300Y-32671D01*
X43128Y-32985D02*
X43109Y-33014D01*
X43128Y-33042D01*
X43147Y-33014D01*
X43128Y-32985D01*
X43128Y-33042D01*
X50423Y-33668D02*
X50290Y-33668D01*
X50233Y-33982D02*
X50423Y-33982D01*
X50423Y-33382D01*
X50233Y-33382D01*
X50004Y-33982D02*
X50042Y-33954D01*
X50061Y-33897D01*
X50061Y-33382D01*
X49699Y-33954D02*
X49738Y-33982D01*
X49814Y-33982D01*
X49852Y-33954D01*
X49871Y-33897D01*
X49871Y-33668D01*
X49852Y-33611D01*
X49814Y-33582D01*
X49738Y-33582D01*
X49699Y-33611D01*
X49680Y-33668D01*
X49680Y-33725D01*
X49871Y-33782D01*
X49338Y-33954D02*
X49376Y-33982D01*
X49452Y-33982D01*
X49490Y-33954D01*
X49509Y-33925D01*
X49528Y-33868D01*
X49528Y-33697D01*
X49509Y-33640D01*
X49490Y-33611D01*
X49452Y-33582D01*
X49376Y-33582D01*
X49338Y-33611D01*
X49223Y-33582D02*
X49071Y-33582D01*
X49166Y-33382D02*
X49166Y-33897D01*
X49147Y-33954D01*
X49109Y-33982D01*
X49071Y-33982D01*
X48938Y-33982D02*
X48938Y-33582D01*
X48938Y-33697D02*
X48919Y-33640D01*
X48899Y-33611D01*
X48861Y-33582D01*
X48823Y-33582D01*
X48633Y-33982D02*
X48671Y-33954D01*
X48690Y-33925D01*
X48709Y-33868D01*
X48709Y-33697D01*
X48690Y-33640D01*
X48671Y-33611D01*
X48633Y-33582D01*
X48576Y-33582D01*
X48538Y-33611D01*
X48519Y-33640D01*
X48499Y-33697D01*
X48499Y-33868D01*
X48519Y-33925D01*
X48538Y-33954D01*
X48576Y-33982D01*
X48633Y-33982D01*
X48328Y-33582D02*
X48328Y-34182D01*
X48328Y-33611D02*
X48290Y-33582D01*
X48214Y-33582D01*
X48176Y-33611D01*
X48157Y-33640D01*
X48138Y-33697D01*
X48138Y-33868D01*
X48157Y-33925D01*
X48176Y-33954D01*
X48214Y-33982D01*
X48290Y-33982D01*
X48328Y-33954D01*
X47966Y-33982D02*
X47966Y-33382D01*
X47795Y-33982D02*
X47795Y-33668D01*
X47814Y-33611D01*
X47852Y-33582D01*
X47909Y-33582D01*
X47947Y-33611D01*
X47966Y-33640D01*
X47547Y-33982D02*
X47585Y-33954D01*
X47604Y-33925D01*
X47623Y-33868D01*
X47623Y-33697D01*
X47604Y-33640D01*
X47585Y-33611D01*
X47547Y-33582D01*
X47490Y-33582D01*
X47452Y-33611D01*
X47433Y-33640D01*
X47414Y-33697D01*
X47414Y-33868D01*
X47433Y-33925D01*
X47452Y-33954D01*
X47490Y-33982D01*
X47547Y-33982D01*
X47242Y-33982D02*
X47242Y-33582D01*
X47242Y-33697D02*
X47223Y-33640D01*
X47204Y-33611D01*
X47166Y-33582D01*
X47128Y-33582D01*
X46842Y-33954D02*
X46880Y-33982D01*
X46957Y-33982D01*
X46995Y-33954D01*
X47014Y-33897D01*
X47014Y-33668D01*
X46995Y-33611D01*
X46957Y-33582D01*
X46880Y-33582D01*
X46842Y-33611D01*
X46823Y-33668D01*
X46823Y-33725D01*
X47014Y-33782D01*
X46671Y-33954D02*
X46633Y-33982D01*
X46557Y-33982D01*
X46519Y-33954D01*
X46500Y-33897D01*
X46500Y-33868D01*
X46519Y-33811D01*
X46557Y-33782D01*
X46614Y-33782D01*
X46652Y-33754D01*
X46671Y-33697D01*
X46671Y-33668D01*
X46652Y-33611D01*
X46614Y-33582D01*
X46557Y-33582D01*
X46519Y-33611D01*
X46328Y-33982D02*
X46328Y-33582D01*
X46328Y-33382D02*
X46347Y-33411D01*
X46328Y-33440D01*
X46309Y-33411D01*
X46328Y-33382D01*
X46328Y-33440D01*
X46157Y-33954D02*
X46119Y-33982D01*
X46042Y-33982D01*
X46004Y-33954D01*
X45985Y-33897D01*
X45985Y-33868D01*
X46004Y-33811D01*
X46042Y-33782D01*
X46099Y-33782D01*
X46138Y-33754D01*
X46157Y-33697D01*
X46157Y-33668D01*
X46138Y-33611D01*
X46099Y-33582D01*
X46042Y-33582D01*
X46004Y-33611D01*
X45509Y-33982D02*
X45509Y-33382D01*
X45357Y-33382D01*
X45319Y-33411D01*
X45300Y-33440D01*
X45280Y-33497D01*
X45280Y-33582D01*
X45300Y-33640D01*
X45319Y-33668D01*
X45357Y-33697D01*
X45509Y-33697D01*
X45052Y-33982D02*
X45090Y-33954D01*
X45109Y-33925D01*
X45128Y-33868D01*
X45128Y-33697D01*
X45109Y-33640D01*
X45090Y-33611D01*
X45052Y-33582D01*
X44995Y-33582D01*
X44957Y-33611D01*
X44938Y-33640D01*
X44919Y-33697D01*
X44919Y-33868D01*
X44938Y-33925D01*
X44957Y-33954D01*
X44995Y-33982D01*
X45052Y-33982D01*
X44785Y-33582D02*
X44709Y-33982D01*
X44633Y-33697D01*
X44557Y-33982D01*
X44480Y-33582D01*
X44176Y-33954D02*
X44214Y-33982D01*
X44290Y-33982D01*
X44328Y-33954D01*
X44347Y-33897D01*
X44347Y-33668D01*
X44328Y-33611D01*
X44290Y-33582D01*
X44214Y-33582D01*
X44176Y-33611D01*
X44157Y-33668D01*
X44157Y-33725D01*
X44347Y-33782D01*
X43985Y-33982D02*
X43985Y-33582D01*
X43985Y-33697D02*
X43966Y-33640D01*
X43947Y-33611D01*
X43909Y-33582D01*
X43871Y-33582D01*
X43452Y-33954D02*
X43395Y-33982D01*
X43300Y-33982D01*
X43261Y-33954D01*
X43242Y-33925D01*
X43223Y-33868D01*
X43223Y-33811D01*
X43242Y-33754D01*
X43261Y-33725D01*
X43300Y-33697D01*
X43376Y-33668D01*
X43414Y-33640D01*
X43433Y-33611D01*
X43452Y-33554D01*
X43452Y-33497D01*
X43433Y-33440D01*
X43414Y-33411D01*
X43376Y-33382D01*
X43280Y-33382D01*
X43223Y-33411D01*
X42880Y-33582D02*
X42880Y-33982D01*
X43052Y-33582D02*
X43052Y-33897D01*
X43033Y-33954D01*
X42995Y-33982D01*
X42938Y-33982D01*
X42900Y-33954D01*
X42880Y-33925D01*
X42690Y-33582D02*
X42690Y-34182D01*
X42690Y-33611D02*
X42652Y-33582D01*
X42576Y-33582D01*
X42538Y-33611D01*
X42519Y-33640D01*
X42500Y-33697D01*
X42500Y-33868D01*
X42519Y-33925D01*
X42538Y-33954D01*
X42576Y-33982D01*
X42652Y-33982D01*
X42690Y-33954D01*
X42328Y-33582D02*
X42328Y-34182D01*
X42328Y-33611D02*
X42290Y-33582D01*
X42214Y-33582D01*
X42176Y-33611D01*
X42157Y-33640D01*
X42138Y-33697D01*
X42138Y-33868D01*
X42157Y-33925D01*
X42176Y-33954D01*
X42214Y-33982D01*
X42290Y-33982D01*
X42328Y-33954D01*
X41909Y-33982D02*
X41947Y-33954D01*
X41966Y-33897D01*
X41966Y-33382D01*
X41795Y-33582D02*
X41700Y-33982D01*
X41604Y-33582D02*
X41700Y-33982D01*
X41738Y-34125D01*
X41757Y-34154D01*
X41795Y-34182D01*
X41185Y-33582D02*
X41090Y-33982D01*
X40995Y-33582D01*
X40328Y-33982D02*
X40557Y-33982D01*
X40442Y-33982D02*
X40442Y-33382D01*
X40480Y-33468D01*
X40519Y-33525D01*
X40557Y-33554D01*
X40157Y-33925D02*
X40138Y-33954D01*
X40157Y-33982D01*
X40176Y-33954D01*
X40157Y-33925D01*
X40157Y-33982D01*
X40004Y-33382D02*
X39757Y-33382D01*
X39890Y-33611D01*
X39833Y-33611D01*
X39795Y-33640D01*
X39776Y-33668D01*
X39757Y-33725D01*
X39757Y-33868D01*
X39776Y-33925D01*
X39795Y-33954D01*
X39833Y-33982D01*
X39947Y-33982D01*
X39985Y-33954D01*
X40004Y-33925D01*
M02*
