G04 (created by PCBNEW (2013-feb-26)-testing) date Mon 27 May 2013 10:39:28 AM PDT*
%MOIN*%
G04 Gerber Fmt 3.4, Leading zero omitted, Abs format*
%FSLAX34Y34*%
G01*
G70*
G90*
G04 APERTURE LIST*
%ADD10C,2.3622e-06*%
%ADD11C,0.1*%
%ADD12R,0.06X0.06*%
%ADD13C,0.06*%
%ADD14R,0.055X0.055*%
%ADD15C,0.055*%
%ADD16C,0.2*%
%ADD17C,0.1811*%
%ADD18C,0.13*%
%ADD19C,0.07*%
%ADD20R,0.07X0.07*%
%ADD21C,0.1772*%
%ADD22C,0.076*%
%ADD23C,0.125*%
%ADD24C,0.04*%
%ADD25C,0.01*%
G04 APERTURE END LIST*
G54D10*
G54D11*
X37000Y-43380D03*
X37000Y-45250D03*
X37000Y-47120D03*
G54D12*
X42900Y-37500D03*
G54D13*
X43900Y-37500D03*
G54D14*
X48500Y-49900D03*
G54D15*
X48500Y-50900D03*
X48500Y-51900D03*
X48500Y-52900D03*
X51500Y-52900D03*
X51500Y-51900D03*
X51500Y-50900D03*
X51500Y-49900D03*
G54D16*
X39500Y-37500D03*
G54D17*
X37138Y-37500D03*
G54D11*
X43000Y-50500D03*
X41000Y-50500D03*
X43000Y-42500D03*
X41000Y-42500D03*
G54D15*
X45300Y-61400D03*
X45300Y-63400D03*
G54D14*
X37500Y-51500D03*
G54D15*
X36500Y-51500D03*
X46300Y-50500D03*
X46300Y-49500D03*
X53500Y-55800D03*
X53500Y-56800D03*
G54D18*
X35000Y-64000D03*
X54000Y-32500D03*
X35000Y-32500D03*
G54D13*
X47800Y-55200D03*
X51800Y-55200D03*
G54D19*
X45700Y-46400D03*
G54D20*
X40700Y-46400D03*
G54D19*
X45300Y-59700D03*
X45300Y-52700D03*
G54D13*
X53300Y-47300D03*
X53300Y-52300D03*
G54D19*
X52000Y-33500D03*
X38000Y-33500D03*
G54D11*
X34990Y-56131D03*
X41210Y-56131D03*
X34990Y-60069D03*
X41210Y-60069D03*
G54D20*
X48900Y-47100D03*
G54D19*
X49900Y-47100D03*
X50900Y-47100D03*
G54D21*
X49900Y-39848D03*
G54D22*
X49316Y-62300D03*
X50300Y-62300D03*
X51284Y-62300D03*
G54D23*
X48528Y-59544D03*
X52072Y-59544D03*
G54D18*
X54000Y-64000D03*
G54D24*
X37500Y-51500D02*
X37500Y-49600D01*
X37500Y-49600D02*
X40700Y-46400D01*
X37500Y-51500D02*
X37500Y-52421D01*
X37500Y-52421D02*
X41210Y-56131D01*
X45300Y-61400D02*
X45300Y-59700D01*
X34990Y-56131D02*
X41210Y-56131D01*
X41210Y-56131D02*
X44779Y-59700D01*
X44779Y-59700D02*
X45300Y-59700D01*
X39500Y-37500D02*
X39500Y-40800D01*
X35900Y-44150D02*
X37000Y-45250D01*
X35900Y-42500D02*
X35900Y-44150D01*
X36900Y-41500D02*
X35900Y-42500D01*
X38800Y-41500D02*
X36900Y-41500D01*
X39500Y-40800D02*
X38800Y-41500D01*
G54D25*
X43900Y-37500D02*
X43900Y-45810D01*
X49110Y-52290D02*
X48500Y-52900D01*
X49110Y-50730D02*
X49110Y-52290D01*
X48800Y-50420D02*
X49110Y-50730D01*
X48070Y-50420D02*
X48800Y-50420D01*
X47720Y-50070D02*
X48070Y-50420D01*
X47720Y-49650D02*
X47720Y-50070D01*
X46590Y-48520D02*
X47720Y-49650D01*
X46590Y-48500D02*
X46590Y-48520D01*
X43900Y-45810D02*
X46590Y-48500D01*
G54D24*
X50300Y-62300D02*
X51284Y-62300D01*
X47800Y-55200D02*
X47800Y-55430D01*
X51284Y-61504D02*
X51284Y-62300D01*
X50900Y-61120D02*
X51284Y-61504D01*
X50900Y-58530D02*
X50900Y-61120D01*
X47800Y-55430D02*
X50900Y-58530D01*
X49316Y-62300D02*
X49050Y-62300D01*
X46910Y-52590D02*
X47600Y-51900D01*
X46910Y-60160D02*
X46910Y-52590D01*
X49050Y-62300D02*
X46910Y-60160D01*
X48500Y-51900D02*
X47600Y-51900D01*
X47600Y-51900D02*
X46100Y-51900D01*
X46100Y-51900D02*
X45300Y-52700D01*
X48900Y-47100D02*
X48900Y-49500D01*
X48900Y-49500D02*
X48500Y-49900D01*
X50900Y-47100D02*
X53100Y-47100D01*
X53100Y-47100D02*
X53300Y-47300D01*
X50900Y-47100D02*
X50900Y-49300D01*
X50900Y-49300D02*
X51500Y-49900D01*
X38970Y-43380D02*
X39960Y-42390D01*
X38000Y-34010D02*
X38000Y-33500D01*
X41040Y-37050D02*
X38000Y-34010D01*
X41040Y-40450D02*
X41040Y-37050D01*
X39960Y-41530D02*
X41040Y-40450D01*
X39960Y-42390D02*
X39960Y-41530D01*
X43000Y-50500D02*
X46300Y-50500D01*
X43000Y-50500D02*
X43000Y-42500D01*
X37000Y-43380D02*
X38970Y-43380D01*
X38970Y-43380D02*
X39080Y-43380D01*
X41600Y-43900D02*
X43000Y-42500D01*
X39600Y-43900D02*
X41600Y-43900D01*
X39080Y-43380D02*
X39600Y-43900D01*
X48500Y-50900D02*
X46700Y-50900D01*
X46700Y-50900D02*
X46300Y-50500D01*
X51500Y-52900D02*
X53500Y-54900D01*
X53500Y-54900D02*
X53500Y-55800D01*
X45700Y-46400D02*
X46650Y-46400D01*
X47280Y-45770D02*
X49900Y-45770D01*
X46650Y-46400D02*
X47280Y-45770D01*
X49900Y-47100D02*
X49900Y-45770D01*
X49900Y-45770D02*
X49900Y-45020D01*
X52000Y-42920D02*
X52000Y-33500D01*
X49900Y-45020D02*
X52000Y-42920D01*
M02*
