G04 (created by PCBNEW (2013-feb-26)-testing) date Mon 22 Apr 2013 05:52:35 PM PDT*
%MOIN*%
G04 Gerber Fmt 3.4, Leading zero omitted, Abs format*
%FSLAX34Y34*%
G01*
G70*
G90*
G04 APERTURE LIST*
%ADD10C,2.3622e-06*%
%ADD11C,0.12*%
%ADD12R,0.08X0.08*%
%ADD13C,0.08*%
%ADD14R,0.075X0.075*%
%ADD15C,0.075*%
%ADD16C,0.22*%
%ADD17C,0.2011*%
%ADD18C,0.15*%
%ADD19C,0.09*%
%ADD20R,0.09X0.09*%
%ADD21C,0.1972*%
%ADD22C,0.096*%
%ADD23C,0.145*%
G04 APERTURE END LIST*
G54D10*
G54D11*
X37000Y-43380D03*
X37000Y-45250D03*
X37000Y-47120D03*
G54D12*
X42900Y-37500D03*
G54D13*
X43900Y-37500D03*
G54D14*
X48500Y-49900D03*
G54D15*
X48500Y-50900D03*
X48500Y-51900D03*
X48500Y-52900D03*
X51500Y-52900D03*
X51500Y-51900D03*
X51500Y-50900D03*
X51500Y-49900D03*
G54D16*
X39500Y-37500D03*
G54D17*
X37138Y-37500D03*
G54D11*
X43000Y-50500D03*
X41000Y-50500D03*
X43000Y-42500D03*
X41000Y-42500D03*
G54D15*
X45300Y-61400D03*
X45300Y-63400D03*
G54D14*
X37500Y-51500D03*
G54D15*
X36500Y-51500D03*
X46300Y-50500D03*
X46300Y-49500D03*
X53500Y-55800D03*
X53500Y-56800D03*
G54D18*
X35000Y-64000D03*
X54000Y-32500D03*
X35000Y-32500D03*
G54D13*
X47800Y-55200D03*
X51800Y-55200D03*
G54D19*
X45700Y-46400D03*
G54D20*
X40700Y-46400D03*
G54D19*
X45300Y-59700D03*
X45300Y-52700D03*
G54D13*
X53300Y-47300D03*
X53300Y-52300D03*
G54D19*
X52000Y-33500D03*
X38000Y-33500D03*
G54D11*
X34990Y-56131D03*
X41210Y-56131D03*
X34990Y-60069D03*
X41210Y-60069D03*
G54D20*
X48900Y-47100D03*
G54D19*
X49900Y-47100D03*
X50900Y-47100D03*
G54D21*
X49900Y-39848D03*
G54D22*
X49316Y-62300D03*
X50300Y-62300D03*
X51284Y-62300D03*
G54D23*
X48528Y-59544D03*
X52072Y-59544D03*
G54D18*
X54000Y-64000D03*
M02*
