M48
;DRILL file {Pcbnew (2011-nov-30)-testing} date Mon 07 Jan 2013 12:18:33 PM PST
;FORMAT={2:4/ absolute / inch / suppress trailing zeros}
FMAT,2
INCH,LZ
T1C0.032
T2C0.040
T3C0.050
T4C0.051
T5C0.051
T6C0.070
T7C0.102
T8C0.110
T9C0.118
T10C0.120
%
G90
G05
M72
T1
X035902Y-053543
X037205Y-050091
X037205Y-051091
X038902Y-053543
X045276Y-061598
X045276Y-063598
X047047Y-05065
X047047Y-05565
X049287Y-056496
X049484Y-051058
X049484Y-052058
X049484Y-053058
X049484Y-054058
X052287Y-056496
X052484Y-051058
X052484Y-052058
X052484Y-053058
X052484Y-054058
X054133Y-050165
X054133Y-054165
X056298Y-05324
X056298Y-05424
X057677Y-038673
X057677Y-039673
T2
X037205Y-047335
X037205Y-048335
X048424Y-037975
X048424Y-039975
X05018Y-048227
X05118Y-048227
X05218Y-048227
X053346Y-037975
X053346Y-039975
T3
X04434Y-034251
X05684Y-034251
T4
X050292Y-059055
X051772Y-059055
X053252Y-059055
T5
X034488Y-056949
X034488Y-060767
X040708Y-056949
X040708Y-060767
T6
X036433Y-039862
X036433Y-041732
X036433Y-043602
T7
X036614Y-035433
T8
X049602Y-062995
X053942Y-062995
T9
X038976Y-035433
T10
X034449Y-03248
X034449Y-063976
X058071Y-03248
X058071Y-063976
T0
M30
