G04 (created by PCBNEW (2013-jul-07)-stable) date Sat 05 Aug 2017 11:22:09 AM PDT*
%MOIN*%
G04 Gerber Fmt 3.4, Leading zero omitted, Abs format*
%FSLAX34Y34*%
G01*
G70*
G90*
G04 APERTURE LIST*
%ADD10C,0.00590551*%
%ADD11C,0.01*%
G04 APERTURE END LIST*
G54D10*
G54D11*
X57642Y-46428D02*
X57042Y-46428D01*
X57042Y-46695D02*
X57042Y-46771D01*
X57071Y-46809D01*
X57128Y-46847D01*
X57242Y-46866D01*
X57442Y-46866D01*
X57557Y-46847D01*
X57614Y-46809D01*
X57642Y-46771D01*
X57642Y-46695D01*
X57614Y-46657D01*
X57557Y-46619D01*
X57442Y-46600D01*
X57242Y-46600D01*
X57128Y-46619D01*
X57071Y-46657D01*
X57042Y-46695D01*
X57642Y-47571D02*
X57357Y-47438D01*
X57642Y-47342D02*
X57042Y-47342D01*
X57042Y-47495D01*
X57071Y-47533D01*
X57100Y-47552D01*
X57157Y-47571D01*
X57242Y-47571D01*
X57300Y-47552D01*
X57328Y-47533D01*
X57357Y-47495D01*
X57357Y-47342D01*
X57642Y-47800D02*
X57614Y-47761D01*
X57585Y-47742D01*
X57528Y-47723D01*
X57357Y-47723D01*
X57300Y-47742D01*
X57271Y-47761D01*
X57242Y-47800D01*
X57242Y-47857D01*
X57271Y-47895D01*
X57300Y-47914D01*
X57357Y-47933D01*
X57528Y-47933D01*
X57585Y-47914D01*
X57614Y-47895D01*
X57642Y-47857D01*
X57642Y-47800D01*
X57642Y-48276D02*
X57042Y-48276D01*
X57614Y-48276D02*
X57642Y-48238D01*
X57642Y-48161D01*
X57614Y-48123D01*
X57585Y-48104D01*
X57528Y-48085D01*
X57357Y-48085D01*
X57300Y-48104D01*
X57271Y-48123D01*
X57242Y-48161D01*
X57242Y-48238D01*
X57271Y-48276D01*
X57614Y-48619D02*
X57642Y-48580D01*
X57642Y-48504D01*
X57614Y-48466D01*
X57557Y-48447D01*
X57328Y-48447D01*
X57271Y-48466D01*
X57242Y-48504D01*
X57242Y-48580D01*
X57271Y-48619D01*
X57328Y-48638D01*
X57385Y-48638D01*
X57442Y-48447D01*
X57642Y-48866D02*
X57614Y-48828D01*
X57585Y-48809D01*
X57528Y-48790D01*
X57357Y-48790D01*
X57300Y-48809D01*
X57271Y-48828D01*
X57242Y-48866D01*
X57242Y-48923D01*
X57271Y-48961D01*
X57300Y-48980D01*
X57357Y-49000D01*
X57528Y-49000D01*
X57585Y-48980D01*
X57614Y-48961D01*
X57642Y-48923D01*
X57642Y-48866D01*
X57642Y-49476D02*
X57042Y-49476D01*
X57242Y-49666D02*
X57642Y-49666D01*
X57300Y-49666D02*
X57271Y-49685D01*
X57242Y-49723D01*
X57242Y-49780D01*
X57271Y-49819D01*
X57328Y-49838D01*
X57642Y-49838D01*
X57614Y-50200D02*
X57642Y-50161D01*
X57642Y-50085D01*
X57614Y-50047D01*
X57585Y-50028D01*
X57528Y-50009D01*
X57357Y-50009D01*
X57300Y-50028D01*
X57271Y-50047D01*
X57242Y-50085D01*
X57242Y-50161D01*
X57271Y-50200D01*
X57585Y-50371D02*
X57614Y-50390D01*
X57642Y-50371D01*
X57614Y-50352D01*
X57585Y-50371D01*
X57642Y-50371D01*
X58268Y-41123D02*
X58268Y-41257D01*
X58582Y-41314D02*
X58582Y-41123D01*
X57982Y-41123D01*
X57982Y-41314D01*
X58582Y-41542D02*
X58554Y-41504D01*
X58497Y-41485D01*
X57982Y-41485D01*
X58554Y-41847D02*
X58582Y-41809D01*
X58582Y-41733D01*
X58554Y-41695D01*
X58497Y-41676D01*
X58268Y-41676D01*
X58211Y-41695D01*
X58182Y-41733D01*
X58182Y-41809D01*
X58211Y-41847D01*
X58268Y-41866D01*
X58325Y-41866D01*
X58382Y-41676D01*
X58554Y-42209D02*
X58582Y-42171D01*
X58582Y-42095D01*
X58554Y-42057D01*
X58525Y-42038D01*
X58468Y-42019D01*
X58297Y-42019D01*
X58240Y-42038D01*
X58211Y-42057D01*
X58182Y-42095D01*
X58182Y-42171D01*
X58211Y-42209D01*
X58182Y-42323D02*
X58182Y-42476D01*
X57982Y-42380D02*
X58497Y-42380D01*
X58554Y-42400D01*
X58582Y-42438D01*
X58582Y-42476D01*
X58582Y-42609D02*
X58182Y-42609D01*
X58297Y-42609D02*
X58240Y-42628D01*
X58211Y-42647D01*
X58182Y-42685D01*
X58182Y-42723D01*
X58582Y-42914D02*
X58554Y-42876D01*
X58525Y-42857D01*
X58468Y-42838D01*
X58297Y-42838D01*
X58240Y-42857D01*
X58211Y-42876D01*
X58182Y-42914D01*
X58182Y-42971D01*
X58211Y-43009D01*
X58240Y-43028D01*
X58297Y-43047D01*
X58468Y-43047D01*
X58525Y-43028D01*
X58554Y-43009D01*
X58582Y-42971D01*
X58582Y-42914D01*
X58182Y-43219D02*
X58782Y-43219D01*
X58211Y-43219D02*
X58182Y-43257D01*
X58182Y-43333D01*
X58211Y-43371D01*
X58240Y-43390D01*
X58297Y-43409D01*
X58468Y-43409D01*
X58525Y-43390D01*
X58554Y-43371D01*
X58582Y-43333D01*
X58582Y-43257D01*
X58554Y-43219D01*
X58582Y-43580D02*
X57982Y-43580D01*
X58582Y-43752D02*
X58268Y-43752D01*
X58211Y-43733D01*
X58182Y-43695D01*
X58182Y-43638D01*
X58211Y-43600D01*
X58240Y-43580D01*
X58582Y-44000D02*
X58554Y-43961D01*
X58525Y-43942D01*
X58468Y-43923D01*
X58297Y-43923D01*
X58240Y-43942D01*
X58211Y-43961D01*
X58182Y-44000D01*
X58182Y-44057D01*
X58211Y-44095D01*
X58240Y-44114D01*
X58297Y-44133D01*
X58468Y-44133D01*
X58525Y-44114D01*
X58554Y-44095D01*
X58582Y-44057D01*
X58582Y-44000D01*
X58582Y-44304D02*
X58182Y-44304D01*
X58297Y-44304D02*
X58240Y-44323D01*
X58211Y-44342D01*
X58182Y-44380D01*
X58182Y-44419D01*
X58554Y-44704D02*
X58582Y-44666D01*
X58582Y-44590D01*
X58554Y-44552D01*
X58497Y-44533D01*
X58268Y-44533D01*
X58211Y-44552D01*
X58182Y-44590D01*
X58182Y-44666D01*
X58211Y-44704D01*
X58268Y-44723D01*
X58325Y-44723D01*
X58382Y-44533D01*
X58554Y-44876D02*
X58582Y-44914D01*
X58582Y-44990D01*
X58554Y-45028D01*
X58497Y-45047D01*
X58468Y-45047D01*
X58411Y-45028D01*
X58382Y-44990D01*
X58382Y-44933D01*
X58354Y-44895D01*
X58297Y-44876D01*
X58268Y-44876D01*
X58211Y-44895D01*
X58182Y-44933D01*
X58182Y-44990D01*
X58211Y-45028D01*
X58582Y-45219D02*
X58182Y-45219D01*
X57982Y-45219D02*
X58011Y-45200D01*
X58040Y-45219D01*
X58011Y-45238D01*
X57982Y-45219D01*
X58040Y-45219D01*
X58554Y-45390D02*
X58582Y-45428D01*
X58582Y-45504D01*
X58554Y-45542D01*
X58497Y-45561D01*
X58468Y-45561D01*
X58411Y-45542D01*
X58382Y-45504D01*
X58382Y-45447D01*
X58354Y-45409D01*
X58297Y-45390D01*
X58268Y-45390D01*
X58211Y-45409D01*
X58182Y-45447D01*
X58182Y-45504D01*
X58211Y-45542D01*
X58582Y-46038D02*
X57982Y-46038D01*
X57982Y-46190D01*
X58011Y-46228D01*
X58040Y-46247D01*
X58097Y-46266D01*
X58182Y-46266D01*
X58240Y-46247D01*
X58268Y-46228D01*
X58297Y-46190D01*
X58297Y-46038D01*
X58582Y-46495D02*
X58554Y-46457D01*
X58525Y-46438D01*
X58468Y-46419D01*
X58297Y-46419D01*
X58240Y-46438D01*
X58211Y-46457D01*
X58182Y-46495D01*
X58182Y-46552D01*
X58211Y-46590D01*
X58240Y-46609D01*
X58297Y-46628D01*
X58468Y-46628D01*
X58525Y-46609D01*
X58554Y-46590D01*
X58582Y-46552D01*
X58582Y-46495D01*
X58182Y-46761D02*
X58582Y-46838D01*
X58297Y-46914D01*
X58582Y-46990D01*
X58182Y-47066D01*
X58554Y-47371D02*
X58582Y-47333D01*
X58582Y-47257D01*
X58554Y-47219D01*
X58497Y-47200D01*
X58268Y-47200D01*
X58211Y-47219D01*
X58182Y-47257D01*
X58182Y-47333D01*
X58211Y-47371D01*
X58268Y-47390D01*
X58325Y-47390D01*
X58382Y-47200D01*
X58582Y-47561D02*
X58182Y-47561D01*
X58297Y-47561D02*
X58240Y-47580D01*
X58211Y-47600D01*
X58182Y-47638D01*
X58182Y-47676D01*
X58554Y-48095D02*
X58582Y-48152D01*
X58582Y-48247D01*
X58554Y-48285D01*
X58525Y-48304D01*
X58468Y-48323D01*
X58411Y-48323D01*
X58354Y-48304D01*
X58325Y-48285D01*
X58297Y-48247D01*
X58268Y-48171D01*
X58240Y-48133D01*
X58211Y-48114D01*
X58154Y-48095D01*
X58097Y-48095D01*
X58040Y-48114D01*
X58011Y-48133D01*
X57982Y-48171D01*
X57982Y-48266D01*
X58011Y-48323D01*
X58182Y-48666D02*
X58582Y-48666D01*
X58182Y-48495D02*
X58497Y-48495D01*
X58554Y-48514D01*
X58582Y-48552D01*
X58582Y-48609D01*
X58554Y-48647D01*
X58525Y-48666D01*
X58182Y-48857D02*
X58782Y-48857D01*
X58211Y-48857D02*
X58182Y-48895D01*
X58182Y-48971D01*
X58211Y-49009D01*
X58240Y-49028D01*
X58297Y-49047D01*
X58468Y-49047D01*
X58525Y-49028D01*
X58554Y-49009D01*
X58582Y-48971D01*
X58582Y-48895D01*
X58554Y-48857D01*
X58182Y-49219D02*
X58782Y-49219D01*
X58211Y-49219D02*
X58182Y-49257D01*
X58182Y-49333D01*
X58211Y-49371D01*
X58240Y-49390D01*
X58297Y-49409D01*
X58468Y-49409D01*
X58525Y-49390D01*
X58554Y-49371D01*
X58582Y-49333D01*
X58582Y-49257D01*
X58554Y-49219D01*
X58582Y-49638D02*
X58554Y-49600D01*
X58497Y-49580D01*
X57982Y-49580D01*
X58182Y-49752D02*
X58582Y-49847D01*
X58182Y-49942D02*
X58582Y-49847D01*
X58725Y-49809D01*
X58754Y-49790D01*
X58782Y-49752D01*
X58182Y-50361D02*
X58582Y-50438D01*
X58297Y-50514D01*
X58582Y-50590D01*
X58182Y-50666D01*
X57954Y-51104D02*
X58725Y-50761D01*
X58582Y-51542D02*
X57982Y-51542D01*
X57982Y-51638D01*
X58011Y-51695D01*
X58068Y-51733D01*
X58125Y-51752D01*
X58240Y-51771D01*
X58325Y-51771D01*
X58440Y-51752D01*
X58497Y-51733D01*
X58554Y-51695D01*
X58582Y-51638D01*
X58582Y-51542D01*
X58582Y-51942D02*
X58182Y-51942D01*
X57982Y-51942D02*
X58011Y-51923D01*
X58040Y-51942D01*
X58011Y-51961D01*
X57982Y-51942D01*
X58040Y-51942D01*
X58554Y-52114D02*
X58582Y-52152D01*
X58582Y-52228D01*
X58554Y-52266D01*
X58497Y-52285D01*
X58468Y-52285D01*
X58411Y-52266D01*
X58382Y-52228D01*
X58382Y-52171D01*
X58354Y-52133D01*
X58297Y-52114D01*
X58268Y-52114D01*
X58211Y-52133D01*
X58182Y-52171D01*
X58182Y-52228D01*
X58211Y-52266D01*
X58182Y-52457D02*
X58782Y-52457D01*
X58211Y-52457D02*
X58182Y-52495D01*
X58182Y-52571D01*
X58211Y-52609D01*
X58240Y-52628D01*
X58297Y-52647D01*
X58468Y-52647D01*
X58525Y-52628D01*
X58554Y-52609D01*
X58582Y-52571D01*
X58582Y-52495D01*
X58554Y-52457D01*
X58582Y-52876D02*
X58554Y-52838D01*
X58497Y-52819D01*
X57982Y-52819D01*
X58582Y-53199D02*
X58268Y-53199D01*
X58211Y-53180D01*
X58182Y-53142D01*
X58182Y-53066D01*
X58211Y-53028D01*
X58554Y-53199D02*
X58582Y-53161D01*
X58582Y-53066D01*
X58554Y-53028D01*
X58497Y-53009D01*
X58440Y-53009D01*
X58382Y-53028D01*
X58354Y-53066D01*
X58354Y-53161D01*
X58325Y-53199D01*
X58182Y-53352D02*
X58582Y-53447D01*
X58182Y-53542D02*
X58582Y-53447D01*
X58725Y-53409D01*
X58754Y-53390D01*
X58782Y-53352D01*
X58182Y-54266D02*
X58582Y-54361D01*
X58182Y-54457D01*
X58582Y-55123D02*
X58582Y-54895D01*
X58582Y-55009D02*
X57982Y-55009D01*
X58068Y-54971D01*
X58125Y-54933D01*
X58154Y-54895D01*
X58525Y-55295D02*
X58554Y-55314D01*
X58582Y-55295D01*
X58554Y-55276D01*
X58525Y-55295D01*
X58582Y-55295D01*
X57982Y-55561D02*
X57982Y-55599D01*
X58011Y-55638D01*
X58040Y-55657D01*
X58097Y-55676D01*
X58211Y-55695D01*
X58354Y-55695D01*
X58468Y-55676D01*
X58525Y-55657D01*
X58554Y-55638D01*
X58582Y-55599D01*
X58582Y-55561D01*
X58554Y-55523D01*
X58525Y-55504D01*
X58468Y-55485D01*
X58354Y-55466D01*
X58211Y-55466D01*
X58097Y-55485D01*
X58040Y-55504D01*
X58011Y-55523D01*
X57982Y-55561D01*
M02*
