G04 (created by PCBNEW (2013-jul-07)-stable) date Sat 05 Aug 2017 11:22:09 AM PDT*
%MOIN*%
G04 Gerber Fmt 3.4, Leading zero omitted, Abs format*
%FSLAX34Y34*%
G01*
G70*
G90*
G04 APERTURE LIST*
%ADD10C,0.00590551*%
%ADD11C,0.1*%
%ADD12R,0.06X0.06*%
%ADD13C,0.06*%
%ADD14R,0.055X0.055*%
%ADD15C,0.055*%
%ADD16C,0.2*%
%ADD17C,0.1811*%
%ADD18C,0.13*%
%ADD19C,0.07*%
%ADD20R,0.07X0.07*%
%ADD21C,0.1772*%
%ADD22C,0.076*%
%ADD23C,0.125*%
%ADD24C,0.0709*%
%ADD25R,0.0709X0.0709*%
%ADD26C,0.04*%
G04 APERTURE END LIST*
G54D10*
G54D11*
X37000Y-43380D03*
X37000Y-45250D03*
X37000Y-47120D03*
G54D12*
X42900Y-37500D03*
G54D13*
X43900Y-37500D03*
G54D14*
X48500Y-49900D03*
G54D15*
X48500Y-50900D03*
X48500Y-51900D03*
X48500Y-52900D03*
X51500Y-52900D03*
X51500Y-51900D03*
X51500Y-50900D03*
X51500Y-49900D03*
G54D16*
X39500Y-37500D03*
G54D17*
X37138Y-37500D03*
G54D11*
X43000Y-50500D03*
X41000Y-50500D03*
X43000Y-42500D03*
X41000Y-42500D03*
G54D15*
X45300Y-61400D03*
X45300Y-63400D03*
G54D14*
X37500Y-51500D03*
G54D15*
X36500Y-51500D03*
X46300Y-50500D03*
X46300Y-49500D03*
X53500Y-55800D03*
X53500Y-56800D03*
G54D18*
X35000Y-64000D03*
X62000Y-32500D03*
X35000Y-32500D03*
G54D13*
X47800Y-55200D03*
X51800Y-55200D03*
G54D19*
X45700Y-46400D03*
G54D20*
X40700Y-46400D03*
G54D19*
X45300Y-59700D03*
X45300Y-52700D03*
G54D13*
X53300Y-47300D03*
X53300Y-52300D03*
G54D19*
X52000Y-33500D03*
X38000Y-33500D03*
G54D11*
X34990Y-56131D03*
X41210Y-56131D03*
X34990Y-60069D03*
X41210Y-60069D03*
G54D20*
X48900Y-47100D03*
G54D19*
X49900Y-47100D03*
X50900Y-47100D03*
G54D21*
X49900Y-39848D03*
G54D22*
X49316Y-62300D03*
X50300Y-62300D03*
X51284Y-62300D03*
G54D23*
X48528Y-59544D03*
X52072Y-59544D03*
G54D18*
X62000Y-64000D03*
G54D24*
X58900Y-60500D03*
G54D25*
X57522Y-60500D03*
G54D24*
X60278Y-60500D03*
G54D18*
X60400Y-36385D03*
X60400Y-47815D03*
G54D26*
X37500Y-50350D02*
X37500Y-51500D01*
X40700Y-47150D02*
X37500Y-50350D01*
X40700Y-46400D02*
X40700Y-47150D01*
X34990Y-56130D02*
X38100Y-53020D01*
X41210Y-56130D02*
X38100Y-53020D01*
X37500Y-52420D02*
X37500Y-51500D01*
X38100Y-53020D02*
X37500Y-52420D01*
X39500Y-42750D02*
X37000Y-45250D01*
X39500Y-37500D02*
X39500Y-42750D01*
X43000Y-50500D02*
X43000Y-42500D01*
X41550Y-37050D02*
X38000Y-33500D01*
X41550Y-41050D02*
X41550Y-37050D01*
X43000Y-42500D02*
X41550Y-41050D01*
X47921Y-41521D02*
X43900Y-37500D01*
X47921Y-52321D02*
X47921Y-41521D01*
X48500Y-52900D02*
X47921Y-52321D01*
X45300Y-58284D02*
X45300Y-52700D01*
X49315Y-62300D02*
X45300Y-58284D01*
X50300Y-57700D02*
X47800Y-55200D01*
X50300Y-62300D02*
X50300Y-57700D01*
X51500Y-47300D02*
X53300Y-47300D01*
X51300Y-47100D02*
X51500Y-47300D01*
X50900Y-47100D02*
X51300Y-47100D01*
X51500Y-47300D02*
X51500Y-49900D01*
X53500Y-54900D02*
X51500Y-52900D01*
X53500Y-55800D02*
X53500Y-54900D01*
X48900Y-48825D02*
X48500Y-49225D01*
X48900Y-47100D02*
X48900Y-48825D01*
X48500Y-49900D02*
X48500Y-49225D01*
M02*
