G04 (created by PCBNEW (2013-jul-07)-stable) date Mon 24 Dec 2018 12:48:21 PM PST*
%MOIN*%
G04 Gerber Fmt 3.4, Leading zero omitted, Abs format*
%FSLAX34Y34*%
G01*
G70*
G90*
G04 APERTURE LIST*
%ADD10C,0.00590551*%
%ADD11C,0.008*%
%ADD12C,0.015*%
%ADD13C,0.006*%
%ADD14C,0.01*%
%ADD15C,0.012*%
%ADD16C,0.005*%
%ADD17C,0.014*%
%ADD18C,0.0075*%
G04 APERTURE END LIST*
G54D10*
G54D11*
X57261Y-58914D02*
X57261Y-58685D01*
X57661Y-58799D02*
X57261Y-58799D01*
X57661Y-58552D02*
X57261Y-58552D01*
X57261Y-58400D01*
X57280Y-58361D01*
X57300Y-58342D01*
X57338Y-58323D01*
X57395Y-58323D01*
X57433Y-58342D01*
X57452Y-58361D01*
X57471Y-58400D01*
X57471Y-58552D01*
X58680Y-58704D02*
X58661Y-58742D01*
X58661Y-58800D01*
X58680Y-58857D01*
X58719Y-58895D01*
X58757Y-58914D01*
X58833Y-58933D01*
X58890Y-58933D01*
X58966Y-58914D01*
X59004Y-58895D01*
X59042Y-58857D01*
X59061Y-58800D01*
X59061Y-58761D01*
X59042Y-58704D01*
X59023Y-58685D01*
X58890Y-58685D01*
X58890Y-58761D01*
X59061Y-58514D02*
X58661Y-58514D01*
X59061Y-58285D01*
X58661Y-58285D01*
X59061Y-58095D02*
X58661Y-58095D01*
X58661Y-57999D01*
X58680Y-57942D01*
X58719Y-57904D01*
X58757Y-57885D01*
X58833Y-57866D01*
X58890Y-57866D01*
X58966Y-57885D01*
X59004Y-57904D01*
X59042Y-57942D01*
X59061Y-57999D01*
X59061Y-58095D01*
X60161Y-58933D02*
X60561Y-58799D01*
X60161Y-58666D01*
X60523Y-58304D02*
X60542Y-58323D01*
X60561Y-58380D01*
X60561Y-58419D01*
X60542Y-58476D01*
X60504Y-58514D01*
X60466Y-58533D01*
X60390Y-58552D01*
X60333Y-58552D01*
X60257Y-58533D01*
X60219Y-58514D01*
X60180Y-58476D01*
X60161Y-58419D01*
X60161Y-58380D01*
X60180Y-58323D01*
X60200Y-58304D01*
X60523Y-57904D02*
X60542Y-57923D01*
X60561Y-57980D01*
X60561Y-58019D01*
X60542Y-58076D01*
X60504Y-58114D01*
X60466Y-58133D01*
X60390Y-58152D01*
X60333Y-58152D01*
X60257Y-58133D01*
X60219Y-58114D01*
X60180Y-58076D01*
X60161Y-58019D01*
X60161Y-57980D01*
X60180Y-57923D01*
X60200Y-57904D01*
G54D12*
X38000Y-41450D02*
X38000Y-49050D01*
X38000Y-49050D02*
X34000Y-49050D01*
X34000Y-49050D02*
X34000Y-41450D01*
X34000Y-41450D02*
X38000Y-41450D01*
G54D13*
X42400Y-38000D02*
X42400Y-37000D01*
X42400Y-37000D02*
X44400Y-37000D01*
X44400Y-37000D02*
X44400Y-38000D01*
X44400Y-38000D02*
X42400Y-38000D01*
G54D14*
X50500Y-49400D02*
X50500Y-49900D01*
X50500Y-49900D02*
X49500Y-49900D01*
X49500Y-49900D02*
X49500Y-49400D01*
X51000Y-49400D02*
X51000Y-53400D01*
X51000Y-53400D02*
X49000Y-53400D01*
X49000Y-53400D02*
X49000Y-49400D01*
X49000Y-49400D02*
X51000Y-49400D01*
G54D12*
X39500Y-38563D02*
X39500Y-39272D01*
X39500Y-39272D02*
X34067Y-39272D01*
X34067Y-39272D02*
X34067Y-35768D01*
X34067Y-35768D02*
X34067Y-35728D01*
X34067Y-35728D02*
X39500Y-35728D01*
X39500Y-35728D02*
X39500Y-36437D01*
X44236Y-50500D02*
G75*
G03X44236Y-50500I-2236J0D01*
G74*
G01*
X44236Y-42500D02*
G75*
G03X44236Y-42500I-2236J0D01*
G74*
G01*
G54D15*
X45700Y-61000D02*
X45700Y-63800D01*
X45700Y-63800D02*
X44900Y-63800D01*
X44900Y-63800D02*
X44900Y-61000D01*
X44900Y-61000D02*
X45700Y-61000D01*
X45500Y-61000D02*
X45700Y-61200D01*
G54D16*
X38001Y-51500D02*
G75*
G03X38001Y-51500I-1001J0D01*
G74*
G01*
G54D15*
X45800Y-50980D02*
X45800Y-49000D01*
X45800Y-49000D02*
X46800Y-49000D01*
X46800Y-49000D02*
X46800Y-51000D01*
X46800Y-51000D02*
X45800Y-51000D01*
X46050Y-51000D02*
X45800Y-50750D01*
X54000Y-55320D02*
X54000Y-57300D01*
X54000Y-57300D02*
X53000Y-57300D01*
X53000Y-57300D02*
X53000Y-55300D01*
X53000Y-55300D02*
X54000Y-55300D01*
X53750Y-55300D02*
X54000Y-55550D01*
X47800Y-55200D02*
X48200Y-55200D01*
X48200Y-55200D02*
X48200Y-54800D01*
X48200Y-54800D02*
X51400Y-54800D01*
X51400Y-54800D02*
X51400Y-55600D01*
X51400Y-55600D02*
X48200Y-55600D01*
X48200Y-55600D02*
X48200Y-55200D01*
X48200Y-55000D02*
X48400Y-54800D01*
X51800Y-55200D02*
X51400Y-55200D01*
X40700Y-46400D02*
X41200Y-46400D01*
X41200Y-46400D02*
X41200Y-46900D01*
X41200Y-46900D02*
X45200Y-46900D01*
X45200Y-46900D02*
X45200Y-46400D01*
X45200Y-46400D02*
X45700Y-46400D01*
X45200Y-46400D02*
X45200Y-45900D01*
X45200Y-45900D02*
X41200Y-45900D01*
X41200Y-45900D02*
X41200Y-46400D01*
X41700Y-46900D02*
X41700Y-45900D01*
X41600Y-46900D02*
X41600Y-45900D01*
X45300Y-59700D02*
X45300Y-59700D01*
X45300Y-59700D02*
X45300Y-59700D01*
X45300Y-53450D02*
X45300Y-52700D01*
X45300Y-52700D02*
X45300Y-52700D01*
X46300Y-53450D02*
X46300Y-58950D01*
X44300Y-58950D02*
X44300Y-53450D01*
X44800Y-58950D02*
X44300Y-58450D01*
X44300Y-53450D02*
X46300Y-53450D01*
X44300Y-58950D02*
X46300Y-58950D01*
X45300Y-59700D02*
X45300Y-58950D01*
X53300Y-47300D02*
X53300Y-47700D01*
X53300Y-52300D02*
X53300Y-51900D01*
X53800Y-51900D02*
X52800Y-51900D01*
X52800Y-51900D02*
X52800Y-47700D01*
X52800Y-47700D02*
X53800Y-47700D01*
X53800Y-47700D02*
X53800Y-51900D01*
X53600Y-47700D02*
X53800Y-47900D01*
G54D12*
X50150Y-33500D02*
X51600Y-33500D01*
X39800Y-33500D02*
X38400Y-33500D01*
G54D15*
X39882Y-32500D02*
X50118Y-32500D01*
X50118Y-34500D02*
X39882Y-34500D01*
X50112Y-34000D02*
X49612Y-34500D01*
X39882Y-34500D02*
X39882Y-32500D01*
X50118Y-34500D02*
X50118Y-32500D01*
G54D12*
X33966Y-58100D02*
X42234Y-58100D01*
X33966Y-54163D02*
X33966Y-62037D01*
X42234Y-54163D02*
X42234Y-62037D01*
X33966Y-54163D02*
X42234Y-54163D01*
X42234Y-62037D02*
X33966Y-62037D01*
X53600Y-37600D02*
X46200Y-37600D01*
X53600Y-45100D02*
X53600Y-37600D01*
X46200Y-45100D02*
X46200Y-37600D01*
X46200Y-45100D02*
X53600Y-45100D01*
X47900Y-46350D02*
X47900Y-46100D01*
X47900Y-46100D02*
X51900Y-46100D01*
X51900Y-46100D02*
X51900Y-46350D01*
X47900Y-47850D02*
X47900Y-46350D01*
X47900Y-46350D02*
X51900Y-46350D01*
X51900Y-46350D02*
X51900Y-47850D01*
X51900Y-47850D02*
X47900Y-47850D01*
X52300Y-60300D02*
X52300Y-60100D01*
X52300Y-58800D02*
X52300Y-59000D01*
X48300Y-58800D02*
X48300Y-59000D01*
X48300Y-60300D02*
X48300Y-60100D01*
X48800Y-62300D02*
X48900Y-62300D01*
X48300Y-60300D02*
X48300Y-62300D01*
X48300Y-62300D02*
X48800Y-62300D01*
X52300Y-58800D02*
X52300Y-58500D01*
X52300Y-58500D02*
X48300Y-58500D01*
X48300Y-58500D02*
X48300Y-58800D01*
X51700Y-62300D02*
X52300Y-62300D01*
X52300Y-62300D02*
X52300Y-60300D01*
X56617Y-59161D02*
X56617Y-61839D01*
X56617Y-61839D02*
X61183Y-61839D01*
X61183Y-61839D02*
X61183Y-59161D01*
X61183Y-59161D02*
X56617Y-59161D01*
X55800Y-36550D02*
X55800Y-47650D01*
X59100Y-47650D02*
X55800Y-47650D01*
X59100Y-36550D02*
X55800Y-36550D01*
X59100Y-35100D02*
X59100Y-36550D01*
X59100Y-49100D02*
X59100Y-47650D01*
X61700Y-35100D02*
X59100Y-35100D01*
X61700Y-49100D02*
X59100Y-49100D01*
X61700Y-42100D02*
X61700Y-49100D01*
X61700Y-42100D02*
X61700Y-35100D01*
G54D11*
X35466Y-41142D02*
X35523Y-41161D01*
X35619Y-41161D01*
X35657Y-41142D01*
X35676Y-41123D01*
X35695Y-41085D01*
X35695Y-41047D01*
X35676Y-41009D01*
X35657Y-40990D01*
X35619Y-40971D01*
X35542Y-40952D01*
X35504Y-40933D01*
X35485Y-40914D01*
X35466Y-40876D01*
X35466Y-40838D01*
X35485Y-40800D01*
X35504Y-40780D01*
X35542Y-40761D01*
X35638Y-40761D01*
X35695Y-40780D01*
X35828Y-40761D02*
X35923Y-41161D01*
X36000Y-40876D01*
X36076Y-41161D01*
X36171Y-40761D01*
X36533Y-41161D02*
X36304Y-41161D01*
X36419Y-41161D02*
X36419Y-40761D01*
X36380Y-40819D01*
X36342Y-40857D01*
X36304Y-40876D01*
X43124Y-36901D02*
X43124Y-36501D01*
X43277Y-36501D01*
X43315Y-36520D01*
X43334Y-36540D01*
X43353Y-36578D01*
X43353Y-36635D01*
X43334Y-36673D01*
X43315Y-36692D01*
X43277Y-36711D01*
X43124Y-36711D01*
X43505Y-36540D02*
X43524Y-36520D01*
X43562Y-36501D01*
X43658Y-36501D01*
X43696Y-36520D01*
X43715Y-36540D01*
X43734Y-36578D01*
X43734Y-36616D01*
X43715Y-36673D01*
X43486Y-36901D01*
X43734Y-36901D01*
X49695Y-48661D02*
X49695Y-48985D01*
X49714Y-49023D01*
X49733Y-49042D01*
X49771Y-49061D01*
X49847Y-49061D01*
X49885Y-49042D01*
X49904Y-49023D01*
X49923Y-48985D01*
X49923Y-48661D01*
X50323Y-49061D02*
X50095Y-49061D01*
X50209Y-49061D02*
X50209Y-48661D01*
X50171Y-48719D01*
X50133Y-48757D01*
X50095Y-48776D01*
X50181Y-52691D02*
X49781Y-52691D01*
X50067Y-52557D01*
X49781Y-52424D01*
X50181Y-52424D01*
X50067Y-52253D02*
X50067Y-52062D01*
X50181Y-52291D02*
X49781Y-52157D01*
X50181Y-52024D01*
X49781Y-51929D02*
X50181Y-51662D01*
X49781Y-51662D02*
X50181Y-51929D01*
X50181Y-51300D02*
X50181Y-51529D01*
X50181Y-51414D02*
X49781Y-51414D01*
X49839Y-51453D01*
X49877Y-51491D01*
X49896Y-51529D01*
X49781Y-51167D02*
X49781Y-50900D01*
X50181Y-51072D01*
X49781Y-50786D02*
X49781Y-50519D01*
X50181Y-50691D01*
X50181Y-50157D02*
X50181Y-50386D01*
X50181Y-50272D02*
X49781Y-50272D01*
X49839Y-50310D01*
X49877Y-50348D01*
X49896Y-50386D01*
X36704Y-35561D02*
X36704Y-35161D01*
X36857Y-35161D01*
X36895Y-35180D01*
X36914Y-35200D01*
X36933Y-35238D01*
X36933Y-35295D01*
X36914Y-35333D01*
X36895Y-35352D01*
X36857Y-35371D01*
X36704Y-35371D01*
X37314Y-35561D02*
X37085Y-35561D01*
X37200Y-35561D02*
X37200Y-35161D01*
X37161Y-35219D01*
X37123Y-35257D01*
X37085Y-35276D01*
X41123Y-48083D02*
X41104Y-48102D01*
X41047Y-48121D01*
X41009Y-48121D01*
X40951Y-48102D01*
X40913Y-48064D01*
X40894Y-48026D01*
X40875Y-47950D01*
X40875Y-47893D01*
X40894Y-47817D01*
X40913Y-47779D01*
X40951Y-47740D01*
X41009Y-47721D01*
X41047Y-47721D01*
X41104Y-47740D01*
X41123Y-47760D01*
X41275Y-47760D02*
X41294Y-47740D01*
X41332Y-47721D01*
X41428Y-47721D01*
X41466Y-47740D01*
X41485Y-47760D01*
X41504Y-47798D01*
X41504Y-47836D01*
X41485Y-47893D01*
X41256Y-48121D01*
X41504Y-48121D01*
X42381Y-48101D02*
X42152Y-48101D01*
X42267Y-48101D02*
X42267Y-47701D01*
X42229Y-47759D01*
X42190Y-47797D01*
X42152Y-47816D01*
X42629Y-47701D02*
X42667Y-47701D01*
X42705Y-47720D01*
X42724Y-47740D01*
X42743Y-47778D01*
X42762Y-47854D01*
X42762Y-47949D01*
X42743Y-48025D01*
X42724Y-48063D01*
X42705Y-48082D01*
X42667Y-48101D01*
X42629Y-48101D01*
X42590Y-48082D01*
X42571Y-48063D01*
X42552Y-48025D01*
X42533Y-47949D01*
X42533Y-47854D01*
X42552Y-47778D01*
X42571Y-47740D01*
X42590Y-47720D01*
X42629Y-47701D01*
X43105Y-47835D02*
X43105Y-48101D01*
X42933Y-47835D02*
X42933Y-48044D01*
X42952Y-48082D01*
X42990Y-48101D01*
X43048Y-48101D01*
X43086Y-48082D01*
X43105Y-48063D01*
X43429Y-47892D02*
X43295Y-47892D01*
X43295Y-48101D02*
X43295Y-47701D01*
X43486Y-47701D01*
G54D17*
X42719Y-51621D02*
X43328Y-51621D01*
X43024Y-51925D02*
X43024Y-51316D01*
G54D11*
X40033Y-40023D02*
X40014Y-40042D01*
X39957Y-40061D01*
X39919Y-40061D01*
X39861Y-40042D01*
X39823Y-40004D01*
X39804Y-39966D01*
X39785Y-39890D01*
X39785Y-39833D01*
X39804Y-39757D01*
X39823Y-39719D01*
X39861Y-39680D01*
X39919Y-39661D01*
X39957Y-39661D01*
X40014Y-39680D01*
X40033Y-39700D01*
X40376Y-39795D02*
X40376Y-40061D01*
X40280Y-39642D02*
X40185Y-39928D01*
X40433Y-39928D01*
X41280Y-40061D02*
X41052Y-40061D01*
X41166Y-40061D02*
X41166Y-39661D01*
X41128Y-39719D01*
X41090Y-39757D01*
X41052Y-39776D01*
X41528Y-39661D02*
X41566Y-39661D01*
X41604Y-39680D01*
X41623Y-39700D01*
X41642Y-39738D01*
X41661Y-39814D01*
X41661Y-39909D01*
X41642Y-39985D01*
X41623Y-40023D01*
X41604Y-40042D01*
X41566Y-40061D01*
X41528Y-40061D01*
X41490Y-40042D01*
X41471Y-40023D01*
X41452Y-39985D01*
X41433Y-39909D01*
X41433Y-39814D01*
X41452Y-39738D01*
X41471Y-39700D01*
X41490Y-39680D01*
X41528Y-39661D01*
X41909Y-39661D02*
X41947Y-39661D01*
X41985Y-39680D01*
X42004Y-39700D01*
X42023Y-39738D01*
X42042Y-39814D01*
X42042Y-39909D01*
X42023Y-39985D01*
X42004Y-40023D01*
X41985Y-40042D01*
X41947Y-40061D01*
X41909Y-40061D01*
X41871Y-40042D01*
X41852Y-40023D01*
X41833Y-39985D01*
X41814Y-39909D01*
X41814Y-39814D01*
X41833Y-39738D01*
X41852Y-39700D01*
X41871Y-39680D01*
X41909Y-39661D01*
X42385Y-39795D02*
X42385Y-40061D01*
X42214Y-39795D02*
X42214Y-40004D01*
X42233Y-40042D01*
X42271Y-40061D01*
X42328Y-40061D01*
X42366Y-40042D01*
X42385Y-40023D01*
X42709Y-39852D02*
X42576Y-39852D01*
X42576Y-40061D02*
X42576Y-39661D01*
X42766Y-39661D01*
X42938Y-40042D02*
X42938Y-40061D01*
X42919Y-40100D01*
X42900Y-40119D01*
X43395Y-39700D02*
X43414Y-39680D01*
X43452Y-39661D01*
X43547Y-39661D01*
X43585Y-39680D01*
X43604Y-39700D01*
X43623Y-39738D01*
X43623Y-39776D01*
X43604Y-39833D01*
X43376Y-40061D01*
X43623Y-40061D01*
X43871Y-39661D02*
X43909Y-39661D01*
X43947Y-39680D01*
X43966Y-39700D01*
X43985Y-39738D01*
X44004Y-39814D01*
X44004Y-39909D01*
X43985Y-39985D01*
X43966Y-40023D01*
X43947Y-40042D01*
X43909Y-40061D01*
X43871Y-40061D01*
X43833Y-40042D01*
X43814Y-40023D01*
X43795Y-39985D01*
X43776Y-39909D01*
X43776Y-39814D01*
X43795Y-39738D01*
X43814Y-39700D01*
X43833Y-39680D01*
X43871Y-39661D01*
X44119Y-39661D02*
X44252Y-40061D01*
X44385Y-39661D01*
G54D17*
X42639Y-43622D02*
X43248Y-43622D01*
X42944Y-43926D02*
X42944Y-43317D01*
G54D11*
X44389Y-62434D02*
X44408Y-62453D01*
X44427Y-62510D01*
X44427Y-62548D01*
X44408Y-62606D01*
X44370Y-62644D01*
X44332Y-62663D01*
X44256Y-62682D01*
X44199Y-62682D01*
X44123Y-62663D01*
X44085Y-62644D01*
X44046Y-62606D01*
X44027Y-62548D01*
X44027Y-62510D01*
X44046Y-62453D01*
X44066Y-62434D01*
X44027Y-62091D02*
X44027Y-62167D01*
X44046Y-62206D01*
X44066Y-62225D01*
X44123Y-62263D01*
X44199Y-62282D01*
X44351Y-62282D01*
X44389Y-62263D01*
X44408Y-62244D01*
X44427Y-62206D01*
X44427Y-62129D01*
X44408Y-62091D01*
X44389Y-62072D01*
X44351Y-62053D01*
X44256Y-62053D01*
X44218Y-62072D01*
X44199Y-62091D01*
X44180Y-62129D01*
X44180Y-62206D01*
X44199Y-62244D01*
X44218Y-62263D01*
X44256Y-62282D01*
X36933Y-50123D02*
X36914Y-50142D01*
X36857Y-50161D01*
X36819Y-50161D01*
X36761Y-50142D01*
X36723Y-50104D01*
X36704Y-50066D01*
X36685Y-49990D01*
X36685Y-49933D01*
X36704Y-49857D01*
X36723Y-49819D01*
X36761Y-49780D01*
X36819Y-49761D01*
X36857Y-49761D01*
X36914Y-49780D01*
X36933Y-49800D01*
X37295Y-49761D02*
X37104Y-49761D01*
X37085Y-49952D01*
X37104Y-49933D01*
X37142Y-49914D01*
X37238Y-49914D01*
X37276Y-49933D01*
X37295Y-49952D01*
X37314Y-49990D01*
X37314Y-50085D01*
X37295Y-50123D01*
X37276Y-50142D01*
X37238Y-50161D01*
X37142Y-50161D01*
X37104Y-50142D01*
X37085Y-50123D01*
X35447Y-52795D02*
X35447Y-53061D01*
X35352Y-52642D02*
X35257Y-52928D01*
X35504Y-52928D01*
X35657Y-53023D02*
X35676Y-53042D01*
X35657Y-53061D01*
X35638Y-53042D01*
X35657Y-53023D01*
X35657Y-53061D01*
X35809Y-52661D02*
X36076Y-52661D01*
X35904Y-53061D01*
X36400Y-52795D02*
X36400Y-53061D01*
X36228Y-52795D02*
X36228Y-53004D01*
X36247Y-53042D01*
X36285Y-53061D01*
X36342Y-53061D01*
X36380Y-53042D01*
X36400Y-53023D01*
X36723Y-52852D02*
X36590Y-52852D01*
X36590Y-53061D02*
X36590Y-52661D01*
X36780Y-52661D01*
X36952Y-53042D02*
X36952Y-53061D01*
X36933Y-53100D01*
X36914Y-53119D01*
X37409Y-52700D02*
X37428Y-52680D01*
X37466Y-52661D01*
X37561Y-52661D01*
X37600Y-52680D01*
X37619Y-52700D01*
X37638Y-52738D01*
X37638Y-52776D01*
X37619Y-52833D01*
X37390Y-53061D01*
X37638Y-53061D01*
X38000Y-52661D02*
X37809Y-52661D01*
X37790Y-52852D01*
X37809Y-52833D01*
X37847Y-52814D01*
X37942Y-52814D01*
X37980Y-52833D01*
X38000Y-52852D01*
X38019Y-52890D01*
X38019Y-52985D01*
X38000Y-53023D01*
X37980Y-53042D01*
X37942Y-53061D01*
X37847Y-53061D01*
X37809Y-53042D01*
X37790Y-53023D01*
X38266Y-52661D02*
X38304Y-52661D01*
X38342Y-52680D01*
X38361Y-52700D01*
X38380Y-52738D01*
X38400Y-52814D01*
X38400Y-52909D01*
X38380Y-52985D01*
X38361Y-53023D01*
X38342Y-53042D01*
X38304Y-53061D01*
X38266Y-53061D01*
X38228Y-53042D01*
X38209Y-53023D01*
X38190Y-52985D01*
X38171Y-52909D01*
X38171Y-52814D01*
X38190Y-52738D01*
X38209Y-52700D01*
X38228Y-52680D01*
X38266Y-52661D01*
X38514Y-52661D02*
X38647Y-53061D01*
X38780Y-52661D01*
G54D18*
X38460Y-51507D02*
X38689Y-51507D01*
X38575Y-51621D02*
X38575Y-51392D01*
G54D11*
X46133Y-48723D02*
X46114Y-48742D01*
X46057Y-48761D01*
X46019Y-48761D01*
X45961Y-48742D01*
X45923Y-48704D01*
X45904Y-48666D01*
X45885Y-48590D01*
X45885Y-48533D01*
X45904Y-48457D01*
X45923Y-48419D01*
X45961Y-48380D01*
X46019Y-48361D01*
X46057Y-48361D01*
X46114Y-48380D01*
X46133Y-48400D01*
X46266Y-48361D02*
X46514Y-48361D01*
X46380Y-48514D01*
X46438Y-48514D01*
X46476Y-48533D01*
X46495Y-48552D01*
X46514Y-48590D01*
X46514Y-48685D01*
X46495Y-48723D01*
X46476Y-48742D01*
X46438Y-48761D01*
X46323Y-48761D01*
X46285Y-48742D01*
X46266Y-48723D01*
X45561Y-50619D02*
X45561Y-50847D01*
X45561Y-50733D02*
X45161Y-50733D01*
X45219Y-50771D01*
X45257Y-50809D01*
X45276Y-50847D01*
X45161Y-50371D02*
X45161Y-50333D01*
X45180Y-50295D01*
X45200Y-50276D01*
X45238Y-50257D01*
X45314Y-50238D01*
X45409Y-50238D01*
X45485Y-50257D01*
X45523Y-50276D01*
X45542Y-50295D01*
X45561Y-50333D01*
X45561Y-50371D01*
X45542Y-50409D01*
X45523Y-50428D01*
X45485Y-50447D01*
X45409Y-50466D01*
X45314Y-50466D01*
X45238Y-50447D01*
X45200Y-50428D01*
X45180Y-50409D01*
X45161Y-50371D01*
X45161Y-49990D02*
X45161Y-49952D01*
X45180Y-49914D01*
X45200Y-49895D01*
X45238Y-49876D01*
X45314Y-49857D01*
X45409Y-49857D01*
X45485Y-49876D01*
X45523Y-49895D01*
X45542Y-49914D01*
X45561Y-49952D01*
X45561Y-49990D01*
X45542Y-50028D01*
X45523Y-50047D01*
X45485Y-50066D01*
X45409Y-50085D01*
X45314Y-50085D01*
X45238Y-50066D01*
X45200Y-50047D01*
X45180Y-50028D01*
X45161Y-49990D01*
X45295Y-49685D02*
X45561Y-49685D01*
X45333Y-49685D02*
X45314Y-49666D01*
X45295Y-49628D01*
X45295Y-49571D01*
X45314Y-49533D01*
X45352Y-49514D01*
X45561Y-49514D01*
X45352Y-49190D02*
X45352Y-49323D01*
X45561Y-49323D02*
X45161Y-49323D01*
X45161Y-49133D01*
X53333Y-54923D02*
X53314Y-54942D01*
X53257Y-54961D01*
X53219Y-54961D01*
X53161Y-54942D01*
X53123Y-54904D01*
X53104Y-54866D01*
X53085Y-54790D01*
X53085Y-54733D01*
X53104Y-54657D01*
X53123Y-54619D01*
X53161Y-54580D01*
X53219Y-54561D01*
X53257Y-54561D01*
X53314Y-54580D01*
X53333Y-54600D01*
X53714Y-54961D02*
X53485Y-54961D01*
X53600Y-54961D02*
X53600Y-54561D01*
X53561Y-54619D01*
X53523Y-54657D01*
X53485Y-54676D01*
X52861Y-56919D02*
X52861Y-57147D01*
X52861Y-57033D02*
X52461Y-57033D01*
X52519Y-57071D01*
X52557Y-57109D01*
X52576Y-57147D01*
X52461Y-56671D02*
X52461Y-56633D01*
X52480Y-56595D01*
X52500Y-56576D01*
X52538Y-56557D01*
X52614Y-56538D01*
X52709Y-56538D01*
X52785Y-56557D01*
X52823Y-56576D01*
X52842Y-56595D01*
X52861Y-56633D01*
X52861Y-56671D01*
X52842Y-56709D01*
X52823Y-56728D01*
X52785Y-56747D01*
X52709Y-56766D01*
X52614Y-56766D01*
X52538Y-56747D01*
X52500Y-56728D01*
X52480Y-56709D01*
X52461Y-56671D01*
X52461Y-56290D02*
X52461Y-56252D01*
X52480Y-56214D01*
X52500Y-56195D01*
X52538Y-56176D01*
X52614Y-56157D01*
X52709Y-56157D01*
X52785Y-56176D01*
X52823Y-56195D01*
X52842Y-56214D01*
X52861Y-56252D01*
X52861Y-56290D01*
X52842Y-56328D01*
X52823Y-56347D01*
X52785Y-56366D01*
X52709Y-56385D01*
X52614Y-56385D01*
X52538Y-56366D01*
X52500Y-56347D01*
X52480Y-56328D01*
X52461Y-56290D01*
X52595Y-55985D02*
X52861Y-55985D01*
X52633Y-55985D02*
X52614Y-55966D01*
X52595Y-55928D01*
X52595Y-55871D01*
X52614Y-55833D01*
X52652Y-55814D01*
X52861Y-55814D01*
X52652Y-55490D02*
X52652Y-55623D01*
X52861Y-55623D02*
X52461Y-55623D01*
X52461Y-55433D01*
X49233Y-54561D02*
X49100Y-54371D01*
X49004Y-54561D02*
X49004Y-54161D01*
X49157Y-54161D01*
X49195Y-54180D01*
X49214Y-54200D01*
X49233Y-54238D01*
X49233Y-54295D01*
X49214Y-54333D01*
X49195Y-54352D01*
X49157Y-54371D01*
X49004Y-54371D01*
X49366Y-54161D02*
X49614Y-54161D01*
X49480Y-54314D01*
X49538Y-54314D01*
X49576Y-54333D01*
X49595Y-54352D01*
X49614Y-54390D01*
X49614Y-54485D01*
X49595Y-54523D01*
X49576Y-54542D01*
X49538Y-54561D01*
X49423Y-54561D01*
X49385Y-54542D01*
X49366Y-54523D01*
X50323Y-54561D02*
X50095Y-54561D01*
X50209Y-54561D02*
X50209Y-54161D01*
X50171Y-54219D01*
X50133Y-54257D01*
X50095Y-54276D01*
X50685Y-54161D02*
X50495Y-54161D01*
X50476Y-54352D01*
X50495Y-54333D01*
X50533Y-54314D01*
X50628Y-54314D01*
X50666Y-54333D01*
X50685Y-54352D01*
X50704Y-54390D01*
X50704Y-54485D01*
X50685Y-54523D01*
X50666Y-54542D01*
X50628Y-54561D01*
X50533Y-54561D01*
X50495Y-54542D01*
X50476Y-54523D01*
X50876Y-54561D02*
X50876Y-54161D01*
X51104Y-54561D02*
X50933Y-54333D01*
X51104Y-54161D02*
X50876Y-54390D01*
X41304Y-45661D02*
X41304Y-45261D01*
X41400Y-45261D01*
X41457Y-45280D01*
X41495Y-45319D01*
X41514Y-45357D01*
X41533Y-45433D01*
X41533Y-45490D01*
X41514Y-45566D01*
X41495Y-45604D01*
X41457Y-45642D01*
X41400Y-45661D01*
X41304Y-45661D01*
X41914Y-45661D02*
X41685Y-45661D01*
X41800Y-45661D02*
X41800Y-45261D01*
X41761Y-45319D01*
X41723Y-45357D01*
X41685Y-45376D01*
G54D14*
X42661Y-46328D02*
X42795Y-46328D01*
X42852Y-46642D02*
X42661Y-46642D01*
X42661Y-46042D01*
X42852Y-46042D01*
X43004Y-46614D02*
X43061Y-46642D01*
X43157Y-46642D01*
X43195Y-46614D01*
X43214Y-46585D01*
X43233Y-46528D01*
X43233Y-46471D01*
X43214Y-46414D01*
X43195Y-46385D01*
X43157Y-46357D01*
X43080Y-46328D01*
X43042Y-46300D01*
X43023Y-46271D01*
X43004Y-46214D01*
X43004Y-46157D01*
X43023Y-46100D01*
X43042Y-46071D01*
X43080Y-46042D01*
X43176Y-46042D01*
X43233Y-46071D01*
X43385Y-46100D02*
X43404Y-46071D01*
X43442Y-46042D01*
X43538Y-46042D01*
X43576Y-46071D01*
X43595Y-46100D01*
X43614Y-46157D01*
X43614Y-46214D01*
X43595Y-46300D01*
X43366Y-46642D01*
X43614Y-46642D01*
X43919Y-46328D02*
X43785Y-46328D01*
X43785Y-46642D02*
X43785Y-46042D01*
X43976Y-46042D01*
G54D11*
X43733Y-55961D02*
X43600Y-55771D01*
X43504Y-55961D02*
X43504Y-55561D01*
X43657Y-55561D01*
X43695Y-55580D01*
X43714Y-55600D01*
X43733Y-55638D01*
X43733Y-55695D01*
X43714Y-55733D01*
X43695Y-55752D01*
X43657Y-55771D01*
X43504Y-55771D01*
X43885Y-55600D02*
X43904Y-55580D01*
X43942Y-55561D01*
X44038Y-55561D01*
X44076Y-55580D01*
X44095Y-55600D01*
X44114Y-55638D01*
X44114Y-55676D01*
X44095Y-55733D01*
X43866Y-55961D01*
X44114Y-55961D01*
X43685Y-56661D02*
X43457Y-56661D01*
X43571Y-56661D02*
X43571Y-56261D01*
X43533Y-56319D01*
X43495Y-56357D01*
X43457Y-56376D01*
X43857Y-56661D02*
X43857Y-56261D01*
X43990Y-56547D01*
X44123Y-56261D01*
X44123Y-56661D01*
X52276Y-48932D02*
X52110Y-48670D01*
X51990Y-48932D02*
X51990Y-48382D01*
X52181Y-48382D01*
X52229Y-48408D01*
X52252Y-48435D01*
X52276Y-48487D01*
X52276Y-48565D01*
X52252Y-48618D01*
X52229Y-48644D01*
X52181Y-48670D01*
X51990Y-48670D01*
X52752Y-48932D02*
X52467Y-48932D01*
X52610Y-48932D02*
X52610Y-48382D01*
X52562Y-48461D01*
X52514Y-48513D01*
X52467Y-48539D01*
X54061Y-49355D02*
X54061Y-49317D01*
X54080Y-49279D01*
X54100Y-49260D01*
X54138Y-49240D01*
X54214Y-49221D01*
X54309Y-49221D01*
X54385Y-49240D01*
X54423Y-49260D01*
X54442Y-49279D01*
X54461Y-49317D01*
X54461Y-49355D01*
X54442Y-49393D01*
X54423Y-49412D01*
X54385Y-49431D01*
X54309Y-49450D01*
X54214Y-49450D01*
X54138Y-49431D01*
X54100Y-49412D01*
X54080Y-49393D01*
X54061Y-49355D01*
X54423Y-49050D02*
X54442Y-49031D01*
X54461Y-49050D01*
X54442Y-49069D01*
X54423Y-49050D01*
X54461Y-49050D01*
X54061Y-48783D02*
X54061Y-48745D01*
X54080Y-48707D01*
X54100Y-48688D01*
X54138Y-48669D01*
X54214Y-48650D01*
X54309Y-48650D01*
X54385Y-48669D01*
X54423Y-48688D01*
X54442Y-48707D01*
X54461Y-48745D01*
X54461Y-48783D01*
X54442Y-48821D01*
X54423Y-48840D01*
X54385Y-48859D01*
X54309Y-48879D01*
X54214Y-48879D01*
X54138Y-48859D01*
X54100Y-48840D01*
X54080Y-48821D01*
X54061Y-48783D01*
X54461Y-48269D02*
X54461Y-48498D01*
X54461Y-48383D02*
X54061Y-48383D01*
X54119Y-48421D01*
X54157Y-48459D01*
X54176Y-48498D01*
X43433Y-32261D02*
X43242Y-32261D01*
X43242Y-31861D01*
X43776Y-32261D02*
X43547Y-32261D01*
X43661Y-32261D02*
X43661Y-31861D01*
X43623Y-31919D01*
X43585Y-31957D01*
X43547Y-31976D01*
X45542Y-32261D02*
X45314Y-32261D01*
X45428Y-32261D02*
X45428Y-31861D01*
X45390Y-31919D01*
X45352Y-31957D01*
X45314Y-31976D01*
X45790Y-31861D02*
X45828Y-31861D01*
X45866Y-31880D01*
X45885Y-31900D01*
X45904Y-31938D01*
X45923Y-32014D01*
X45923Y-32109D01*
X45904Y-32185D01*
X45885Y-32223D01*
X45866Y-32242D01*
X45828Y-32261D01*
X45790Y-32261D01*
X45752Y-32242D01*
X45733Y-32223D01*
X45714Y-32185D01*
X45695Y-32109D01*
X45695Y-32014D01*
X45714Y-31938D01*
X45733Y-31900D01*
X45752Y-31880D01*
X45790Y-31861D01*
X46171Y-31861D02*
X46209Y-31861D01*
X46247Y-31880D01*
X46266Y-31900D01*
X46285Y-31938D01*
X46304Y-32014D01*
X46304Y-32109D01*
X46285Y-32185D01*
X46266Y-32223D01*
X46247Y-32242D01*
X46209Y-32261D01*
X46171Y-32261D01*
X46133Y-32242D01*
X46114Y-32223D01*
X46095Y-32185D01*
X46076Y-32109D01*
X46076Y-32014D01*
X46095Y-31938D01*
X46114Y-31900D01*
X46133Y-31880D01*
X46171Y-31861D01*
X46647Y-31995D02*
X46647Y-32261D01*
X46476Y-31995D02*
X46476Y-32204D01*
X46495Y-32242D01*
X46533Y-32261D01*
X46590Y-32261D01*
X46628Y-32242D01*
X46647Y-32223D01*
X46838Y-32261D02*
X46838Y-31861D01*
X46838Y-32052D02*
X47066Y-32052D01*
X47066Y-32261D02*
X47066Y-31861D01*
G54D15*
X37418Y-62902D02*
X37418Y-62302D01*
X37646Y-62302D01*
X37703Y-62331D01*
X37732Y-62360D01*
X37761Y-62417D01*
X37761Y-62502D01*
X37732Y-62560D01*
X37703Y-62588D01*
X37646Y-62617D01*
X37418Y-62617D01*
X37961Y-62302D02*
X38332Y-62302D01*
X38132Y-62531D01*
X38218Y-62531D01*
X38275Y-62560D01*
X38303Y-62588D01*
X38332Y-62645D01*
X38332Y-62788D01*
X38303Y-62845D01*
X38275Y-62874D01*
X38218Y-62902D01*
X38046Y-62902D01*
X37989Y-62874D01*
X37961Y-62845D01*
G54D11*
X47154Y-46782D02*
X47382Y-46782D01*
X47268Y-47182D02*
X47268Y-46782D01*
X47725Y-47182D02*
X47497Y-47182D01*
X47611Y-47182D02*
X47611Y-46782D01*
X47573Y-46840D01*
X47535Y-46878D01*
X47497Y-46897D01*
X48385Y-45861D02*
X48385Y-45461D01*
X48804Y-45861D02*
X48671Y-45671D01*
X48576Y-45861D02*
X48576Y-45461D01*
X48728Y-45461D01*
X48766Y-45480D01*
X48785Y-45500D01*
X48804Y-45538D01*
X48804Y-45595D01*
X48785Y-45633D01*
X48766Y-45652D01*
X48728Y-45671D01*
X48576Y-45671D01*
X49109Y-45652D02*
X48976Y-45652D01*
X48976Y-45861D02*
X48976Y-45461D01*
X49166Y-45461D01*
X49490Y-45461D02*
X49414Y-45461D01*
X49376Y-45480D01*
X49357Y-45500D01*
X49319Y-45557D01*
X49300Y-45633D01*
X49300Y-45785D01*
X49319Y-45823D01*
X49338Y-45842D01*
X49376Y-45861D01*
X49452Y-45861D01*
X49490Y-45842D01*
X49509Y-45823D01*
X49528Y-45785D01*
X49528Y-45690D01*
X49509Y-45652D01*
X49490Y-45633D01*
X49452Y-45614D01*
X49376Y-45614D01*
X49338Y-45633D01*
X49319Y-45652D01*
X49300Y-45690D01*
X49871Y-45595D02*
X49871Y-45861D01*
X49776Y-45442D02*
X49680Y-45728D01*
X49928Y-45728D01*
X50252Y-45595D02*
X50252Y-45861D01*
X50157Y-45442D02*
X50061Y-45728D01*
X50309Y-45728D01*
X50461Y-45861D02*
X50461Y-45461D01*
X50614Y-45461D01*
X50652Y-45480D01*
X50671Y-45500D01*
X50690Y-45538D01*
X50690Y-45595D01*
X50671Y-45633D01*
X50652Y-45652D01*
X50614Y-45671D01*
X50461Y-45671D01*
X50995Y-45652D02*
X51052Y-45671D01*
X51071Y-45690D01*
X51090Y-45728D01*
X51090Y-45785D01*
X51071Y-45823D01*
X51052Y-45842D01*
X51014Y-45861D01*
X50861Y-45861D01*
X50861Y-45461D01*
X50995Y-45461D01*
X51033Y-45480D01*
X51052Y-45500D01*
X51071Y-45538D01*
X51071Y-45576D01*
X51052Y-45614D01*
X51033Y-45633D01*
X50995Y-45652D01*
X50861Y-45652D01*
X51395Y-45652D02*
X51261Y-45652D01*
X51261Y-45861D02*
X51261Y-45461D01*
X51452Y-45461D01*
X47281Y-61372D02*
X47148Y-61087D01*
X47053Y-61372D02*
X47053Y-60772D01*
X47205Y-60772D01*
X47243Y-60801D01*
X47262Y-60830D01*
X47281Y-60887D01*
X47281Y-60972D01*
X47262Y-61030D01*
X47243Y-61058D01*
X47205Y-61087D01*
X47053Y-61087D01*
X47396Y-60772D02*
X47529Y-61372D01*
X47662Y-60772D01*
X48005Y-61372D02*
X47777Y-61372D01*
X47891Y-61372D02*
X47891Y-60772D01*
X47853Y-60858D01*
X47815Y-60915D01*
X47777Y-60944D01*
G54D16*
X50098Y-60351D02*
X49955Y-60351D01*
X49941Y-60494D01*
X49955Y-60480D01*
X49984Y-60465D01*
X50055Y-60465D01*
X50084Y-60480D01*
X50098Y-60494D01*
X50112Y-60522D01*
X50112Y-60594D01*
X50098Y-60622D01*
X50084Y-60637D01*
X50055Y-60651D01*
X49984Y-60651D01*
X49955Y-60637D01*
X49941Y-60622D01*
X50298Y-60351D02*
X50327Y-60351D01*
X50355Y-60365D01*
X50370Y-60380D01*
X50384Y-60408D01*
X50398Y-60465D01*
X50398Y-60537D01*
X50384Y-60594D01*
X50370Y-60622D01*
X50355Y-60637D01*
X50327Y-60651D01*
X50298Y-60651D01*
X50270Y-60637D01*
X50255Y-60622D01*
X50241Y-60594D01*
X50227Y-60537D01*
X50227Y-60465D01*
X50241Y-60408D01*
X50255Y-60380D01*
X50270Y-60365D01*
X50298Y-60351D01*
X50527Y-60651D02*
X50527Y-60351D01*
X50698Y-60651D02*
X50570Y-60480D01*
X50698Y-60351D02*
X50527Y-60522D01*
G54D11*
X61504Y-60561D02*
X61504Y-60161D01*
X61733Y-60561D02*
X61561Y-60333D01*
X61733Y-60161D02*
X61504Y-60390D01*
X62114Y-60561D02*
X61885Y-60561D01*
X62000Y-60561D02*
X62000Y-60161D01*
X61961Y-60219D01*
X61923Y-60257D01*
X61885Y-60276D01*
G54D14*
X56300Y-41902D02*
X56466Y-42402D01*
X56633Y-41902D01*
X56895Y-41902D02*
X56990Y-41902D01*
X57038Y-41926D01*
X57085Y-41973D01*
X57109Y-42069D01*
X57109Y-42235D01*
X57085Y-42330D01*
X57038Y-42378D01*
X56990Y-42402D01*
X56895Y-42402D01*
X56847Y-42378D01*
X56800Y-42330D01*
X56776Y-42235D01*
X56776Y-42069D01*
X56800Y-41973D01*
X56847Y-41926D01*
X56895Y-41902D01*
X57561Y-42402D02*
X57323Y-42402D01*
X57323Y-41902D01*
X57657Y-41902D02*
X57942Y-41902D01*
X57800Y-42402D02*
X57800Y-41902D01*
X57990Y-42450D02*
X58371Y-42450D01*
X58490Y-42402D02*
X58490Y-41902D01*
X58609Y-41902D01*
X58680Y-41926D01*
X58728Y-41973D01*
X58752Y-42021D01*
X58776Y-42116D01*
X58776Y-42188D01*
X58752Y-42283D01*
X58728Y-42330D01*
X58680Y-42378D01*
X58609Y-42402D01*
X58490Y-42402D01*
X58990Y-42402D02*
X58990Y-41902D01*
X59204Y-42378D02*
X59276Y-42402D01*
X59395Y-42402D01*
X59442Y-42378D01*
X59466Y-42354D01*
X59490Y-42307D01*
X59490Y-42259D01*
X59466Y-42211D01*
X59442Y-42188D01*
X59395Y-42164D01*
X59300Y-42140D01*
X59252Y-42116D01*
X59228Y-42092D01*
X59204Y-42045D01*
X59204Y-41997D01*
X59228Y-41950D01*
X59252Y-41926D01*
X59300Y-41902D01*
X59419Y-41902D01*
X59490Y-41926D01*
X59704Y-42402D02*
X59704Y-41902D01*
X59895Y-41902D01*
X59942Y-41926D01*
X59966Y-41950D01*
X59990Y-41997D01*
X59990Y-42069D01*
X59966Y-42116D01*
X59942Y-42140D01*
X59895Y-42164D01*
X59704Y-42164D01*
X60442Y-42402D02*
X60204Y-42402D01*
X60204Y-41902D01*
X60585Y-42259D02*
X60823Y-42259D01*
X60538Y-42402D02*
X60704Y-41902D01*
X60871Y-42402D01*
X61133Y-42164D02*
X61133Y-42402D01*
X60966Y-41902D02*
X61133Y-42164D01*
X61300Y-41902D01*
X56302Y-47292D02*
X56302Y-47007D01*
X56802Y-47149D02*
X56302Y-47149D01*
X56802Y-46840D02*
X56302Y-46840D01*
X56302Y-46650D01*
X56326Y-46602D01*
X56350Y-46578D01*
X56397Y-46554D01*
X56469Y-46554D01*
X56516Y-46578D01*
X56540Y-46602D01*
X56564Y-46650D01*
X56564Y-46840D01*
X57126Y-47080D02*
X57102Y-47128D01*
X57102Y-47200D01*
X57126Y-47271D01*
X57173Y-47319D01*
X57221Y-47342D01*
X57316Y-47366D01*
X57388Y-47366D01*
X57483Y-47342D01*
X57530Y-47319D01*
X57578Y-47271D01*
X57602Y-47200D01*
X57602Y-47152D01*
X57578Y-47080D01*
X57554Y-47057D01*
X57388Y-47057D01*
X57388Y-47152D01*
X57602Y-46842D02*
X57102Y-46842D01*
X57602Y-46557D01*
X57102Y-46557D01*
X57602Y-46319D02*
X57102Y-46319D01*
X57102Y-46200D01*
X57126Y-46128D01*
X57173Y-46080D01*
X57221Y-46057D01*
X57316Y-46033D01*
X57388Y-46033D01*
X57483Y-46057D01*
X57530Y-46080D01*
X57578Y-46128D01*
X57602Y-46200D01*
X57602Y-46319D01*
X57902Y-47366D02*
X58402Y-47199D01*
X57902Y-47033D01*
X58354Y-46580D02*
X58378Y-46604D01*
X58402Y-46676D01*
X58402Y-46723D01*
X58378Y-46795D01*
X58330Y-46842D01*
X58283Y-46866D01*
X58188Y-46890D01*
X58116Y-46890D01*
X58021Y-46866D01*
X57973Y-46842D01*
X57926Y-46795D01*
X57902Y-46723D01*
X57902Y-46676D01*
X57926Y-46604D01*
X57950Y-46580D01*
X58354Y-46080D02*
X58378Y-46104D01*
X58402Y-46176D01*
X58402Y-46223D01*
X58378Y-46295D01*
X58330Y-46342D01*
X58283Y-46366D01*
X58188Y-46390D01*
X58116Y-46390D01*
X58021Y-46366D01*
X57973Y-46342D01*
X57926Y-46295D01*
X57902Y-46223D01*
X57902Y-46176D01*
X57926Y-46104D01*
X57950Y-46080D01*
M02*
