M48
;DRILL file {Pcbnew (2013-jul-07)-stable} date Mon 24 Dec 2018 12:48:24 PM PST
;FORMAT={-:-/ absolute / inch / decimal}
FMAT,2
INCH,TZ
T1C0.032
T2C0.040
T3C0.043
T4C0.045
T5C0.047
T6C0.050
T7C0.070
T8C0.102
T9C0.107
T10C0.118
T11C0.119
T12C0.120
T13C0.150
%
G90
G05
M72
T1
X3.65Y-5.15
X3.75Y-5.15
X4.53Y-6.14
X4.53Y-6.34
X4.63Y-4.95
X4.63Y-5.05
X4.78Y-5.52
X4.85Y-4.99
X4.85Y-5.09
X4.85Y-5.19
X4.85Y-5.29
X5.15Y-4.99
X5.15Y-5.09
X5.15Y-5.19
X5.15Y-5.29
X5.18Y-5.52
X5.33Y-4.73
X5.33Y-5.23
X5.35Y-5.58
X5.35Y-5.68
T2
X4.1Y-4.25
X4.1Y-5.05
X4.29Y-3.75
X4.3Y-4.25
X4.3Y-5.05
X4.39Y-3.75
X4.89Y-4.71
X4.99Y-4.71
X5.09Y-4.71
T3
X4.9316Y-6.23
X5.03Y-6.23
X5.1284Y-6.23
T4
X4.07Y-4.64
X4.57Y-4.64
T5
X5.7522Y-6.05
X5.89Y-6.05
X6.0278Y-6.05
T6
X3.8Y-3.35
X4.53Y-5.27
X4.53Y-5.97
X5.2Y-3.35
T7
X3.499Y-5.6131
X3.499Y-6.0069
X3.7Y-4.338
X3.7Y-4.525
X3.7Y-4.712
X4.121Y-5.6131
X4.121Y-6.0069
T8
X3.7138Y-3.75
T9
X4.8528Y-5.9544
X5.2072Y-5.9544
T10
X3.95Y-3.75
T11
X6.04Y-3.6385
X6.04Y-4.7815
T12
X3.5Y-3.25
X3.5Y-6.4
X6.2Y-3.25
X6.2Y-6.4
T13
X4.99Y-3.9848
T0
M30
